<svg width="792" height="612" viewBox="0 0 792 612" fill="none" xmlns="http://www.w3.org/2000/svg">
<g clip-path="url(#clip0)">
<rect width="792" height="612" fill="#DDF1F0"/>
<path d="M90.052 124.4H91.384V135.848H98.44V137H90.052V124.4ZM104.111 137.09C103.199 137.09 102.377 136.886 101.645 136.478C100.913 136.058 100.337 135.482 99.917 134.75C99.497 134.018 99.287 133.19 99.287 132.266C99.287 131.342 99.497 130.514 99.917 129.782C100.337 129.05 100.913 128.48 101.645 128.072C102.377 127.664 103.199 127.46 104.111 127.46C105.023 127.46 105.845 127.664 106.577 128.072C107.309 128.48 107.879 129.05 108.287 129.782C108.707 130.514 108.917 131.342 108.917 132.266C108.917 133.19 108.707 134.018 108.287 134.75C107.879 135.482 107.309 136.058 106.577 136.478C105.845 136.886 105.023 137.09 104.111 137.09ZM104.111 135.956C104.783 135.956 105.383 135.806 105.911 135.506C106.451 135.194 106.871 134.756 107.171 134.192C107.471 133.628 107.621 132.986 107.621 132.266C107.621 131.546 107.471 130.904 107.171 130.34C106.871 129.776 106.451 129.344 105.911 129.044C105.383 128.732 104.783 128.576 104.111 128.576C103.439 128.576 102.833 128.732 102.293 129.044C101.765 129.344 101.345 129.776 101.033 130.34C100.733 130.904 100.583 131.546 100.583 132.266C100.583 132.986 100.733 133.628 101.033 134.192C101.345 134.756 101.765 135.194 102.293 135.506C102.833 135.806 103.439 135.956 104.111 135.956ZM112.75 129.386C113.05 128.75 113.494 128.27 114.082 127.946C114.682 127.622 115.42 127.46 116.296 127.46V128.702L115.99 128.684C114.994 128.684 114.214 128.99 113.65 129.602C113.086 130.214 112.804 131.072 112.804 132.176V137H111.526V127.532H112.75V129.386ZM126.766 132.662H118.846C118.918 133.646 119.296 134.444 119.98 135.056C120.664 135.656 121.528 135.956 122.572 135.956C123.16 135.956 123.7 135.854 124.192 135.65C124.684 135.434 125.11 135.122 125.47 134.714L126.19 135.542C125.77 136.046 125.242 136.43 124.606 136.694C123.982 136.958 123.292 137.09 122.536 137.09C121.564 137.09 120.7 136.886 119.944 136.478C119.2 136.058 118.618 135.482 118.198 134.75C117.778 134.018 117.568 133.19 117.568 132.266C117.568 131.342 117.766 130.514 118.162 129.782C118.57 129.05 119.122 128.48 119.818 128.072C120.526 127.664 121.318 127.46 122.194 127.46C123.07 127.46 123.856 127.664 124.552 128.072C125.248 128.48 125.794 129.05 126.19 129.782C126.586 130.502 126.784 131.33 126.784 132.266L126.766 132.662ZM122.194 128.558C121.282 128.558 120.514 128.852 119.89 129.44C119.278 130.016 118.93 130.772 118.846 131.708H125.56C125.476 130.772 125.122 130.016 124.498 129.44C123.886 128.852 123.118 128.558 122.194 128.558ZM141.194 127.46C142.382 127.46 143.312 127.802 143.984 128.486C144.668 129.17 145.01 130.178 145.01 131.51V137H143.732V131.636C143.732 130.652 143.492 129.902 143.012 129.386C142.544 128.87 141.878 128.612 141.014 128.612C140.03 128.612 139.256 128.918 138.692 129.53C138.128 130.13 137.846 130.964 137.846 132.032V137H136.568V131.636C136.568 130.652 136.328 129.902 135.848 129.386C135.38 128.87 134.708 128.612 133.832 128.612C132.86 128.612 132.086 128.918 131.51 129.53C130.946 130.13 130.664 130.964 130.664 132.032V137H129.386V127.532H130.61V129.26C130.946 128.684 131.414 128.24 132.014 127.928C132.614 127.616 133.304 127.46 134.084 127.46C134.876 127.46 135.56 127.628 136.136 127.964C136.724 128.3 137.162 128.798 137.45 129.458C137.798 128.834 138.296 128.348 138.944 128C139.604 127.64 140.354 127.46 141.194 127.46ZM153.186 127.532H154.464V137H153.186V127.532ZM153.834 125.462C153.57 125.462 153.348 125.372 153.168 125.192C152.988 125.012 152.898 124.796 152.898 124.544C152.898 124.304 152.988 124.094 153.168 123.914C153.348 123.734 153.57 123.644 153.834 123.644C154.098 123.644 154.32 123.734 154.5 123.914C154.68 124.082 154.77 124.286 154.77 124.526C154.77 124.79 154.68 125.012 154.5 125.192C154.32 125.372 154.098 125.462 153.834 125.462ZM162.898 127.46C163.786 127.46 164.59 127.664 165.31 128.072C166.03 128.468 166.594 129.032 167.002 129.764C167.41 130.496 167.614 131.33 167.614 132.266C167.614 133.214 167.41 134.054 167.002 134.786C166.594 135.518 166.03 136.088 165.31 136.496C164.602 136.892 163.798 137.09 162.898 137.09C162.13 137.09 161.434 136.934 160.81 136.622C160.198 136.298 159.694 135.83 159.298 135.218V140.492H158.02V127.532H159.244V129.404C159.628 128.78 160.132 128.3 160.756 127.964C161.392 127.628 162.106 127.46 162.898 127.46ZM162.808 135.956C163.468 135.956 164.068 135.806 164.608 135.506C165.148 135.194 165.568 134.756 165.868 134.192C166.18 133.628 166.336 132.986 166.336 132.266C166.336 131.546 166.18 130.91 165.868 130.358C165.568 129.794 165.148 129.356 164.608 129.044C164.068 128.732 163.468 128.576 162.808 128.576C162.136 128.576 161.53 128.732 160.99 129.044C160.462 129.356 160.042 129.794 159.73 130.358C159.43 130.91 159.28 131.546 159.28 132.266C159.28 132.986 159.43 133.628 159.73 134.192C160.042 134.756 160.462 135.194 160.99 135.506C161.53 135.806 162.136 135.956 162.808 135.956ZM172.758 137.09C171.99 137.09 171.252 136.982 170.544 136.766C169.848 136.538 169.302 136.256 168.906 135.92L169.482 134.912C169.878 135.224 170.376 135.482 170.976 135.686C171.576 135.878 172.2 135.974 172.848 135.974C173.712 135.974 174.348 135.842 174.756 135.578C175.176 135.302 175.386 134.918 175.386 134.426C175.386 134.078 175.272 133.808 175.044 133.616C174.816 133.412 174.528 133.262 174.18 133.166C173.832 133.058 173.37 132.956 172.794 132.86C172.026 132.716 171.408 132.572 170.94 132.428C170.472 132.272 170.07 132.014 169.734 131.654C169.41 131.294 169.248 130.796 169.248 130.16C169.248 129.368 169.578 128.72 170.238 128.216C170.898 127.712 171.816 127.46 172.992 127.46C173.604 127.46 174.216 127.544 174.828 127.712C175.44 127.868 175.944 128.078 176.34 128.342L175.782 129.368C175.002 128.828 174.072 128.558 172.992 128.558C172.176 128.558 171.558 128.702 171.138 128.99C170.73 129.278 170.526 129.656 170.526 130.124C170.526 130.484 170.64 130.772 170.868 130.988C171.108 131.204 171.402 131.366 171.75 131.474C172.098 131.57 172.578 131.672 173.189 131.78C173.946 131.924 174.552 132.068 175.008 132.212C175.464 132.356 175.854 132.602 176.178 132.95C176.502 133.298 176.664 133.778 176.664 134.39C176.664 135.218 176.316 135.878 175.62 136.37C174.936 136.85 173.982 137.09 172.758 137.09ZM187.558 127.532V137H186.334V135.272C185.998 135.848 185.536 136.298 184.948 136.622C184.36 136.934 183.688 137.09 182.932 137.09C181.696 137.09 180.718 136.748 179.998 136.064C179.29 135.368 178.936 134.354 178.936 133.022V127.532H180.214V132.896C180.214 133.892 180.46 134.648 180.952 135.164C181.444 135.68 182.146 135.938 183.058 135.938C184.054 135.938 184.84 135.638 185.416 135.038C185.992 134.426 186.28 133.58 186.28 132.5V127.532H187.558ZM202.945 127.46C204.133 127.46 205.063 127.802 205.735 128.486C206.419 129.17 206.761 130.178 206.761 131.51V137H205.483V131.636C205.483 130.652 205.243 129.902 204.763 129.386C204.295 128.87 203.629 128.612 202.765 128.612C201.781 128.612 201.007 128.918 200.443 129.53C199.879 130.13 199.597 130.964 199.597 132.032V137H198.319V131.636C198.319 130.652 198.079 129.902 197.599 129.386C197.131 128.87 196.459 128.612 195.583 128.612C194.611 128.612 193.837 128.918 193.261 129.53C192.697 130.13 192.415 130.964 192.415 132.032V137H191.137V127.532H192.361V129.26C192.697 128.684 193.165 128.24 193.765 127.928C194.365 127.616 195.055 127.46 195.835 127.46C196.627 127.46 197.311 127.628 197.887 127.964C198.475 128.3 198.913 128.798 199.201 129.458C199.549 128.834 200.047 128.348 200.695 128C201.355 127.64 202.105 127.46 202.945 127.46ZM223.578 123.644V137H222.354V135.128C221.97 135.764 221.46 136.25 220.824 136.586C220.2 136.922 219.492 137.09 218.7 137.09C217.812 137.09 217.008 136.886 216.288 136.478C215.568 136.07 215.004 135.5 214.596 134.768C214.188 134.036 213.984 133.202 213.984 132.266C213.984 131.33 214.188 130.496 214.596 129.764C215.004 129.032 215.568 128.468 216.288 128.072C217.008 127.664 217.812 127.46 218.7 127.46C219.468 127.46 220.158 127.622 220.77 127.946C221.394 128.258 221.904 128.72 222.3 129.332V123.644H223.578ZM218.808 135.956C219.468 135.956 220.062 135.806 220.59 135.506C221.13 135.194 221.55 134.756 221.85 134.192C222.162 133.628 222.318 132.986 222.318 132.266C222.318 131.546 222.162 130.904 221.85 130.34C221.55 129.776 221.13 129.344 220.59 129.044C220.062 128.732 219.468 128.576 218.808 128.576C218.136 128.576 217.53 128.732 216.99 129.044C216.462 129.344 216.042 129.776 215.73 130.34C215.43 130.904 215.28 131.546 215.28 132.266C215.28 132.986 215.43 133.628 215.73 134.192C216.042 134.756 216.462 135.194 216.99 135.506C217.53 135.806 218.136 135.956 218.808 135.956ZM231.007 137.09C230.095 137.09 229.273 136.886 228.541 136.478C227.809 136.058 227.233 135.482 226.813 134.75C226.393 134.018 226.183 133.19 226.183 132.266C226.183 131.342 226.393 130.514 226.813 129.782C227.233 129.05 227.809 128.48 228.541 128.072C229.273 127.664 230.095 127.46 231.007 127.46C231.919 127.46 232.741 127.664 233.473 128.072C234.205 128.48 234.775 129.05 235.183 129.782C235.603 130.514 235.813 131.342 235.813 132.266C235.813 133.19 235.603 134.018 235.183 134.75C234.775 135.482 234.205 136.058 233.473 136.478C232.741 136.886 231.919 137.09 231.007 137.09ZM231.007 135.956C231.679 135.956 232.279 135.806 232.807 135.506C233.347 135.194 233.767 134.756 234.067 134.192C234.367 133.628 234.517 132.986 234.517 132.266C234.517 131.546 234.367 130.904 234.067 130.34C233.767 129.776 233.347 129.344 232.807 129.044C232.279 128.732 231.679 128.576 231.007 128.576C230.335 128.576 229.729 128.732 229.189 129.044C228.661 129.344 228.241 129.776 227.929 130.34C227.629 130.904 227.479 131.546 227.479 132.266C227.479 132.986 227.629 133.628 227.929 134.192C228.241 134.756 228.661 135.194 229.189 135.506C229.729 135.806 230.335 135.956 231.007 135.956ZM238.423 123.644H239.701V137H238.423V123.644ZM247.127 137.09C246.215 137.09 245.393 136.886 244.661 136.478C243.929 136.058 243.353 135.482 242.933 134.75C242.513 134.018 242.303 133.19 242.303 132.266C242.303 131.342 242.513 130.514 242.933 129.782C243.353 129.05 243.929 128.48 244.661 128.072C245.393 127.664 246.215 127.46 247.127 127.46C248.039 127.46 248.861 127.664 249.593 128.072C250.325 128.48 250.895 129.05 251.303 129.782C251.723 130.514 251.933 131.342 251.933 132.266C251.933 133.19 251.723 134.018 251.303 134.75C250.895 135.482 250.325 136.058 249.593 136.478C248.861 136.886 248.039 137.09 247.127 137.09ZM247.127 135.956C247.799 135.956 248.399 135.806 248.927 135.506C249.467 135.194 249.887 134.756 250.187 134.192C250.487 133.628 250.637 132.986 250.637 132.266C250.637 131.546 250.487 130.904 250.187 130.34C249.887 129.776 249.467 129.344 248.927 129.044C248.399 128.732 247.799 128.576 247.127 128.576C246.455 128.576 245.849 128.732 245.309 129.044C244.781 129.344 244.361 129.776 244.049 130.34C243.749 130.904 243.599 131.546 243.599 132.266C243.599 132.986 243.749 133.628 244.049 134.192C244.361 134.756 244.781 135.194 245.309 135.506C245.849 135.806 246.455 135.956 247.127 135.956ZM255.766 129.386C256.066 128.75 256.51 128.27 257.098 127.946C257.698 127.622 258.436 127.46 259.312 127.46V128.702L259.006 128.684C258.01 128.684 257.23 128.99 256.666 129.602C256.102 130.214 255.82 131.072 255.82 132.176V137H254.542V127.532H255.766V129.386ZM269.015 137.09C268.247 137.09 267.509 136.982 266.801 136.766C266.105 136.538 265.559 136.256 265.163 135.92L265.739 134.912C266.135 135.224 266.633 135.482 267.233 135.686C267.833 135.878 268.457 135.974 269.105 135.974C269.969 135.974 270.605 135.842 271.013 135.578C271.433 135.302 271.643 134.918 271.643 134.426C271.643 134.078 271.529 133.808 271.301 133.616C271.073 133.412 270.785 133.262 270.437 133.166C270.089 133.058 269.627 132.956 269.051 132.86C268.283 132.716 267.665 132.572 267.197 132.428C266.729 132.272 266.327 132.014 265.991 131.654C265.667 131.294 265.505 130.796 265.505 130.16C265.505 129.368 265.835 128.72 266.495 128.216C267.155 127.712 268.073 127.46 269.249 127.46C269.861 127.46 270.473 127.544 271.085 127.712C271.697 127.868 272.201 128.078 272.597 128.342L272.039 129.368C271.259 128.828 270.329 128.558 269.249 128.558C268.433 128.558 267.815 128.702 267.395 128.99C266.987 129.278 266.783 129.656 266.783 130.124C266.783 130.484 266.897 130.772 267.125 130.988C267.365 131.204 267.659 131.366 268.007 131.474C268.355 131.57 268.835 131.672 269.447 131.78C270.203 131.924 270.809 132.068 271.265 132.212C271.721 132.356 272.111 132.602 272.435 132.95C272.759 133.298 272.921 133.778 272.921 134.39C272.921 135.218 272.573 135.878 271.877 136.37C271.193 136.85 270.239 137.09 269.015 137.09ZM275.284 127.532H276.562V137H275.284V127.532ZM275.932 125.462C275.668 125.462 275.446 125.372 275.266 125.192C275.086 125.012 274.996 124.796 274.996 124.544C274.996 124.304 275.086 124.094 275.266 123.914C275.446 123.734 275.668 123.644 275.932 123.644C276.196 123.644 276.418 123.734 276.598 123.914C276.778 124.082 276.868 124.286 276.868 124.526C276.868 124.79 276.778 125.012 276.598 125.192C276.418 125.372 276.196 125.462 275.932 125.462ZM285.104 136.424C284.864 136.64 284.564 136.808 284.204 136.928C283.856 137.036 283.49 137.09 283.106 137.09C282.218 137.09 281.534 136.85 281.054 136.37C280.574 135.89 280.334 135.212 280.334 134.336V128.612H278.642V127.532H280.334V125.462H281.612V127.532H284.492V128.612H281.612V134.264C281.612 134.828 281.75 135.26 282.026 135.56C282.314 135.848 282.722 135.992 283.25 135.992C283.514 135.992 283.766 135.95 284.006 135.866C284.258 135.782 284.474 135.662 284.654 135.506L285.104 136.424ZM295.453 127.46C296.689 127.46 297.637 127.772 298.297 128.396C298.957 129.008 299.287 129.92 299.287 131.132V137H298.063V135.524C297.775 136.016 297.349 136.4 296.785 136.676C296.233 136.952 295.573 137.09 294.805 137.09C293.749 137.09 292.909 136.838 292.285 136.334C291.661 135.83 291.349 135.164 291.349 134.336C291.349 133.532 291.637 132.884 292.213 132.392C292.801 131.9 293.731 131.654 295.003 131.654H298.009V131.078C298.009 130.262 297.781 129.644 297.325 129.224C296.869 128.792 296.203 128.576 295.327 128.576C294.727 128.576 294.151 128.678 293.599 128.882C293.047 129.074 292.573 129.344 292.177 129.692L291.601 128.738C292.081 128.33 292.657 128.018 293.329 127.802C294.001 127.574 294.709 127.46 295.453 127.46ZM295.003 136.082C295.723 136.082 296.341 135.92 296.857 135.596C297.373 135.26 297.757 134.78 298.009 134.156V132.608H295.039C293.419 132.608 292.609 133.172 292.609 134.3C292.609 134.852 292.819 135.29 293.239 135.614C293.659 135.926 294.247 136.082 295.003 136.082ZM314.567 127.46C315.755 127.46 316.685 127.802 317.357 128.486C318.041 129.17 318.383 130.178 318.383 131.51V137H317.105V131.636C317.105 130.652 316.865 129.902 316.385 129.386C315.917 128.87 315.251 128.612 314.387 128.612C313.403 128.612 312.629 128.918 312.065 129.53C311.501 130.13 311.219 130.964 311.219 132.032V137H309.941V131.636C309.941 130.652 309.701 129.902 309.221 129.386C308.753 128.87 308.081 128.612 307.205 128.612C306.233 128.612 305.459 128.918 304.883 129.53C304.319 130.13 304.037 130.964 304.037 132.032V137H302.759V127.532H303.983V129.26C304.319 128.684 304.787 128.24 305.387 127.928C305.987 127.616 306.677 127.46 307.457 127.46C308.249 127.46 308.933 127.628 309.509 127.964C310.097 128.3 310.535 128.798 310.823 129.458C311.171 128.834 311.669 128.348 312.317 128C312.977 127.64 313.727 127.46 314.567 127.46ZM330.128 132.662H322.208C322.28 133.646 322.658 134.444 323.342 135.056C324.026 135.656 324.89 135.956 325.934 135.956C326.522 135.956 327.062 135.854 327.554 135.65C328.046 135.434 328.472 135.122 328.832 134.714L329.552 135.542C329.132 136.046 328.604 136.43 327.968 136.694C327.344 136.958 326.654 137.09 325.898 137.09C324.926 137.09 324.062 136.886 323.306 136.478C322.562 136.058 321.98 135.482 321.56 134.75C321.14 134.018 320.93 133.19 320.93 132.266C320.93 131.342 321.128 130.514 321.524 129.782C321.932 129.05 322.484 128.48 323.18 128.072C323.888 127.664 324.68 127.46 325.556 127.46C326.432 127.46 327.218 127.664 327.914 128.072C328.61 128.48 329.156 129.05 329.552 129.782C329.948 130.502 330.146 131.33 330.146 132.266L330.128 132.662ZM325.556 128.558C324.644 128.558 323.876 128.852 323.252 129.44C322.64 130.016 322.292 130.772 322.208 131.708H328.922C328.838 130.772 328.484 130.016 327.86 129.44C327.248 128.852 326.48 128.558 325.556 128.558ZM337.733 136.424C337.493 136.64 337.193 136.808 336.833 136.928C336.485 137.036 336.119 137.09 335.735 137.09C334.847 137.09 334.163 136.85 333.683 136.37C333.203 135.89 332.963 135.212 332.963 134.336V128.612H331.271V127.532H332.963V125.462H334.241V127.532H337.121V128.612H334.241V134.264C334.241 134.828 334.379 135.26 334.655 135.56C334.943 135.848 335.351 135.992 335.879 135.992C336.143 135.992 336.395 135.95 336.635 135.866C336.887 135.782 337.103 135.662 337.283 135.506L337.733 136.424ZM340.379 135.128C340.655 135.128 340.883 135.224 341.063 135.416C341.243 135.596 341.333 135.824 341.333 136.1C341.333 136.244 341.309 136.4 341.261 136.568C341.225 136.736 341.165 136.928 341.081 137.144L340.325 139.628H339.461L340.073 137.018C339.881 136.958 339.725 136.85 339.605 136.694C339.485 136.526 339.425 136.328 339.425 136.1C339.425 135.824 339.515 135.596 339.695 135.416C339.875 135.224 340.103 135.128 340.379 135.128ZM93.706 159.09C92.77 159.09 91.93 158.886 91.186 158.478C90.454 158.07 89.878 157.5 89.458 156.768C89.038 156.024 88.828 155.19 88.828 154.266C88.828 153.342 89.038 152.514 89.458 151.782C89.878 151.05 90.454 150.48 91.186 150.072C91.93 149.664 92.77 149.46 93.706 149.46C94.522 149.46 95.248 149.622 95.884 149.946C96.532 150.258 97.042 150.72 97.414 151.332L96.46 151.98C96.148 151.512 95.752 151.164 95.272 150.936C94.792 150.696 94.27 150.576 93.706 150.576C93.022 150.576 92.404 150.732 91.852 151.044C91.312 151.344 90.886 151.776 90.574 152.34C90.274 152.904 90.124 153.546 90.124 154.266C90.124 154.998 90.274 155.646 90.574 156.21C90.886 156.762 91.312 157.194 91.852 157.506C92.404 157.806 93.022 157.956 93.706 157.956C94.27 157.956 94.792 157.842 95.272 157.614C95.752 157.386 96.148 157.038 96.46 156.57L97.414 157.218C97.042 157.83 96.532 158.298 95.884 158.622C95.236 158.934 94.51 159.09 93.706 159.09ZM103.636 159.09C102.724 159.09 101.902 158.886 101.17 158.478C100.438 158.058 99.8624 157.482 99.4424 156.75C99.0224 156.018 98.8124 155.19 98.8124 154.266C98.8124 153.342 99.0224 152.514 99.4424 151.782C99.8624 151.05 100.438 150.48 101.17 150.072C101.902 149.664 102.724 149.46 103.636 149.46C104.548 149.46 105.37 149.664 106.102 150.072C106.834 150.48 107.404 151.05 107.812 151.782C108.232 152.514 108.442 153.342 108.442 154.266C108.442 155.19 108.232 156.018 107.812 156.75C107.404 157.482 106.834 158.058 106.102 158.478C105.37 158.886 104.548 159.09 103.636 159.09ZM103.636 157.956C104.308 157.956 104.908 157.806 105.436 157.506C105.976 157.194 106.396 156.756 106.696 156.192C106.996 155.628 107.146 154.986 107.146 154.266C107.146 153.546 106.996 152.904 106.696 152.34C106.396 151.776 105.976 151.344 105.436 151.044C104.908 150.732 104.308 150.576 103.636 150.576C102.964 150.576 102.358 150.732 101.818 151.044C101.29 151.344 100.87 151.776 100.558 152.34C100.258 152.904 100.108 153.546 100.108 154.266C100.108 154.986 100.258 155.628 100.558 156.192C100.87 156.756 101.29 157.194 101.818 157.506C102.358 157.806 102.964 157.956 103.636 157.956ZM115.876 149.46C117.064 149.46 118.006 149.808 118.702 150.504C119.41 151.188 119.764 152.19 119.764 153.51V159H118.486V153.636C118.486 152.652 118.24 151.902 117.748 151.386C117.256 150.87 116.554 150.612 115.642 150.612C114.622 150.612 113.812 150.918 113.212 151.53C112.624 152.13 112.33 152.964 112.33 154.032V159H111.052V149.532H112.276V151.278C112.624 150.702 113.104 150.258 113.716 149.946C114.34 149.622 115.06 149.46 115.876 149.46ZM125.771 159.09C125.003 159.09 124.265 158.982 123.557 158.766C122.861 158.538 122.315 158.256 121.919 157.92L122.495 156.912C122.891 157.224 123.389 157.482 123.989 157.686C124.589 157.878 125.213 157.974 125.861 157.974C126.725 157.974 127.361 157.842 127.769 157.578C128.189 157.302 128.399 156.918 128.399 156.426C128.399 156.078 128.285 155.808 128.057 155.616C127.829 155.412 127.541 155.262 127.193 155.166C126.845 155.058 126.383 154.956 125.807 154.86C125.039 154.716 124.421 154.572 123.953 154.428C123.485 154.272 123.083 154.014 122.747 153.654C122.423 153.294 122.261 152.796 122.261 152.16C122.261 151.368 122.591 150.72 123.251 150.216C123.911 149.712 124.829 149.46 126.005 149.46C126.617 149.46 127.229 149.544 127.841 149.712C128.453 149.868 128.957 150.078 129.353 150.342L128.795 151.368C128.015 150.828 127.085 150.558 126.005 150.558C125.189 150.558 124.571 150.702 124.151 150.99C123.743 151.278 123.539 151.656 123.539 152.124C123.539 152.484 123.653 152.772 123.881 152.988C124.121 153.204 124.415 153.366 124.763 153.474C125.111 153.57 125.591 153.672 126.203 153.78C126.959 153.924 127.565 154.068 128.021 154.212C128.477 154.356 128.867 154.602 129.191 154.95C129.515 155.298 129.677 155.778 129.677 156.39C129.677 157.218 129.329 157.878 128.633 158.37C127.949 158.85 126.995 159.09 125.771 159.09ZM140.284 154.662H132.364C132.436 155.646 132.814 156.444 133.498 157.056C134.182 157.656 135.046 157.956 136.09 157.956C136.678 157.956 137.218 157.854 137.71 157.65C138.202 157.434 138.628 157.122 138.988 156.714L139.708 157.542C139.288 158.046 138.76 158.43 138.124 158.694C137.5 158.958 136.81 159.09 136.054 159.09C135.082 159.09 134.218 158.886 133.462 158.478C132.718 158.058 132.136 157.482 131.716 156.75C131.296 156.018 131.086 155.19 131.086 154.266C131.086 153.342 131.284 152.514 131.68 151.782C132.088 151.05 132.64 150.48 133.336 150.072C134.044 149.664 134.836 149.46 135.712 149.46C136.588 149.46 137.374 149.664 138.07 150.072C138.766 150.48 139.312 151.05 139.708 151.782C140.104 152.502 140.302 153.33 140.302 154.266L140.284 154.662ZM135.712 150.558C134.8 150.558 134.032 150.852 133.408 151.44C132.796 152.016 132.448 152.772 132.364 153.708H139.078C138.994 152.772 138.64 152.016 138.016 151.44C137.404 150.852 136.636 150.558 135.712 150.558ZM146.827 159.09C145.891 159.09 145.051 158.886 144.307 158.478C143.575 158.07 142.999 157.5 142.579 156.768C142.159 156.024 141.949 155.19 141.949 154.266C141.949 153.342 142.159 152.514 142.579 151.782C142.999 151.05 143.575 150.48 144.307 150.072C145.051 149.664 145.891 149.46 146.827 149.46C147.643 149.46 148.369 149.622 149.005 149.946C149.653 150.258 150.163 150.72 150.535 151.332L149.581 151.98C149.269 151.512 148.873 151.164 148.393 150.936C147.913 150.696 147.391 150.576 146.827 150.576C146.143 150.576 145.525 150.732 144.973 151.044C144.433 151.344 144.007 151.776 143.695 152.34C143.395 152.904 143.245 153.546 143.245 154.266C143.245 154.998 143.395 155.646 143.695 156.21C144.007 156.762 144.433 157.194 144.973 157.506C145.525 157.806 146.143 157.956 146.827 157.956C147.391 157.956 147.913 157.842 148.393 157.614C148.873 157.386 149.269 157.038 149.581 156.57L150.535 157.218C150.163 157.83 149.653 158.298 149.005 158.622C148.357 158.934 147.631 159.09 146.827 159.09ZM158.137 158.424C157.897 158.64 157.597 158.808 157.237 158.928C156.889 159.036 156.523 159.09 156.139 159.09C155.251 159.09 154.567 158.85 154.087 158.37C153.607 157.89 153.367 157.212 153.367 156.336V150.612H151.675V149.532H153.367V147.462H154.645V149.532H157.525V150.612H154.645V156.264C154.645 156.828 154.783 157.26 155.059 157.56C155.347 157.848 155.755 157.992 156.283 157.992C156.547 157.992 156.799 157.95 157.039 157.866C157.291 157.782 157.507 157.662 157.687 157.506L158.137 158.424ZM168.374 154.662H160.454C160.526 155.646 160.904 156.444 161.588 157.056C162.272 157.656 163.136 157.956 164.18 157.956C164.768 157.956 165.308 157.854 165.8 157.65C166.292 157.434 166.718 157.122 167.078 156.714L167.798 157.542C167.378 158.046 166.85 158.43 166.214 158.694C165.59 158.958 164.9 159.09 164.144 159.09C163.172 159.09 162.308 158.886 161.552 158.478C160.808 158.058 160.226 157.482 159.806 156.75C159.386 156.018 159.176 155.19 159.176 154.266C159.176 153.342 159.374 152.514 159.77 151.782C160.178 151.05 160.73 150.48 161.426 150.072C162.134 149.664 162.926 149.46 163.802 149.46C164.678 149.46 165.464 149.664 166.16 150.072C166.856 150.48 167.402 151.05 167.798 151.782C168.194 152.502 168.392 153.33 168.392 154.266L168.374 154.662ZM163.802 150.558C162.89 150.558 162.122 150.852 161.498 151.44C160.886 152.016 160.538 152.772 160.454 153.708H167.168C167.084 152.772 166.73 152.016 166.106 151.44C165.494 150.852 164.726 150.558 163.802 150.558ZM175.979 158.424C175.739 158.64 175.439 158.808 175.079 158.928C174.731 159.036 174.365 159.09 173.981 159.09C173.093 159.09 172.409 158.85 171.929 158.37C171.449 157.89 171.209 157.212 171.209 156.336V150.612H169.517V149.532H171.209V147.462H172.487V149.532H175.367V150.612H172.487V156.264C172.487 156.828 172.625 157.26 172.901 157.56C173.189 157.848 173.597 157.992 174.125 157.992C174.389 157.992 174.641 157.95 174.881 157.866C175.133 157.782 175.349 157.662 175.529 157.506L175.979 158.424ZM186.837 149.532V159H185.613V157.272C185.277 157.848 184.815 158.298 184.227 158.622C183.639 158.934 182.967 159.09 182.211 159.09C180.975 159.09 179.997 158.748 179.277 158.064C178.569 157.368 178.215 156.354 178.215 155.022V149.532H179.493V154.896C179.493 155.892 179.739 156.648 180.231 157.164C180.723 157.68 181.425 157.938 182.337 157.938C183.333 157.938 184.119 157.638 184.695 157.038C185.271 156.426 185.559 155.58 185.559 154.5V149.532H186.837ZM191.641 151.386C191.941 150.75 192.385 150.27 192.973 149.946C193.573 149.622 194.311 149.46 195.187 149.46V150.702L194.881 150.684C193.885 150.684 193.105 150.99 192.541 151.602C191.977 152.214 191.695 153.072 191.695 154.176V159H190.417V149.532H191.641V151.386ZM205.664 149.46C206.9 149.46 207.848 149.772 208.508 150.396C209.168 151.008 209.498 151.92 209.498 153.132V159H208.274V157.524C207.986 158.016 207.56 158.4 206.996 158.676C206.444 158.952 205.784 159.09 205.016 159.09C203.96 159.09 203.12 158.838 202.496 158.334C201.872 157.83 201.56 157.164 201.56 156.336C201.56 155.532 201.848 154.884 202.424 154.392C203.012 153.9 203.942 153.654 205.214 153.654H208.22V153.078C208.22 152.262 207.992 151.644 207.536 151.224C207.08 150.792 206.414 150.576 205.538 150.576C204.938 150.576 204.362 150.678 203.81 150.882C203.258 151.074 202.784 151.344 202.388 151.692L201.812 150.738C202.292 150.33 202.868 150.018 203.54 149.802C204.212 149.574 204.92 149.46 205.664 149.46ZM205.214 158.082C205.934 158.082 206.552 157.92 207.068 157.596C207.584 157.26 207.968 156.78 208.22 156.156V154.608H205.25C203.63 154.608 202.82 155.172 202.82 156.3C202.82 156.852 203.03 157.29 203.45 157.614C203.87 157.926 204.458 158.082 205.214 158.082ZM221.645 145.644V159H220.421V157.128C220.037 157.764 219.527 158.25 218.891 158.586C218.267 158.922 217.559 159.09 216.767 159.09C215.879 159.09 215.075 158.886 214.355 158.478C213.635 158.07 213.071 157.5 212.663 156.768C212.255 156.036 212.051 155.202 212.051 154.266C212.051 153.33 212.255 152.496 212.663 151.764C213.071 151.032 213.635 150.468 214.355 150.072C215.075 149.664 215.879 149.46 216.767 149.46C217.535 149.46 218.225 149.622 218.837 149.946C219.461 150.258 219.971 150.72 220.367 151.332V145.644H221.645ZM216.875 157.956C217.535 157.956 218.129 157.806 218.657 157.506C219.197 157.194 219.617 156.756 219.917 156.192C220.229 155.628 220.385 154.986 220.385 154.266C220.385 153.546 220.229 152.904 219.917 152.34C219.617 151.776 219.197 151.344 218.657 151.044C218.129 150.732 217.535 150.576 216.875 150.576C216.203 150.576 215.597 150.732 215.057 151.044C214.529 151.344 214.109 151.776 213.797 152.34C213.497 152.904 213.347 153.546 213.347 154.266C213.347 154.986 213.497 155.628 213.797 156.192C214.109 156.756 214.529 157.194 215.057 157.506C215.597 157.806 216.203 157.956 216.875 157.956ZM225.204 149.532H226.482V159H225.204V149.532ZM225.852 147.462C225.588 147.462 225.366 147.372 225.186 147.192C225.006 147.012 224.916 146.796 224.916 146.544C224.916 146.304 225.006 146.094 225.186 145.914C225.366 145.734 225.588 145.644 225.852 145.644C226.116 145.644 226.338 145.734 226.518 145.914C226.698 146.082 226.788 146.286 226.788 146.526C226.788 146.79 226.698 147.012 226.518 147.192C226.338 147.372 226.116 147.462 225.852 147.462ZM234.916 149.46C235.804 149.46 236.608 149.664 237.328 150.072C238.048 150.468 238.612 151.032 239.02 151.764C239.428 152.496 239.632 153.33 239.632 154.266C239.632 155.214 239.428 156.054 239.02 156.786C238.612 157.518 238.048 158.088 237.328 158.496C236.62 158.892 235.816 159.09 234.916 159.09C234.148 159.09 233.452 158.934 232.828 158.622C232.216 158.298 231.712 157.83 231.316 157.218V162.492H230.038V149.532H231.262V151.404C231.646 150.78 232.15 150.3 232.774 149.964C233.41 149.628 234.124 149.46 234.916 149.46ZM234.826 157.956C235.486 157.956 236.086 157.806 236.626 157.506C237.166 157.194 237.586 156.756 237.886 156.192C238.198 155.628 238.354 154.986 238.354 154.266C238.354 153.546 238.198 152.91 237.886 152.358C237.586 151.794 237.166 151.356 236.626 151.044C236.086 150.732 235.486 150.576 234.826 150.576C234.154 150.576 233.548 150.732 233.008 151.044C232.48 151.356 232.06 151.794 231.748 152.358C231.448 152.91 231.298 153.546 231.298 154.266C231.298 154.986 231.448 155.628 231.748 156.192C232.06 156.756 232.48 157.194 233.008 157.506C233.548 157.806 234.154 157.956 234.826 157.956ZM242.237 149.532H243.515V159H242.237V149.532ZM242.885 147.462C242.621 147.462 242.399 147.372 242.219 147.192C242.039 147.012 241.949 146.796 241.949 146.544C241.949 146.304 242.039 146.094 242.219 145.914C242.399 145.734 242.621 145.644 242.885 145.644C243.149 145.644 243.371 145.734 243.551 145.914C243.731 146.082 243.821 146.286 243.821 146.526C243.821 146.79 243.731 147.012 243.551 147.192C243.371 147.372 243.149 147.462 242.885 147.462ZM249.609 159.09C248.841 159.09 248.103 158.982 247.395 158.766C246.699 158.538 246.153 158.256 245.757 157.92L246.333 156.912C246.729 157.224 247.227 157.482 247.827 157.686C248.427 157.878 249.051 157.974 249.699 157.974C250.563 157.974 251.199 157.842 251.607 157.578C252.027 157.302 252.237 156.918 252.237 156.426C252.237 156.078 252.123 155.808 251.895 155.616C251.667 155.412 251.379 155.262 251.031 155.166C250.683 155.058 250.221 154.956 249.645 154.86C248.877 154.716 248.259 154.572 247.791 154.428C247.323 154.272 246.921 154.014 246.585 153.654C246.261 153.294 246.099 152.796 246.099 152.16C246.099 151.368 246.429 150.72 247.089 150.216C247.749 149.712 248.667 149.46 249.843 149.46C250.455 149.46 251.067 149.544 251.679 149.712C252.291 149.868 252.795 150.078 253.191 150.342L252.633 151.368C251.853 150.828 250.923 150.558 249.843 150.558C249.027 150.558 248.409 150.702 247.989 150.99C247.581 151.278 247.377 151.656 247.377 152.124C247.377 152.484 247.491 152.772 247.719 152.988C247.959 153.204 248.253 153.366 248.601 153.474C248.949 153.57 249.429 153.672 250.041 153.78C250.797 153.924 251.403 154.068 251.859 154.212C252.315 154.356 252.705 154.602 253.029 154.95C253.353 155.298 253.515 155.778 253.515 156.39C253.515 157.218 253.167 157.878 252.471 158.37C251.787 158.85 250.833 159.09 249.609 159.09ZM259.802 159.09C258.866 159.09 258.026 158.886 257.282 158.478C256.55 158.07 255.974 157.5 255.554 156.768C255.134 156.024 254.924 155.19 254.924 154.266C254.924 153.342 255.134 152.514 255.554 151.782C255.974 151.05 256.55 150.48 257.282 150.072C258.026 149.664 258.866 149.46 259.802 149.46C260.618 149.46 261.344 149.622 261.98 149.946C262.628 150.258 263.138 150.72 263.51 151.332L262.556 151.98C262.244 151.512 261.848 151.164 261.368 150.936C260.888 150.696 260.366 150.576 259.802 150.576C259.118 150.576 258.5 150.732 257.948 151.044C257.408 151.344 256.982 151.776 256.67 152.34C256.37 152.904 256.22 153.546 256.22 154.266C256.22 154.998 256.37 155.646 256.67 156.21C256.982 156.762 257.408 157.194 257.948 157.506C258.5 157.806 259.118 157.956 259.802 157.956C260.366 157.956 260.888 157.842 261.368 157.614C261.848 157.386 262.244 157.038 262.556 156.57L263.51 157.218C263.138 157.83 262.628 158.298 261.98 158.622C261.332 158.934 260.606 159.09 259.802 159.09ZM266.02 149.532H267.298V159H266.02V149.532ZM266.668 147.462C266.404 147.462 266.182 147.372 266.002 147.192C265.822 147.012 265.732 146.796 265.732 146.544C265.732 146.304 265.822 146.094 266.002 145.914C266.182 145.734 266.404 145.644 266.668 145.644C266.932 145.644 267.154 145.734 267.334 145.914C267.514 146.082 267.604 146.286 267.604 146.526C267.604 146.79 267.514 147.012 267.334 147.192C267.154 147.372 266.932 147.462 266.668 147.462ZM275.678 149.46C276.866 149.46 277.808 149.808 278.504 150.504C279.212 151.188 279.566 152.19 279.566 153.51V159H278.288V153.636C278.288 152.652 278.042 151.902 277.55 151.386C277.058 150.87 276.356 150.612 275.444 150.612C274.424 150.612 273.614 150.918 273.014 151.53C272.426 152.13 272.132 152.964 272.132 154.032V159H270.854V149.532H272.078V151.278C272.426 150.702 272.906 150.258 273.518 149.946C274.142 149.622 274.862 149.46 275.678 149.46ZM291.837 149.532V157.848C291.837 159.456 291.441 160.644 290.649 161.412C289.869 162.192 288.687 162.582 287.103 162.582C286.227 162.582 285.393 162.45 284.601 162.186C283.821 161.934 283.185 161.58 282.693 161.124L283.341 160.152C283.797 160.56 284.349 160.878 284.997 161.106C285.657 161.334 286.347 161.448 287.067 161.448C288.267 161.448 289.149 161.166 289.713 160.602C290.277 160.05 290.559 159.186 290.559 158.01V156.804C290.163 157.404 289.641 157.86 288.993 158.172C288.357 158.484 287.649 158.64 286.869 158.64C285.981 158.64 285.171 158.448 284.439 158.064C283.719 157.668 283.149 157.122 282.729 156.426C282.321 155.718 282.117 154.92 282.117 154.032C282.117 153.144 282.321 152.352 282.729 151.656C283.149 150.96 283.719 150.42 284.439 150.036C285.159 149.652 285.969 149.46 286.869 149.46C287.673 149.46 288.399 149.622 289.047 149.946C289.695 150.27 290.217 150.738 290.613 151.35V149.532H291.837ZM286.995 157.506C287.679 157.506 288.297 157.362 288.849 157.074C289.401 156.774 289.827 156.36 290.127 155.832C290.439 155.304 290.595 154.704 290.595 154.032C290.595 153.36 290.439 152.766 290.127 152.25C289.827 151.722 289.401 151.314 288.849 151.026C288.309 150.726 287.691 150.576 286.995 150.576C286.311 150.576 285.693 150.72 285.141 151.008C284.601 151.296 284.175 151.704 283.863 152.232C283.563 152.76 283.413 153.36 283.413 154.032C283.413 154.704 283.563 155.304 283.863 155.832C284.175 156.36 284.601 156.774 285.141 157.074C285.693 157.362 286.311 157.506 286.995 157.506ZM308.366 154.662H300.446C300.518 155.646 300.896 156.444 301.58 157.056C302.264 157.656 303.128 157.956 304.172 157.956C304.76 157.956 305.3 157.854 305.792 157.65C306.284 157.434 306.71 157.122 307.07 156.714L307.79 157.542C307.37 158.046 306.842 158.43 306.206 158.694C305.582 158.958 304.892 159.09 304.136 159.09C303.164 159.09 302.3 158.886 301.544 158.478C300.8 158.058 300.218 157.482 299.798 156.75C299.378 156.018 299.168 155.19 299.168 154.266C299.168 153.342 299.366 152.514 299.762 151.782C300.17 151.05 300.722 150.48 301.418 150.072C302.126 149.664 302.918 149.46 303.794 149.46C304.67 149.46 305.456 149.664 306.152 150.072C306.848 150.48 307.394 151.05 307.79 151.782C308.186 152.502 308.384 153.33 308.384 154.266L308.366 154.662ZM303.794 150.558C302.882 150.558 302.114 150.852 301.49 151.44C300.878 152.016 300.53 152.772 300.446 153.708H307.16C307.076 152.772 306.722 152.016 306.098 151.44C305.486 150.852 304.718 150.558 303.794 150.558ZM310.985 145.644H312.263V159H310.985V145.644ZM315.819 149.532H317.097V159H315.819V149.532ZM316.467 147.462C316.203 147.462 315.981 147.372 315.801 147.192C315.621 147.012 315.531 146.796 315.531 146.544C315.531 146.304 315.621 146.094 315.801 145.914C315.981 145.734 316.203 145.644 316.467 145.644C316.731 145.644 316.953 145.734 317.133 145.914C317.313 146.082 317.403 146.286 317.403 146.526C317.403 146.79 317.313 147.012 317.133 147.192C316.953 147.372 316.731 147.462 316.467 147.462ZM325.639 158.424C325.399 158.64 325.099 158.808 324.739 158.928C324.391 159.036 324.025 159.09 323.641 159.09C322.753 159.09 322.069 158.85 321.589 158.37C321.109 157.89 320.869 157.212 320.869 156.336V150.612H319.177V149.532H320.869V147.462H322.147V149.532H325.027V150.612H322.147V156.264C322.147 156.828 322.285 157.26 322.561 157.56C322.849 157.848 323.257 157.992 323.785 157.992C324.049 157.992 324.301 157.95 324.541 157.866C324.793 157.782 325.009 157.662 325.189 157.506L325.639 158.424ZM328.285 157.128C328.561 157.128 328.789 157.224 328.969 157.416C329.149 157.596 329.239 157.824 329.239 158.1C329.239 158.244 329.215 158.4 329.167 158.568C329.131 158.736 329.071 158.928 328.987 159.144L328.231 161.628H327.367L327.979 159.018C327.787 158.958 327.631 158.85 327.511 158.694C327.391 158.526 327.331 158.328 327.331 158.1C327.331 157.824 327.421 157.596 327.601 157.416C327.781 157.224 328.009 157.128 328.285 157.128ZM92.32 181.09C91.552 181.09 90.814 180.982 90.106 180.766C89.41 180.538 88.864 180.256 88.468 179.92L89.044 178.912C89.44 179.224 89.938 179.482 90.538 179.686C91.138 179.878 91.762 179.974 92.41 179.974C93.274 179.974 93.91 179.842 94.318 179.578C94.738 179.302 94.948 178.918 94.948 178.426C94.948 178.078 94.834 177.808 94.606 177.616C94.378 177.412 94.09 177.262 93.742 177.166C93.394 177.058 92.932 176.956 92.356 176.86C91.588 176.716 90.97 176.572 90.502 176.428C90.034 176.272 89.632 176.014 89.296 175.654C88.972 175.294 88.81 174.796 88.81 174.16C88.81 173.368 89.14 172.72 89.8 172.216C90.46 171.712 91.378 171.46 92.554 171.46C93.166 171.46 93.778 171.544 94.39 171.712C95.002 171.868 95.506 172.078 95.902 172.342L95.344 173.368C94.564 172.828 93.634 172.558 92.554 172.558C91.738 172.558 91.12 172.702 90.7 172.99C90.292 173.278 90.088 173.656 90.088 174.124C90.088 174.484 90.202 174.772 90.43 174.988C90.67 175.204 90.964 175.366 91.312 175.474C91.66 175.57 92.14 175.672 92.752 175.78C93.508 175.924 94.114 176.068 94.57 176.212C95.026 176.356 95.416 176.602 95.74 176.95C96.064 177.298 96.226 177.778 96.226 178.39C96.226 179.218 95.878 179.878 95.182 180.37C94.498 180.85 93.544 181.09 92.32 181.09ZM106.833 176.662H98.9126C98.9846 177.646 99.3626 178.444 100.047 179.056C100.731 179.656 101.595 179.956 102.639 179.956C103.227 179.956 103.767 179.854 104.259 179.65C104.751 179.434 105.177 179.122 105.537 178.714L106.257 179.542C105.837 180.046 105.309 180.43 104.673 180.694C104.049 180.958 103.359 181.09 102.603 181.09C101.631 181.09 100.767 180.886 100.011 180.478C99.2666 180.058 98.6846 179.482 98.2646 178.75C97.8446 178.018 97.6346 177.19 97.6346 176.266C97.6346 175.342 97.8326 174.514 98.2286 173.782C98.6366 173.05 99.1886 172.48 99.8846 172.072C100.593 171.664 101.385 171.46 102.261 171.46C103.137 171.46 103.923 171.664 104.619 172.072C105.315 172.48 105.861 173.05 106.257 173.782C106.653 174.502 106.851 175.33 106.851 176.266L106.833 176.662ZM102.261 172.558C101.349 172.558 100.581 172.852 99.9566 173.44C99.3446 174.016 98.9966 174.772 98.9126 175.708H105.627C105.543 174.772 105.189 174.016 104.565 173.44C103.953 172.852 103.185 172.558 102.261 172.558ZM118.092 167.644V181H116.868V179.128C116.484 179.764 115.974 180.25 115.338 180.586C114.714 180.922 114.006 181.09 113.214 181.09C112.326 181.09 111.522 180.886 110.802 180.478C110.082 180.07 109.518 179.5 109.11 178.768C108.702 178.036 108.498 177.202 108.498 176.266C108.498 175.33 108.702 174.496 109.11 173.764C109.518 173.032 110.082 172.468 110.802 172.072C111.522 171.664 112.326 171.46 113.214 171.46C113.982 171.46 114.672 171.622 115.284 171.946C115.908 172.258 116.418 172.72 116.814 173.332V167.644H118.092ZM113.322 179.956C113.982 179.956 114.576 179.806 115.104 179.506C115.644 179.194 116.064 178.756 116.364 178.192C116.676 177.628 116.832 176.986 116.832 176.266C116.832 175.546 116.676 174.904 116.364 174.34C116.064 173.776 115.644 173.344 115.104 173.044C114.576 172.732 113.982 172.576 113.322 172.576C112.65 172.576 112.044 172.732 111.504 173.044C110.976 173.344 110.556 173.776 110.244 174.34C109.944 174.904 109.794 175.546 109.794 176.266C109.794 176.986 109.944 177.628 110.244 178.192C110.556 178.756 110.976 179.194 111.504 179.506C112.044 179.806 112.65 179.956 113.322 179.956ZM135.002 167.644V181H133.778V179.128C133.394 179.764 132.884 180.25 132.248 180.586C131.624 180.922 130.916 181.09 130.124 181.09C129.236 181.09 128.432 180.886 127.712 180.478C126.992 180.07 126.428 179.5 126.02 178.768C125.612 178.036 125.408 177.202 125.408 176.266C125.408 175.33 125.612 174.496 126.02 173.764C126.428 173.032 126.992 172.468 127.712 172.072C128.432 171.664 129.236 171.46 130.124 171.46C130.892 171.46 131.582 171.622 132.194 171.946C132.818 172.258 133.328 172.72 133.724 173.332V167.644H135.002ZM130.232 179.956C130.892 179.956 131.486 179.806 132.014 179.506C132.554 179.194 132.974 178.756 133.274 178.192C133.586 177.628 133.742 176.986 133.742 176.266C133.742 175.546 133.586 174.904 133.274 174.34C132.974 173.776 132.554 173.344 132.014 173.044C131.486 172.732 130.892 172.576 130.232 172.576C129.56 172.576 128.954 172.732 128.414 173.044C127.886 173.344 127.466 173.776 127.154 174.34C126.854 174.904 126.704 175.546 126.704 176.266C126.704 176.986 126.854 177.628 127.154 178.192C127.466 178.756 127.886 179.194 128.414 179.506C128.954 179.806 129.56 179.956 130.232 179.956ZM142.431 181.09C141.519 181.09 140.697 180.886 139.965 180.478C139.233 180.058 138.657 179.482 138.237 178.75C137.817 178.018 137.607 177.19 137.607 176.266C137.607 175.342 137.817 174.514 138.237 173.782C138.657 173.05 139.233 172.48 139.965 172.072C140.697 171.664 141.519 171.46 142.431 171.46C143.343 171.46 144.165 171.664 144.897 172.072C145.629 172.48 146.199 173.05 146.607 173.782C147.027 174.514 147.237 175.342 147.237 176.266C147.237 177.19 147.027 178.018 146.607 178.75C146.199 179.482 145.629 180.058 144.897 180.478C144.165 180.886 143.343 181.09 142.431 181.09ZM142.431 179.956C143.103 179.956 143.703 179.806 144.231 179.506C144.771 179.194 145.191 178.756 145.491 178.192C145.791 177.628 145.941 176.986 145.941 176.266C145.941 175.546 145.791 174.904 145.491 174.34C145.191 173.776 144.771 173.344 144.231 173.044C143.703 172.732 143.103 172.576 142.431 172.576C141.759 172.576 141.153 172.732 140.613 173.044C140.085 173.344 139.665 173.776 139.353 174.34C139.053 174.904 138.903 175.546 138.903 176.266C138.903 176.986 139.053 177.628 139.353 178.192C139.665 178.756 140.085 179.194 140.613 179.506C141.153 179.806 141.759 179.956 142.431 179.956ZM162.801 176.662H154.881C154.953 177.646 155.331 178.444 156.015 179.056C156.699 179.656 157.563 179.956 158.607 179.956C159.195 179.956 159.735 179.854 160.227 179.65C160.719 179.434 161.145 179.122 161.505 178.714L162.225 179.542C161.805 180.046 161.277 180.43 160.641 180.694C160.017 180.958 159.327 181.09 158.571 181.09C157.599 181.09 156.735 180.886 155.979 180.478C155.235 180.058 154.653 179.482 154.233 178.75C153.813 178.018 153.603 177.19 153.603 176.266C153.603 175.342 153.801 174.514 154.197 173.782C154.605 173.05 155.157 172.48 155.853 172.072C156.561 171.664 157.353 171.46 158.229 171.46C159.105 171.46 159.891 171.664 160.587 172.072C161.283 172.48 161.829 173.05 162.225 173.782C162.621 174.502 162.819 175.33 162.819 176.266L162.801 176.662ZM158.229 172.558C157.317 172.558 156.549 172.852 155.925 173.44C155.313 174.016 154.965 174.772 154.881 175.708H161.595C161.511 174.772 161.157 174.016 160.533 173.44C159.921 172.852 159.153 172.558 158.229 172.558ZM165.421 171.532H166.699V181H165.421V171.532ZM166.069 169.462C165.805 169.462 165.583 169.372 165.403 169.192C165.223 169.012 165.133 168.796 165.133 168.544C165.133 168.304 165.223 168.094 165.403 167.914C165.583 167.734 165.805 167.644 166.069 167.644C166.333 167.644 166.555 167.734 166.735 167.914C166.915 168.082 167.005 168.286 167.005 168.526C167.005 168.79 166.915 169.012 166.735 169.192C166.555 169.372 166.333 169.462 166.069 169.462ZM178.787 171.532V181H177.563V179.272C177.227 179.848 176.765 180.298 176.177 180.622C175.589 180.934 174.917 181.09 174.161 181.09C172.925 181.09 171.947 180.748 171.227 180.064C170.519 179.368 170.165 178.354 170.165 177.022V171.532H171.443V176.896C171.443 177.892 171.689 178.648 172.181 179.164C172.673 179.68 173.375 179.938 174.287 179.938C175.283 179.938 176.069 179.638 176.645 179.038C177.221 178.426 177.509 177.58 177.509 176.5V171.532H178.787ZM184.904 181.09C184.136 181.09 183.398 180.982 182.69 180.766C181.994 180.538 181.448 180.256 181.052 179.92L181.628 178.912C182.024 179.224 182.522 179.482 183.122 179.686C183.722 179.878 184.346 179.974 184.994 179.974C185.858 179.974 186.494 179.842 186.902 179.578C187.322 179.302 187.532 178.918 187.532 178.426C187.532 178.078 187.418 177.808 187.19 177.616C186.962 177.412 186.674 177.262 186.326 177.166C185.978 177.058 185.516 176.956 184.94 176.86C184.172 176.716 183.554 176.572 183.086 176.428C182.618 176.272 182.216 176.014 181.88 175.654C181.556 175.294 181.394 174.796 181.394 174.16C181.394 173.368 181.724 172.72 182.384 172.216C183.044 171.712 183.962 171.46 185.138 171.46C185.75 171.46 186.362 171.544 186.974 171.712C187.586 171.868 188.09 172.078 188.486 172.342L187.928 173.368C187.148 172.828 186.218 172.558 185.138 172.558C184.322 172.558 183.704 172.702 183.284 172.99C182.876 173.278 182.672 173.656 182.672 174.124C182.672 174.484 182.786 174.772 183.014 174.988C183.254 175.204 183.548 175.366 183.896 175.474C184.244 175.57 184.724 175.672 185.336 175.78C186.092 175.924 186.698 176.068 187.154 176.212C187.61 176.356 188 176.602 188.324 176.95C188.648 177.298 188.81 177.778 188.81 178.39C188.81 179.218 188.462 179.878 187.766 180.37C187.082 180.85 186.128 181.09 184.904 181.09ZM202.981 171.46C204.169 171.46 205.099 171.802 205.771 172.486C206.455 173.17 206.797 174.178 206.797 175.51V181H205.519V175.636C205.519 174.652 205.279 173.902 204.799 173.386C204.331 172.87 203.665 172.612 202.801 172.612C201.817 172.612 201.043 172.918 200.479 173.53C199.915 174.13 199.633 174.964 199.633 176.032V181H198.355V175.636C198.355 174.652 198.115 173.902 197.635 173.386C197.167 172.87 196.495 172.612 195.619 172.612C194.647 172.612 193.873 172.918 193.297 173.53C192.733 174.13 192.451 174.964 192.451 176.032V181H191.173V171.532H192.397V173.26C192.733 172.684 193.201 172.24 193.801 171.928C194.401 171.616 195.091 171.46 195.871 171.46C196.663 171.46 197.347 171.628 197.923 171.964C198.511 172.3 198.949 172.798 199.237 173.458C199.585 172.834 200.083 172.348 200.731 172C201.391 171.64 202.141 171.46 202.981 171.46ZM214.168 181.09C213.256 181.09 212.434 180.886 211.702 180.478C210.97 180.058 210.394 179.482 209.974 178.75C209.554 178.018 209.344 177.19 209.344 176.266C209.344 175.342 209.554 174.514 209.974 173.782C210.394 173.05 210.97 172.48 211.702 172.072C212.434 171.664 213.256 171.46 214.168 171.46C215.08 171.46 215.902 171.664 216.634 172.072C217.366 172.48 217.936 173.05 218.344 173.782C218.764 174.514 218.974 175.342 218.974 176.266C218.974 177.19 218.764 178.018 218.344 178.75C217.936 179.482 217.366 180.058 216.634 180.478C215.902 180.886 215.08 181.09 214.168 181.09ZM214.168 179.956C214.84 179.956 215.44 179.806 215.968 179.506C216.508 179.194 216.928 178.756 217.228 178.192C217.528 177.628 217.678 176.986 217.678 176.266C217.678 175.546 217.528 174.904 217.228 174.34C216.928 173.776 216.508 173.344 215.968 173.044C215.44 172.732 214.84 172.576 214.168 172.576C213.496 172.576 212.89 172.732 212.35 173.044C211.822 173.344 211.402 173.776 211.09 174.34C210.79 174.904 210.64 175.546 210.64 176.266C210.64 176.986 210.79 177.628 211.09 178.192C211.402 178.756 211.822 179.194 212.35 179.506C212.89 179.806 213.496 179.956 214.168 179.956ZM230.223 167.644V181H228.999V179.128C228.615 179.764 228.105 180.25 227.469 180.586C226.845 180.922 226.137 181.09 225.345 181.09C224.457 181.09 223.653 180.886 222.933 180.478C222.213 180.07 221.649 179.5 221.241 178.768C220.833 178.036 220.629 177.202 220.629 176.266C220.629 175.33 220.833 174.496 221.241 173.764C221.649 173.032 222.213 172.468 222.933 172.072C223.653 171.664 224.457 171.46 225.345 171.46C226.113 171.46 226.803 171.622 227.415 171.946C228.039 172.258 228.549 172.72 228.945 173.332V167.644H230.223ZM225.453 179.956C226.113 179.956 226.707 179.806 227.235 179.506C227.775 179.194 228.195 178.756 228.495 178.192C228.807 177.628 228.963 176.986 228.963 176.266C228.963 175.546 228.807 174.904 228.495 174.34C228.195 173.776 227.775 173.344 227.235 173.044C226.707 172.732 226.113 172.576 225.453 172.576C224.781 172.576 224.175 172.732 223.635 173.044C223.107 173.344 222.687 173.776 222.375 174.34C222.075 174.904 221.925 175.546 221.925 176.266C221.925 176.986 222.075 177.628 222.375 178.192C222.687 178.756 223.107 179.194 223.635 179.506C224.175 179.806 224.781 179.956 225.453 179.956ZM243.479 180.424C243.239 180.64 242.939 180.808 242.579 180.928C242.231 181.036 241.865 181.09 241.481 181.09C240.593 181.09 239.909 180.85 239.429 180.37C238.949 179.89 238.709 179.212 238.709 178.336V172.612H237.017V171.532H238.709V169.462H239.987V171.532H242.867V172.612H239.987V178.264C239.987 178.828 240.125 179.26 240.401 179.56C240.689 179.848 241.097 179.992 241.625 179.992C241.889 179.992 242.141 179.95 242.381 179.866C242.633 179.782 242.849 179.662 243.029 179.506L243.479 180.424ZM253.715 176.662H245.795C245.867 177.646 246.245 178.444 246.929 179.056C247.613 179.656 248.477 179.956 249.521 179.956C250.109 179.956 250.649 179.854 251.141 179.65C251.633 179.434 252.059 179.122 252.419 178.714L253.139 179.542C252.719 180.046 252.191 180.43 251.555 180.694C250.931 180.958 250.241 181.09 249.485 181.09C248.513 181.09 247.649 180.886 246.893 180.478C246.149 180.058 245.567 179.482 245.147 178.75C244.727 178.018 244.517 177.19 244.517 176.266C244.517 175.342 244.715 174.514 245.111 173.782C245.519 173.05 246.071 172.48 246.767 172.072C247.475 171.664 248.267 171.46 249.143 171.46C250.019 171.46 250.805 171.664 251.501 172.072C252.197 172.48 252.743 173.05 253.139 173.782C253.535 174.502 253.733 175.33 253.733 176.266L253.715 176.662ZM249.143 172.558C248.231 172.558 247.463 172.852 246.839 173.44C246.227 174.016 245.879 174.772 245.795 175.708H252.509C252.425 174.772 252.071 174.016 251.447 173.44C250.835 172.852 250.067 172.558 249.143 172.558ZM268.143 171.46C269.331 171.46 270.261 171.802 270.933 172.486C271.617 173.17 271.959 174.178 271.959 175.51V181H270.681V175.636C270.681 174.652 270.441 173.902 269.961 173.386C269.493 172.87 268.827 172.612 267.963 172.612C266.979 172.612 266.205 172.918 265.641 173.53C265.077 174.13 264.795 174.964 264.795 176.032V181H263.517V175.636C263.517 174.652 263.277 173.902 262.797 173.386C262.329 172.87 261.657 172.612 260.781 172.612C259.809 172.612 259.035 172.918 258.459 173.53C257.895 174.13 257.613 174.964 257.613 176.032V181H256.335V171.532H257.559V173.26C257.895 172.684 258.363 172.24 258.963 171.928C259.563 171.616 260.253 171.46 261.033 171.46C261.825 171.46 262.509 171.628 263.085 171.964C263.673 172.3 264.111 172.798 264.399 173.458C264.747 172.834 265.245 172.348 265.893 172C266.553 171.64 267.303 171.46 268.143 171.46ZM280.303 171.46C281.191 171.46 281.995 171.664 282.715 172.072C283.435 172.468 283.999 173.032 284.407 173.764C284.815 174.496 285.019 175.33 285.019 176.266C285.019 177.214 284.815 178.054 284.407 178.786C283.999 179.518 283.435 180.088 282.715 180.496C282.007 180.892 281.203 181.09 280.303 181.09C279.535 181.09 278.839 180.934 278.215 180.622C277.603 180.298 277.099 179.83 276.703 179.218V184.492H275.425V171.532H276.649V173.404C277.033 172.78 277.537 172.3 278.161 171.964C278.797 171.628 279.511 171.46 280.303 171.46ZM280.213 179.956C280.873 179.956 281.473 179.806 282.013 179.506C282.553 179.194 282.973 178.756 283.273 178.192C283.585 177.628 283.741 176.986 283.741 176.266C283.741 175.546 283.585 174.91 283.273 174.358C282.973 173.794 282.553 173.356 282.013 173.044C281.473 172.732 280.873 172.576 280.213 172.576C279.541 172.576 278.935 172.732 278.395 173.044C277.867 173.356 277.447 173.794 277.135 174.358C276.835 174.91 276.685 175.546 276.685 176.266C276.685 176.986 276.835 177.628 277.135 178.192C277.447 178.756 277.867 179.194 278.395 179.506C278.935 179.806 279.541 179.956 280.213 179.956ZM291.494 181.09C290.582 181.09 289.76 180.886 289.028 180.478C288.296 180.058 287.72 179.482 287.3 178.75C286.88 178.018 286.67 177.19 286.67 176.266C286.67 175.342 286.88 174.514 287.3 173.782C287.72 173.05 288.296 172.48 289.028 172.072C289.76 171.664 290.582 171.46 291.494 171.46C292.406 171.46 293.228 171.664 293.96 172.072C294.692 172.48 295.262 173.05 295.67 173.782C296.09 174.514 296.3 175.342 296.3 176.266C296.3 177.19 296.09 178.018 295.67 178.75C295.262 179.482 294.692 180.058 293.96 180.478C293.228 180.886 292.406 181.09 291.494 181.09ZM291.494 179.956C292.166 179.956 292.766 179.806 293.294 179.506C293.834 179.194 294.254 178.756 294.554 178.192C294.854 177.628 295.004 176.986 295.004 176.266C295.004 175.546 294.854 174.904 294.554 174.34C294.254 173.776 293.834 173.344 293.294 173.044C292.766 172.732 292.166 172.576 291.494 172.576C290.822 172.576 290.216 172.732 289.676 173.044C289.148 173.344 288.728 173.776 288.416 174.34C288.116 174.904 287.966 175.546 287.966 176.266C287.966 176.986 288.116 177.628 288.416 178.192C288.728 178.756 289.148 179.194 289.676 179.506C290.216 179.806 290.822 179.956 291.494 179.956ZM300.133 173.386C300.433 172.75 300.877 172.27 301.465 171.946C302.065 171.622 302.803 171.46 303.679 171.46V172.702L303.373 172.684C302.377 172.684 301.597 172.99 301.033 173.602C300.469 174.214 300.187 175.072 300.187 176.176V181H298.909V171.532H300.133V173.386ZM89.782 193.532H91.06V203H89.782V193.532ZM90.43 191.462C90.166 191.462 89.944 191.372 89.764 191.192C89.584 191.012 89.494 190.796 89.494 190.544C89.494 190.304 89.584 190.094 89.764 189.914C89.944 189.734 90.166 189.644 90.43 189.644C90.694 189.644 90.916 189.734 91.096 189.914C91.276 190.082 91.366 190.286 91.366 190.526C91.366 190.79 91.276 191.012 91.096 191.192C90.916 191.372 90.694 191.462 90.43 191.462ZM99.44 193.46C100.628 193.46 101.57 193.808 102.266 194.504C102.974 195.188 103.328 196.19 103.328 197.51V203H102.05V197.636C102.05 196.652 101.804 195.902 101.312 195.386C100.82 194.87 100.118 194.612 99.206 194.612C98.186 194.612 97.376 194.918 96.776 195.53C96.188 196.13 95.894 196.964 95.894 198.032V203H94.616V193.532H95.84V195.278C96.188 194.702 96.668 194.258 97.28 193.946C97.904 193.622 98.624 193.46 99.44 193.46ZM110.757 203.09C109.821 203.09 108.981 202.886 108.237 202.478C107.505 202.07 106.929 201.5 106.509 200.768C106.089 200.024 105.879 199.19 105.879 198.266C105.879 197.342 106.089 196.514 106.509 195.782C106.929 195.05 107.505 194.48 108.237 194.072C108.981 193.664 109.821 193.46 110.757 193.46C111.573 193.46 112.299 193.622 112.935 193.946C113.583 194.258 114.093 194.72 114.465 195.332L113.511 195.98C113.199 195.512 112.803 195.164 112.323 194.936C111.843 194.696 111.321 194.576 110.757 194.576C110.073 194.576 109.455 194.732 108.903 195.044C108.363 195.344 107.937 195.776 107.625 196.34C107.325 196.904 107.175 197.546 107.175 198.266C107.175 198.998 107.325 199.646 107.625 200.21C107.937 200.762 108.363 201.194 108.903 201.506C109.455 201.806 110.073 201.956 110.757 201.956C111.321 201.956 111.843 201.842 112.323 201.614C112.803 201.386 113.199 201.038 113.511 200.57L114.465 201.218C114.093 201.83 113.583 202.298 112.935 202.622C112.287 202.934 111.561 203.09 110.757 203.09ZM116.975 193.532H118.253V203H116.975V193.532ZM117.623 191.462C117.359 191.462 117.137 191.372 116.957 191.192C116.777 191.012 116.687 190.796 116.687 190.544C116.687 190.304 116.777 190.094 116.957 189.914C117.137 189.734 117.359 189.644 117.623 189.644C117.887 189.644 118.109 189.734 118.289 189.914C118.469 190.082 118.559 190.286 118.559 190.526C118.559 190.79 118.469 191.012 118.289 191.192C118.109 191.372 117.887 191.462 117.623 191.462ZM130.449 189.644V203H129.225V201.128C128.841 201.764 128.331 202.25 127.695 202.586C127.071 202.922 126.363 203.09 125.571 203.09C124.683 203.09 123.879 202.886 123.159 202.478C122.439 202.07 121.875 201.5 121.467 200.768C121.059 200.036 120.855 199.202 120.855 198.266C120.855 197.33 121.059 196.496 121.467 195.764C121.875 195.032 122.439 194.468 123.159 194.072C123.879 193.664 124.683 193.46 125.571 193.46C126.339 193.46 127.029 193.622 127.641 193.946C128.265 194.258 128.775 194.72 129.171 195.332V189.644H130.449ZM125.679 201.956C126.339 201.956 126.933 201.806 127.461 201.506C128.001 201.194 128.421 200.756 128.721 200.192C129.033 199.628 129.189 198.986 129.189 198.266C129.189 197.546 129.033 196.904 128.721 196.34C128.421 195.776 128.001 195.344 127.461 195.044C126.933 194.732 126.339 194.576 125.679 194.576C125.007 194.576 124.401 194.732 123.861 195.044C123.333 195.344 122.913 195.776 122.601 196.34C122.301 196.904 122.151 197.546 122.151 198.266C122.151 198.986 122.301 199.628 122.601 200.192C122.913 200.756 123.333 201.194 123.861 201.506C124.401 201.806 125.007 201.956 125.679 201.956ZM134.009 193.532H135.287V203H134.009V193.532ZM134.657 191.462C134.393 191.462 134.171 191.372 133.991 191.192C133.811 191.012 133.721 190.796 133.721 190.544C133.721 190.304 133.811 190.094 133.991 189.914C134.171 189.734 134.393 189.644 134.657 189.644C134.921 189.644 135.143 189.734 135.323 189.914C135.503 190.082 135.593 190.286 135.593 190.526C135.593 190.79 135.503 191.012 135.323 191.192C135.143 191.372 134.921 191.462 134.657 191.462ZM147.483 189.644V203H146.259V201.128C145.875 201.764 145.365 202.25 144.729 202.586C144.105 202.922 143.397 203.09 142.605 203.09C141.717 203.09 140.913 202.886 140.193 202.478C139.473 202.07 138.909 201.5 138.501 200.768C138.093 200.036 137.889 199.202 137.889 198.266C137.889 197.33 138.093 196.496 138.501 195.764C138.909 195.032 139.473 194.468 140.193 194.072C140.913 193.664 141.717 193.46 142.605 193.46C143.373 193.46 144.063 193.622 144.675 193.946C145.299 194.258 145.809 194.72 146.205 195.332V189.644H147.483ZM142.713 201.956C143.373 201.956 143.967 201.806 144.495 201.506C145.035 201.194 145.455 200.756 145.755 200.192C146.067 199.628 146.223 198.986 146.223 198.266C146.223 197.546 146.067 196.904 145.755 196.34C145.455 195.776 145.035 195.344 144.495 195.044C143.967 194.732 143.373 194.576 142.713 194.576C142.041 194.576 141.435 194.732 140.895 195.044C140.367 195.344 139.947 195.776 139.635 196.34C139.335 196.904 139.185 197.546 139.185 198.266C139.185 198.986 139.335 199.628 139.635 200.192C139.947 200.756 140.367 201.194 140.895 201.506C141.435 201.806 142.041 201.956 142.713 201.956ZM159.574 193.532V203H158.35V201.272C158.014 201.848 157.552 202.298 156.964 202.622C156.376 202.934 155.704 203.09 154.948 203.09C153.712 203.09 152.734 202.748 152.014 202.064C151.306 201.368 150.952 200.354 150.952 199.022V193.532H152.23V198.896C152.23 199.892 152.476 200.648 152.968 201.164C153.46 201.68 154.162 201.938 155.074 201.938C156.07 201.938 156.856 201.638 157.432 201.038C158.008 200.426 158.296 199.58 158.296 198.5V193.532H159.574ZM167.977 193.46C169.165 193.46 170.107 193.808 170.803 194.504C171.511 195.188 171.865 196.19 171.865 197.51V203H170.587V197.636C170.587 196.652 170.341 195.902 169.849 195.386C169.357 194.87 168.655 194.612 167.743 194.612C166.723 194.612 165.913 194.918 165.313 195.53C164.725 196.13 164.431 196.964 164.431 198.032V203H163.153V193.532H164.377V195.278C164.725 194.702 165.205 194.258 165.817 193.946C166.441 193.622 167.161 193.46 167.977 193.46ZM180.321 202.424C180.081 202.64 179.781 202.808 179.421 202.928C179.073 203.036 178.707 203.09 178.323 203.09C177.435 203.09 176.751 202.85 176.271 202.37C175.791 201.89 175.551 201.212 175.551 200.336V194.612H173.859V193.532H175.551V191.462H176.829V193.532H179.709V194.612H176.829V200.264C176.829 200.828 176.967 201.26 177.243 201.56C177.531 201.848 177.939 201.992 178.467 201.992C178.731 201.992 178.983 201.95 179.223 201.866C179.475 201.782 179.691 201.662 179.871 201.506L180.321 202.424ZM195.89 193.532V203H194.666V201.272C194.33 201.848 193.868 202.298 193.28 202.622C192.692 202.934 192.02 203.09 191.264 203.09C190.028 203.09 189.05 202.748 188.33 202.064C187.622 201.368 187.268 200.354 187.268 199.022V193.532H188.546V198.896C188.546 199.892 188.792 200.648 189.284 201.164C189.776 201.68 190.478 201.938 191.39 201.938C192.386 201.938 193.172 201.638 193.748 201.038C194.324 200.426 194.612 199.58 194.612 198.5V193.532H195.89ZM204.456 202.424C204.216 202.64 203.916 202.808 203.556 202.928C203.208 203.036 202.842 203.09 202.458 203.09C201.57 203.09 200.886 202.85 200.406 202.37C199.926 201.89 199.686 201.212 199.686 200.336V194.612H197.994V193.532H199.686V191.462H200.964V193.532H203.844V194.612H200.964V200.264C200.964 200.828 201.102 201.26 201.378 201.56C201.666 201.848 202.074 201.992 202.602 201.992C202.866 201.992 203.118 201.95 203.358 201.866C203.61 201.782 203.826 201.662 204.006 201.506L204.456 202.424ZM211.493 189.644H212.771V203H211.493V189.644ZM219.639 193.46C220.875 193.46 221.823 193.772 222.483 194.396C223.143 195.008 223.473 195.92 223.473 197.132V203H222.249V201.524C221.961 202.016 221.535 202.4 220.971 202.676C220.419 202.952 219.759 203.09 218.991 203.09C217.935 203.09 217.095 202.838 216.471 202.334C215.847 201.83 215.535 201.164 215.535 200.336C215.535 199.532 215.823 198.884 216.399 198.392C216.987 197.9 217.917 197.654 219.189 197.654H222.195V197.078C222.195 196.262 221.967 195.644 221.511 195.224C221.055 194.792 220.389 194.576 219.513 194.576C218.913 194.576 218.337 194.678 217.785 194.882C217.233 195.074 216.759 195.344 216.363 195.692L215.787 194.738C216.267 194.33 216.843 194.018 217.515 193.802C218.187 193.574 218.895 193.46 219.639 193.46ZM219.189 202.082C219.909 202.082 220.527 201.92 221.043 201.596C221.559 201.26 221.943 200.78 222.195 200.156V198.608H219.225C217.605 198.608 216.795 199.172 216.795 200.3C216.795 200.852 217.005 201.29 217.425 201.614C217.845 201.926 218.433 202.082 219.189 202.082ZM231.822 193.46C232.71 193.46 233.514 193.664 234.234 194.072C234.954 194.468 235.518 195.032 235.926 195.764C236.334 196.496 236.538 197.33 236.538 198.266C236.538 199.202 236.334 200.036 235.926 200.768C235.518 201.5 234.954 202.07 234.234 202.478C233.514 202.886 232.71 203.09 231.822 203.09C231.03 203.09 230.316 202.922 229.68 202.586C229.056 202.25 228.552 201.764 228.168 201.128V203H226.944V189.644H228.222V195.332C228.618 194.72 229.122 194.258 229.734 193.946C230.358 193.622 231.054 193.46 231.822 193.46ZM231.732 201.956C232.392 201.956 232.992 201.806 233.532 201.506C234.072 201.194 234.492 200.756 234.792 200.192C235.104 199.628 235.26 198.986 235.26 198.266C235.26 197.546 235.104 196.904 234.792 196.34C234.492 195.776 234.072 195.344 233.532 195.044C232.992 194.732 232.392 194.576 231.732 194.576C231.06 194.576 230.454 194.732 229.914 195.044C229.386 195.344 228.966 195.776 228.654 196.34C228.354 196.904 228.204 197.546 228.204 198.266C228.204 198.986 228.354 199.628 228.654 200.192C228.966 200.756 229.386 201.194 229.914 201.506C230.454 201.806 231.06 201.956 231.732 201.956ZM243.013 203.09C242.101 203.09 241.279 202.886 240.547 202.478C239.815 202.058 239.239 201.482 238.819 200.75C238.399 200.018 238.189 199.19 238.189 198.266C238.189 197.342 238.399 196.514 238.819 195.782C239.239 195.05 239.815 194.48 240.547 194.072C241.279 193.664 242.101 193.46 243.013 193.46C243.925 193.46 244.747 193.664 245.479 194.072C246.211 194.48 246.781 195.05 247.189 195.782C247.609 196.514 247.819 197.342 247.819 198.266C247.819 199.19 247.609 200.018 247.189 200.75C246.781 201.482 246.211 202.058 245.479 202.478C244.747 202.886 243.925 203.09 243.013 203.09ZM243.013 201.956C243.685 201.956 244.285 201.806 244.813 201.506C245.353 201.194 245.773 200.756 246.073 200.192C246.373 199.628 246.523 198.986 246.523 198.266C246.523 197.546 246.373 196.904 246.073 196.34C245.773 195.776 245.353 195.344 244.813 195.044C244.285 194.732 243.685 194.576 243.013 194.576C242.341 194.576 241.735 194.732 241.195 195.044C240.667 195.344 240.247 195.776 239.935 196.34C239.635 196.904 239.485 197.546 239.485 198.266C239.485 198.986 239.635 199.628 239.935 200.192C240.247 200.756 240.667 201.194 241.195 201.506C241.735 201.806 242.341 201.956 243.013 201.956ZM251.652 195.386C251.952 194.75 252.396 194.27 252.984 193.946C253.584 193.622 254.322 193.46 255.198 193.46V194.702L254.892 194.684C253.896 194.684 253.116 194.99 252.552 195.602C251.988 196.214 251.706 197.072 251.706 198.176V203H250.428V193.532H251.652V195.386ZM265.669 198.662H257.749C257.821 199.646 258.199 200.444 258.883 201.056C259.567 201.656 260.431 201.956 261.475 201.956C262.063 201.956 262.603 201.854 263.095 201.65C263.587 201.434 264.013 201.122 264.373 200.714L265.093 201.542C264.673 202.046 264.145 202.43 263.509 202.694C262.885 202.958 262.195 203.09 261.439 203.09C260.467 203.09 259.603 202.886 258.847 202.478C258.103 202.058 257.521 201.482 257.101 200.75C256.681 200.018 256.471 199.19 256.471 198.266C256.471 197.342 256.669 196.514 257.065 195.782C257.473 195.05 258.025 194.48 258.721 194.072C259.429 193.664 260.221 193.46 261.097 193.46C261.973 193.46 262.759 193.664 263.455 194.072C264.151 194.48 264.697 195.05 265.093 195.782C265.489 196.502 265.687 197.33 265.687 198.266L265.669 198.662ZM261.097 194.558C260.185 194.558 259.417 194.852 258.793 195.44C258.181 196.016 257.833 196.772 257.749 197.708H264.463C264.379 196.772 264.025 196.016 263.401 195.44C262.789 194.852 262.021 194.558 261.097 194.558ZM281.243 198.662H273.323C273.395 199.646 273.773 200.444 274.457 201.056C275.141 201.656 276.005 201.956 277.049 201.956C277.637 201.956 278.177 201.854 278.669 201.65C279.161 201.434 279.587 201.122 279.947 200.714L280.667 201.542C280.247 202.046 279.719 202.43 279.083 202.694C278.459 202.958 277.769 203.09 277.013 203.09C276.041 203.09 275.177 202.886 274.421 202.478C273.677 202.058 273.095 201.482 272.675 200.75C272.255 200.018 272.045 199.19 272.045 198.266C272.045 197.342 272.243 196.514 272.639 195.782C273.047 195.05 273.599 194.48 274.295 194.072C275.003 193.664 275.795 193.46 276.671 193.46C277.547 193.46 278.333 193.664 279.029 194.072C279.725 194.48 280.271 195.05 280.667 195.782C281.063 196.502 281.261 197.33 281.261 198.266L281.243 198.662ZM276.671 194.558C275.759 194.558 274.991 194.852 274.367 195.44C273.755 196.016 273.407 196.772 273.323 197.708H280.037C279.953 196.772 279.599 196.016 278.975 195.44C278.363 194.852 277.595 194.558 276.671 194.558ZM288.848 202.424C288.608 202.64 288.308 202.808 287.948 202.928C287.6 203.036 287.234 203.09 286.85 203.09C285.962 203.09 285.278 202.85 284.798 202.37C284.318 201.89 284.078 201.212 284.078 200.336V194.612H282.386V193.532H284.078V191.462H285.356V193.532H288.236V194.612H285.356V200.264C285.356 200.828 285.494 201.26 285.77 201.56C286.058 201.848 286.466 201.992 286.994 201.992C287.258 201.992 287.51 201.95 287.75 201.866C288.002 201.782 288.218 201.662 288.398 201.506L288.848 202.424ZM304.526 189.644V203H303.302V201.128C302.918 201.764 302.408 202.25 301.772 202.586C301.148 202.922 300.44 203.09 299.648 203.09C298.76 203.09 297.956 202.886 297.236 202.478C296.516 202.07 295.952 201.5 295.544 200.768C295.136 200.036 294.932 199.202 294.932 198.266C294.932 197.33 295.136 196.496 295.544 195.764C295.952 195.032 296.516 194.468 297.236 194.072C297.956 193.664 298.76 193.46 299.648 193.46C300.416 193.46 301.106 193.622 301.718 193.946C302.342 194.258 302.852 194.72 303.248 195.332V189.644H304.526ZM299.756 201.956C300.416 201.956 301.01 201.806 301.538 201.506C302.078 201.194 302.498 200.756 302.798 200.192C303.11 199.628 303.266 198.986 303.266 198.266C303.266 197.546 303.11 196.904 302.798 196.34C302.498 195.776 302.078 195.344 301.538 195.044C301.01 194.732 300.416 194.576 299.756 194.576C299.084 194.576 298.478 194.732 297.938 195.044C297.41 195.344 296.99 195.776 296.678 196.34C296.378 196.904 296.228 197.546 296.228 198.266C296.228 198.986 296.378 199.628 296.678 200.192C296.99 200.756 297.41 201.194 297.938 201.506C298.478 201.806 299.084 201.956 299.756 201.956ZM311.955 203.09C311.043 203.09 310.221 202.886 309.489 202.478C308.757 202.058 308.181 201.482 307.761 200.75C307.341 200.018 307.131 199.19 307.131 198.266C307.131 197.342 307.341 196.514 307.761 195.782C308.181 195.05 308.757 194.48 309.489 194.072C310.221 193.664 311.043 193.46 311.955 193.46C312.867 193.46 313.689 193.664 314.421 194.072C315.153 194.48 315.723 195.05 316.131 195.782C316.551 196.514 316.761 197.342 316.761 198.266C316.761 199.19 316.551 200.018 316.131 200.75C315.723 201.482 315.153 202.058 314.421 202.478C313.689 202.886 312.867 203.09 311.955 203.09ZM311.955 201.956C312.627 201.956 313.227 201.806 313.755 201.506C314.295 201.194 314.715 200.756 315.015 200.192C315.315 199.628 315.465 198.986 315.465 198.266C315.465 197.546 315.315 196.904 315.015 196.34C314.715 195.776 314.295 195.344 313.755 195.044C313.227 194.732 312.627 194.576 311.955 194.576C311.283 194.576 310.677 194.732 310.137 195.044C309.609 195.344 309.189 195.776 308.877 196.34C308.577 196.904 308.427 197.546 308.427 198.266C308.427 198.986 308.577 199.628 308.877 200.192C309.189 200.756 309.609 201.194 310.137 201.506C310.677 201.806 311.283 201.956 311.955 201.956ZM319.37 189.644H320.648V203H319.37V189.644ZM328.074 203.09C327.162 203.09 326.34 202.886 325.608 202.478C324.876 202.058 324.3 201.482 323.88 200.75C323.46 200.018 323.25 199.19 323.25 198.266C323.25 197.342 323.46 196.514 323.88 195.782C324.3 195.05 324.876 194.48 325.608 194.072C326.34 193.664 327.162 193.46 328.074 193.46C328.986 193.46 329.808 193.664 330.54 194.072C331.272 194.48 331.842 195.05 332.25 195.782C332.67 196.514 332.88 197.342 332.88 198.266C332.88 199.19 332.67 200.018 332.25 200.75C331.842 201.482 331.272 202.058 330.54 202.478C329.808 202.886 328.986 203.09 328.074 203.09ZM328.074 201.956C328.746 201.956 329.346 201.806 329.874 201.506C330.414 201.194 330.834 200.756 331.134 200.192C331.434 199.628 331.584 198.986 331.584 198.266C331.584 197.546 331.434 196.904 331.134 196.34C330.834 195.776 330.414 195.344 329.874 195.044C329.346 194.732 328.746 194.576 328.074 194.576C327.402 194.576 326.796 194.732 326.256 195.044C325.728 195.344 325.308 195.776 324.996 196.34C324.696 196.904 324.546 197.546 324.546 198.266C324.546 198.986 324.696 199.628 324.996 200.192C325.308 200.756 325.728 201.194 326.256 201.506C326.796 201.806 327.402 201.956 328.074 201.956ZM336.713 195.386C337.013 194.75 337.457 194.27 338.045 193.946C338.645 193.622 339.383 193.46 340.259 193.46V194.702L339.953 194.684C338.957 194.684 338.177 194.99 337.613 195.602C337.049 196.214 336.767 197.072 336.767 198.176V203H335.489V193.532H336.713V195.386ZM350.729 198.662H342.809C342.881 199.646 343.259 200.444 343.943 201.056C344.627 201.656 345.491 201.956 346.535 201.956C347.123 201.956 347.663 201.854 348.155 201.65C348.647 201.434 349.073 201.122 349.433 200.714L350.153 201.542C349.733 202.046 349.205 202.43 348.569 202.694C347.945 202.958 347.255 203.09 346.499 203.09C345.527 203.09 344.663 202.886 343.907 202.478C343.163 202.058 342.581 201.482 342.161 200.75C341.741 200.018 341.531 199.19 341.531 198.266C341.531 197.342 341.729 196.514 342.125 195.782C342.533 195.05 343.085 194.48 343.781 194.072C344.489 193.664 345.281 193.46 346.157 193.46C347.033 193.46 347.819 193.664 348.515 194.072C349.211 194.48 349.757 195.05 350.153 195.782C350.549 196.502 350.747 197.33 350.747 198.266L350.729 198.662ZM346.157 194.558C345.245 194.558 344.477 194.852 343.853 195.44C343.241 196.016 342.893 196.772 342.809 197.708H349.523C349.439 196.772 349.085 196.016 348.461 195.44C347.849 194.852 347.081 194.558 346.157 194.558ZM101.59 215.46C102.778 215.46 103.708 215.802 104.38 216.486C105.064 217.17 105.406 218.178 105.406 219.51V225H104.128V219.636C104.128 218.652 103.888 217.902 103.408 217.386C102.94 216.87 102.274 216.612 101.41 216.612C100.426 216.612 99.652 216.918 99.088 217.53C98.524 218.13 98.242 218.964 98.242 220.032V225H96.964V219.636C96.964 218.652 96.724 217.902 96.244 217.386C95.776 216.87 95.104 216.612 94.228 216.612C93.256 216.612 92.482 216.918 91.906 217.53C91.342 218.13 91.06 218.964 91.06 220.032V225H89.782V215.532H91.006V217.26C91.342 216.684 91.81 216.24 92.41 215.928C93.01 215.616 93.7 215.46 94.48 215.46C95.272 215.46 95.956 215.628 96.532 215.964C97.12 216.3 97.558 216.798 97.846 217.458C98.194 216.834 98.692 216.348 99.34 216C100 215.64 100.75 215.46 101.59 215.46ZM112.184 215.46C113.42 215.46 114.368 215.772 115.028 216.396C115.688 217.008 116.018 217.92 116.018 219.132V225H114.794V223.524C114.506 224.016 114.08 224.4 113.516 224.676C112.964 224.952 112.304 225.09 111.536 225.09C110.48 225.09 109.64 224.838 109.016 224.334C108.392 223.83 108.08 223.164 108.08 222.336C108.08 221.532 108.368 220.884 108.944 220.392C109.532 219.9 110.462 219.654 111.734 219.654H114.74V219.078C114.74 218.262 114.512 217.644 114.056 217.224C113.6 216.792 112.934 216.576 112.058 216.576C111.458 216.576 110.882 216.678 110.33 216.882C109.778 217.074 109.304 217.344 108.908 217.692L108.332 216.738C108.812 216.33 109.388 216.018 110.06 215.802C110.732 215.574 111.44 215.46 112.184 215.46ZM111.734 224.082C112.454 224.082 113.072 223.92 113.588 223.596C114.104 223.26 114.488 222.78 114.74 222.156V220.608H111.77C110.15 220.608 109.34 221.172 109.34 222.3C109.34 222.852 109.55 223.29 109.97 223.614C110.39 223.926 110.978 224.082 111.734 224.082ZM128.29 215.532V223.848C128.29 225.456 127.894 226.644 127.102 227.412C126.322 228.192 125.14 228.582 123.556 228.582C122.68 228.582 121.846 228.45 121.054 228.186C120.274 227.934 119.638 227.58 119.146 227.124L119.794 226.152C120.25 226.56 120.802 226.878 121.45 227.106C122.11 227.334 122.8 227.448 123.52 227.448C124.72 227.448 125.602 227.166 126.166 226.602C126.73 226.05 127.012 225.186 127.012 224.01V222.804C126.616 223.404 126.094 223.86 125.446 224.172C124.81 224.484 124.102 224.64 123.322 224.64C122.434 224.64 121.624 224.448 120.892 224.064C120.172 223.668 119.602 223.122 119.182 222.426C118.774 221.718 118.57 220.92 118.57 220.032C118.57 219.144 118.774 218.352 119.182 217.656C119.602 216.96 120.172 216.42 120.892 216.036C121.612 215.652 122.422 215.46 123.322 215.46C124.126 215.46 124.852 215.622 125.5 215.946C126.148 216.27 126.67 216.738 127.066 217.35V215.532H128.29ZM123.448 223.506C124.132 223.506 124.75 223.362 125.302 223.074C125.854 222.774 126.28 222.36 126.58 221.832C126.892 221.304 127.048 220.704 127.048 220.032C127.048 219.36 126.892 218.766 126.58 218.25C126.28 217.722 125.854 217.314 125.302 217.026C124.762 216.726 124.144 216.576 123.448 216.576C122.764 216.576 122.146 216.72 121.594 217.008C121.054 217.296 120.628 217.704 120.316 218.232C120.016 218.76 119.866 219.36 119.866 220.032C119.866 220.704 120.016 221.304 120.316 221.832C120.628 222.36 121.054 222.774 121.594 223.074C122.146 223.362 122.764 223.506 123.448 223.506ZM136.688 215.46C137.876 215.46 138.818 215.808 139.514 216.504C140.222 217.188 140.576 218.19 140.576 219.51V225H139.298V219.636C139.298 218.652 139.052 217.902 138.56 217.386C138.068 216.87 137.366 216.612 136.454 216.612C135.434 216.612 134.624 216.918 134.024 217.53C133.436 218.13 133.142 218.964 133.142 220.032V225H131.864V215.532H133.088V217.278C133.436 216.702 133.916 216.258 134.528 215.946C135.152 215.622 135.872 215.46 136.688 215.46ZM147.358 215.46C148.594 215.46 149.542 215.772 150.202 216.396C150.862 217.008 151.192 217.92 151.192 219.132V225H149.968V223.524C149.68 224.016 149.254 224.4 148.69 224.676C148.138 224.952 147.478 225.09 146.71 225.09C145.654 225.09 144.814 224.838 144.19 224.334C143.566 223.83 143.254 223.164 143.254 222.336C143.254 221.532 143.542 220.884 144.118 220.392C144.706 219.9 145.636 219.654 146.908 219.654H149.914V219.078C149.914 218.262 149.686 217.644 149.23 217.224C148.774 216.792 148.108 216.576 147.232 216.576C146.632 216.576 146.056 216.678 145.504 216.882C144.952 217.074 144.478 217.344 144.082 217.692L143.506 216.738C143.986 216.33 144.562 216.018 145.234 215.802C145.906 215.574 146.614 215.46 147.358 215.46ZM146.908 224.082C147.628 224.082 148.246 223.92 148.762 223.596C149.278 223.26 149.662 222.78 149.914 222.156V220.608H146.944C145.324 220.608 144.514 221.172 144.514 222.3C144.514 222.852 144.724 223.29 145.144 223.614C145.564 223.926 146.152 224.082 146.908 224.082ZM162.686 215.46C163.922 215.46 164.87 215.772 165.53 216.396C166.19 217.008 166.52 217.92 166.52 219.132V225H165.296V223.524C165.008 224.016 164.582 224.4 164.018 224.676C163.466 224.952 162.806 225.09 162.038 225.09C160.982 225.09 160.142 224.838 159.518 224.334C158.894 223.83 158.582 223.164 158.582 222.336C158.582 221.532 158.87 220.884 159.446 220.392C160.034 219.9 160.964 219.654 162.236 219.654H165.242V219.078C165.242 218.262 165.014 217.644 164.558 217.224C164.102 216.792 163.436 216.576 162.56 216.576C161.96 216.576 161.384 216.678 160.832 216.882C160.28 217.074 159.806 217.344 159.41 217.692L158.834 216.738C159.314 216.33 159.89 216.018 160.562 215.802C161.234 215.574 161.942 215.46 162.686 215.46ZM162.236 224.082C162.956 224.082 163.574 223.92 164.09 223.596C164.606 223.26 164.99 222.78 165.242 222.156V220.608H162.272C160.652 220.608 159.842 221.172 159.842 222.3C159.842 222.852 160.052 223.29 160.472 223.614C160.892 223.926 161.48 224.082 162.236 224.082ZM169.991 211.644H171.269V225H169.991V211.644ZM174.825 215.532H176.103V225H174.825V215.532ZM175.473 213.462C175.209 213.462 174.987 213.372 174.807 213.192C174.627 213.012 174.537 212.796 174.537 212.544C174.537 212.304 174.627 212.094 174.807 211.914C174.987 211.734 175.209 211.644 175.473 211.644C175.737 211.644 175.959 211.734 176.139 211.914C176.319 212.082 176.409 212.286 176.409 212.526C176.409 212.79 176.319 213.012 176.139 213.192C175.959 213.372 175.737 213.462 175.473 213.462ZM188.299 215.532V228.492H187.021V223.218C186.625 223.83 186.115 224.298 185.491 224.622C184.879 224.934 184.189 225.09 183.421 225.09C182.521 225.09 181.711 224.892 180.991 224.496C180.283 224.088 179.725 223.518 179.317 222.786C178.909 222.054 178.705 221.214 178.705 220.266C178.705 219.33 178.909 218.496 179.317 217.764C179.725 217.032 180.289 216.468 181.009 216.072C181.729 215.664 182.533 215.46 183.421 215.46C184.213 215.46 184.921 215.628 185.545 215.964C186.181 216.3 186.691 216.78 187.075 217.404V215.532H188.299ZM183.529 223.956C184.189 223.956 184.783 223.806 185.311 223.506C185.851 223.194 186.271 222.756 186.571 222.192C186.883 221.628 187.039 220.986 187.039 220.266C187.039 219.546 186.883 218.91 186.571 218.358C186.271 217.794 185.851 217.356 185.311 217.044C184.783 216.732 184.189 216.576 183.529 216.576C182.857 216.576 182.251 216.732 181.711 217.044C181.183 217.356 180.763 217.794 180.451 218.358C180.151 218.91 180.001 219.546 180.001 220.266C180.001 220.986 180.151 221.628 180.451 222.192C180.763 222.756 181.183 223.194 181.711 223.506C182.251 223.806 182.857 223.956 183.529 223.956ZM200.39 215.532V225H199.166V223.272C198.83 223.848 198.368 224.298 197.78 224.622C197.192 224.934 196.52 225.09 195.764 225.09C194.528 225.09 193.55 224.748 192.83 224.064C192.122 223.368 191.768 222.354 191.768 221.022V215.532H193.046V220.896C193.046 221.892 193.292 222.648 193.784 223.164C194.276 223.68 194.978 223.938 195.89 223.938C196.886 223.938 197.672 223.638 198.248 223.038C198.824 222.426 199.112 221.58 199.112 220.5V215.532H200.39ZM207.282 215.46C208.518 215.46 209.466 215.772 210.126 216.396C210.786 217.008 211.116 217.92 211.116 219.132V225H209.892V223.524C209.604 224.016 209.178 224.4 208.614 224.676C208.062 224.952 207.402 225.09 206.634 225.09C205.578 225.09 204.738 224.838 204.114 224.334C203.49 223.83 203.178 223.164 203.178 222.336C203.178 221.532 203.466 220.884 204.042 220.392C204.63 219.9 205.56 219.654 206.832 219.654H209.838V219.078C209.838 218.262 209.61 217.644 209.154 217.224C208.698 216.792 208.032 216.576 207.156 216.576C206.556 216.576 205.98 216.678 205.428 216.882C204.876 217.074 204.402 217.344 204.006 217.692L203.43 216.738C203.91 216.33 204.486 216.018 205.158 215.802C205.83 215.574 206.538 215.46 207.282 215.46ZM206.832 224.082C207.552 224.082 208.17 223.92 208.686 223.596C209.202 223.26 209.586 222.78 209.838 222.156V220.608H206.868C205.248 220.608 204.438 221.172 204.438 222.3C204.438 222.852 204.648 223.29 205.068 223.614C205.488 223.926 206.076 224.082 206.832 224.082ZM214.713 225.09C214.449 225.09 214.221 224.994 214.029 224.802C213.849 224.61 213.759 224.376 213.759 224.1C213.759 223.824 213.849 223.596 214.029 223.416C214.221 223.224 214.449 223.128 214.713 223.128C214.977 223.128 215.205 223.224 215.397 223.416C215.589 223.596 215.685 223.824 215.685 224.1C215.685 224.376 215.589 224.61 215.397 224.802C215.205 224.994 214.977 225.09 214.713 225.09Z" fill="#D9565F"/>
<line x1="-12" y1="408" x2="704" y2="408" stroke="#AF3139" stroke-width="6" stroke-linecap="round"/>
</g>
<defs>
<clipPath id="clip0">
<rect width="792" height="612" fill="white"/>
</clipPath>
</defs>
</svg>
