<svg width="100%" height="354" viewBox="0 0 833 354" fill="none">
<rect width="100%" height="353.087" rx="4" fill="#D47C3C"/>
<path d="M296.744 104C296.893 104 297.043 103.851 297.192 103.552C297.341 103.253 297.416 102.763 297.416 102.08V88.32C297.416 87.8507 297.363 87.5733 297.256 87.488C297.149 87.4027 296.776 87.36 296.136 87.36H293.8C292.563 87.36 291.56 87.4987 290.792 87.776C290.045 88.032 289.555 88.2773 289.32 88.512L289.96 85.44V84.8H308.456V85.44L309.096 88.512C308.861 88.2773 308.36 88.032 307.592 87.776C306.845 87.4987 305.853 87.36 304.616 87.36H302.312C301.651 87.36 301.267 87.4027 301.16 87.488C301.053 87.5733 301 87.8507 301 88.32V102.08C301 102.763 301.075 103.253 301.224 103.552C301.373 103.851 301.523 104 301.672 104H296.744ZM311.07 111.808C309.79 111.808 308.777 111.68 308.03 111.424C307.284 111.168 306.804 110.923 306.59 110.688L307.23 107.328V106.368C307.38 106.816 307.625 107.285 307.966 107.776C308.286 108.288 308.702 108.715 309.214 109.056C309.726 109.397 310.302 109.568 310.942 109.568C312.03 109.568 312.884 109.248 313.502 108.608C314.142 107.968 314.74 107.115 315.294 106.048C315.721 105.195 315.988 104.608 316.094 104.288C315.966 104.117 315.764 103.723 315.486 103.104C315.209 102.485 314.878 101.739 314.494 100.864C314.11 99.968 313.705 99.0187 313.278 98.016C312.873 97.0133 312.468 96.0427 312.062 95.104C311.657 94.1653 311.294 93.3333 310.974 92.608C310.654 91.8827 310.409 91.36 310.238 91.04C309.876 90.3573 309.545 89.856 309.246 89.536C308.948 89.216 308.734 89.0453 308.606 89.024H313.822C313.652 89.024 313.534 89.184 313.47 89.504C313.428 89.8027 313.545 90.3147 313.822 91.04C313.993 91.4453 314.228 92.032 314.526 92.8C314.825 93.5467 315.156 94.4 315.518 95.36C315.881 96.2987 316.254 97.2587 316.638 98.24C317.022 99.2 317.374 100.096 317.694 100.928H317.726C318.068 100.053 318.441 99.1147 318.846 98.112C319.252 97.1093 319.646 96.128 320.03 95.168C320.436 94.208 320.788 93.3547 321.086 92.608C321.406 91.8613 321.641 91.3173 321.79 90.976C322.089 90.2933 322.206 89.8027 322.142 89.504C322.078 89.2053 321.961 89.0453 321.79 89.024H326.814C326.686 89.0453 326.484 89.2053 326.206 89.504C325.95 89.7813 325.652 90.2613 325.31 90.944C325.118 91.3067 324.82 91.9253 324.414 92.8C324.03 93.6747 323.582 94.6773 323.07 95.808C322.558 96.9387 322.036 98.112 321.502 99.328C320.969 100.523 320.468 101.653 319.998 102.72C319.529 103.765 319.134 104.629 318.814 105.312C317.833 107.467 316.745 109.088 315.55 110.176C314.356 111.264 312.862 111.808 311.07 111.808ZM336.573 104.32C334.567 104.32 332.882 104.213 331.516 104C330.173 103.787 329.255 103.573 328.765 103.36V102.72L328.093 99.968C328.647 100.416 329.618 100.885 331.005 101.376C332.413 101.845 334.119 102.08 336.125 102.08C337.447 102.08 338.439 101.995 339.101 101.824C339.762 101.632 340.199 101.387 340.413 101.088C340.626 100.768 340.733 100.416 340.733 100.032C340.733 99.584 340.573 99.232 340.253 98.976C339.954 98.6987 339.378 98.4747 338.525 98.304C337.693 98.112 336.455 97.92 334.812 97.728C333.021 97.5147 331.634 97.2053 330.653 96.8C329.693 96.3947 329.031 95.8827 328.669 95.264C328.306 94.624 328.125 93.8667 328.125 92.992C328.125 92.3093 328.306 91.6373 328.669 90.976C329.031 90.3147 329.703 89.7707 330.685 89.344C331.687 88.9173 333.106 88.704 334.941 88.704C336.925 88.704 338.589 88.8107 339.933 89.024C341.298 89.2373 342.226 89.4507 342.717 89.664V90.304L343.357 92.736C342.823 92.352 341.853 91.9573 340.445 91.552C339.037 91.1467 337.341 90.944 335.357 90.944C333.778 90.944 332.722 91.1253 332.189 91.488C331.655 91.8293 331.389 92.2773 331.389 92.832C331.389 93.152 331.453 93.44 331.581 93.696C331.709 93.9307 331.965 94.144 332.349 94.336C332.754 94.528 333.351 94.6987 334.141 94.848C334.951 94.9973 336.029 95.1467 337.373 95.296C339.186 95.488 340.562 95.7867 341.501 96.192C342.439 96.5973 343.079 97.1093 343.421 97.728C343.783 98.3253 343.965 99.0293 343.965 99.84C343.965 100.715 343.719 101.493 343.229 102.176C342.759 102.837 341.981 103.36 340.893 103.744C339.805 104.128 338.365 104.32 336.573 104.32ZM354.439 104.32C352.305 104.32 350.631 103.979 349.415 103.296C348.22 102.613 347.377 101.685 346.887 100.512C346.417 99.3387 346.183 98.016 346.183 96.544C346.183 95.0507 346.428 93.7173 346.919 92.544C347.431 91.3707 348.284 90.4427 349.479 89.76C350.673 89.056 352.327 88.704 354.439 88.704C356.551 88.704 358.204 89.056 359.399 89.76C360.593 90.4427 361.436 91.3707 361.927 92.544C362.439 93.7173 362.694 95.0507 362.694 96.544C362.694 98.016 362.449 99.3387 361.958 100.512C361.489 101.685 360.657 102.613 359.463 103.296C358.268 103.979 356.593 104.32 354.439 104.32ZM354.439 102.048C355.761 102.048 356.785 101.835 357.511 101.408C358.236 100.981 358.737 100.363 359.015 99.552C359.292 98.72 359.431 97.7173 359.431 96.544C359.431 95.3707 359.281 94.368 358.983 93.536C358.705 92.704 358.204 92.064 357.479 91.616C356.775 91.168 355.761 90.944 354.439 90.944C353.137 90.944 352.124 91.1787 351.399 91.648C350.673 92.096 350.161 92.7467 349.863 93.6C349.585 94.432 349.447 95.424 349.447 96.576C349.447 97.7067 349.585 98.688 349.863 99.52C350.14 100.331 350.641 100.96 351.367 101.408C352.092 101.835 353.116 102.048 354.439 102.048ZM365.285 104C365.434 104 365.573 103.851 365.701 103.552C365.85 103.253 365.924 102.763 365.924 102.08V91.264C365.924 90.5813 365.85 90.1013 365.701 89.824C365.573 89.5253 365.434 89.3653 365.285 89.344C366.223 89.344 367.034 89.28 367.717 89.152C368.421 89.0027 368.911 88.8533 369.189 88.704V90.656L369.125 91.072L369.189 91.136C369.658 90.5387 370.351 89.984 371.269 89.472C372.186 88.96 373.402 88.704 374.917 88.704C376.901 88.704 378.415 89.2693 379.461 90.4C380.527 91.5307 381.061 93.3013 381.061 95.712V102.08C381.061 102.763 381.125 103.253 381.253 103.552C381.402 103.851 381.551 104 381.701 104H377.157C377.306 104 377.445 103.851 377.573 103.552C377.722 103.253 377.797 102.763 377.797 102.08V95.808C377.797 94.5493 377.637 93.568 377.317 92.864C376.997 92.16 376.549 91.6693 375.973 91.392C375.418 91.0933 374.767 90.944 374.021 90.944C373.231 90.944 372.463 91.1147 371.717 91.456C370.97 91.7973 370.362 92.3413 369.893 93.088C369.423 93.8347 369.189 94.8373 369.189 96.096V102.08C369.189 102.763 369.253 103.253 369.381 103.552C369.53 103.851 369.679 104 369.829 104H365.285ZM402.496 104.32C398.827 104.32 396.171 103.445 394.528 101.696C392.907 99.9253 392.096 97.4613 392.096 94.304C392.096 92.2773 392.448 90.5387 393.152 89.088C393.878 87.616 394.998 86.4853 396.512 85.696C398.048 84.8853 400.043 84.48 402.496 84.48H403.488C405.899 84.48 407.851 84.8747 409.344 85.664C410.859 86.4533 411.968 87.584 412.672 89.056C413.376 90.528 413.728 92.2773 413.728 94.304C413.728 97.4613 412.918 99.9253 411.296 101.696C409.675 103.445 407.072 104.32 403.488 104.32H402.496ZM402.816 101.728H403.168C404.768 101.728 406.08 101.493 407.104 101.024C408.128 100.555 408.886 99.7867 409.376 98.72C409.888 97.632 410.144 96.16 410.144 94.304C410.144 91.5947 409.568 89.7067 408.416 88.64C407.264 87.5733 405.515 87.04 403.168 87.04H402.816C400.406 87.04 398.614 87.584 397.44 88.672C396.267 89.76 395.68 91.6373 395.68 94.304C395.68 96.1387 395.936 97.6 396.448 98.688C396.982 99.776 397.782 100.555 398.848 101.024C399.915 101.493 401.238 101.728 402.816 101.728ZM416.628 104C416.778 104 416.916 103.851 417.044 103.552C417.194 103.253 417.268 102.763 417.268 102.08V91.264C417.268 90.5813 417.194 90.1013 417.044 89.824C416.916 89.5253 416.778 89.3653 416.628 89.344C417.567 89.344 418.378 89.28 419.06 89.152C419.764 89.0027 420.255 88.8533 420.532 88.704V90.656L420.468 91.072L420.532 91.136C420.852 90.7307 421.204 90.3467 421.588 89.984C421.994 89.6213 422.516 89.3227 423.156 89.088C423.796 88.832 424.618 88.704 425.62 88.704C426.922 88.704 428.02 88.9493 428.916 89.44C429.834 89.9093 430.538 90.6453 431.028 91.648C431.284 91.2213 431.647 90.784 432.116 90.336C432.607 89.888 433.236 89.504 434.004 89.184C434.772 88.864 435.711 88.704 436.82 88.704C438.804 88.704 440.319 89.2693 441.364 90.4C442.431 91.5307 442.964 93.3013 442.964 95.712V102.08C442.964 102.763 443.028 103.253 443.156 103.552C443.306 103.851 443.455 104 443.604 104H439.06C439.21 104 439.348 103.851 439.476 103.552C439.626 103.253 439.7 102.763 439.7 102.08V95.808C439.7 94.5493 439.54 93.568 439.22 92.864C438.9 92.16 438.452 91.6693 437.876 91.392C437.322 91.0933 436.671 90.944 435.924 90.944C434.687 90.944 433.684 91.3387 432.916 92.128C432.148 92.896 431.764 94.208 431.764 96.064V102.08C431.764 102.763 431.828 103.253 431.956 103.552C432.106 103.851 432.255 104 432.404 104H427.86C428.01 104 428.148 103.851 428.276 103.552C428.426 103.253 428.5 102.763 428.5 102.08V95.808C428.5 94.5493 428.34 93.568 428.02 92.864C427.7 92.16 427.252 91.6693 426.676 91.392C426.122 91.0933 425.471 90.944 424.724 90.944C423.53 90.944 422.527 91.3387 421.716 92.128C420.927 92.896 420.532 94.2187 420.532 96.096V102.08C420.532 102.763 420.596 103.253 420.724 103.552C420.874 103.851 421.023 104 421.172 104H416.628ZM454.379 104.32C452.694 104.32 451.307 104.128 450.219 103.744C449.131 103.339 448.278 102.784 447.659 102.08C447.04 101.376 446.603 100.555 446.347 99.616C446.112 98.6773 445.995 97.6533 445.995 96.544C445.995 94.1333 446.678 92.224 448.043 90.816C449.43 89.408 451.478 88.704 454.187 88.704C455.766 88.704 457.035 88.9173 457.995 89.344C458.976 89.7707 459.712 90.336 460.203 91.04C460.715 91.744 461.056 92.512 461.227 93.344C461.419 94.1547 461.515 94.9547 461.515 95.744V97.248C461.515 97.184 461.216 97.12 460.619 97.056C460.043 96.9707 459.062 96.928 457.675 96.928H449.259C449.259 98.5067 449.728 99.7547 450.667 100.672C451.606 101.589 453.003 102.048 454.859 102.048C456.459 102.048 457.771 101.856 458.795 101.472C459.84 101.067 460.534 100.672 460.875 100.288V100.928L461.195 103.04C460.726 103.317 459.894 103.605 458.699 103.904C457.526 104.181 456.086 104.32 454.379 104.32ZM450.539 94.816H458.315C458.315 94.2613 458.198 93.6853 457.963 93.088C457.728 92.4907 457.312 91.9893 456.715 91.584C456.118 91.1573 455.275 90.944 454.187 90.944C452.8 90.944 451.691 91.2747 450.859 91.936C450.048 92.5973 449.643 93.344 449.643 94.176C449.643 94.3893 449.707 94.5493 449.835 94.656C449.963 94.7627 450.198 94.816 450.539 94.816ZM464.253 104C464.403 104 464.541 103.851 464.669 103.552C464.819 103.253 464.893 102.763 464.893 102.08V91.264C464.893 90.5813 464.819 90.1013 464.669 89.824C464.541 89.5253 464.403 89.3653 464.253 89.344C465.192 89.344 466.003 89.28 466.685 89.152C467.389 89.0027 467.88 88.8533 468.157 88.704V90.304L468.093 90.848L468.157 90.912C468.648 90.2933 469.277 89.7707 470.045 89.344C470.835 88.9173 471.805 88.704 472.957 88.704C473.96 88.704 474.824 88.8533 475.549 89.152C476.296 89.4293 476.829 89.7173 477.149 90.016L476.509 92.704V93.664C476.232 93.3227 475.827 92.9707 475.293 92.608C474.781 92.224 474.195 91.904 473.533 91.648C472.872 91.392 472.168 91.264 471.421 91.264C470.568 91.264 469.811 91.6053 469.149 92.288C468.488 92.9707 468.157 94.1013 468.157 95.68V102.08C468.157 102.763 468.221 103.253 468.349 103.552C468.499 103.851 468.648 104 468.797 104H464.253Z" fill="white"/>
<path d="M248.13 156C248.219 156 248.308 155.911 248.396 155.734C248.485 155.557 248.529 155.265 248.529 154.86V145.74C248.529 145.335 248.485 145.05 248.396 144.885C248.308 144.708 248.219 144.613 248.13 144.6H254.096C255.224 144.6 256.161 144.708 256.908 144.923C257.668 145.138 258.276 145.436 258.732 145.816C259.201 146.196 259.556 146.633 259.796 147.127C260.037 147.608 260.195 148.121 260.271 148.666C260.36 149.211 260.404 149.762 260.404 150.319C260.404 150.826 260.36 151.351 260.271 151.896C260.195 152.428 260.031 152.941 259.777 153.435C259.537 153.916 259.182 154.353 258.713 154.746C258.257 155.126 257.649 155.43 256.889 155.658C256.142 155.886 255.211 156 254.096 156H248.13ZM251.417 154.461H253.754C255.376 154.461 256.535 154.144 257.231 153.511C257.928 152.878 258.276 151.858 258.276 150.452V150.11C258.276 149.122 258.137 148.343 257.858 147.773C257.58 147.19 257.111 146.779 256.452 146.538C255.794 146.285 254.894 146.158 253.754 146.158H251.417C251.05 146.158 250.828 146.183 250.752 146.234C250.689 146.272 250.657 146.424 250.657 146.69V153.891C250.657 154.17 250.689 154.334 250.752 154.385C250.828 154.436 251.05 154.461 251.417 154.461ZM266.902 156.19C265.901 156.19 265.078 156.076 264.432 155.848C263.786 155.607 263.279 155.278 262.912 154.86C262.545 154.442 262.285 153.954 262.133 153.397C261.994 152.84 261.924 152.232 261.924 151.573C261.924 150.142 262.329 149.008 263.14 148.172C263.963 147.336 265.179 146.918 266.788 146.918C267.725 146.918 268.479 147.045 269.049 147.298C269.632 147.551 270.069 147.887 270.36 148.305C270.664 148.723 270.867 149.179 270.968 149.673C271.082 150.154 271.139 150.629 271.139 151.098V151.991C271.139 151.953 270.962 151.915 270.607 151.877C270.265 151.826 269.682 151.801 268.859 151.801H263.862C263.862 152.738 264.141 153.479 264.698 154.024C265.255 154.569 266.085 154.841 267.187 154.841C268.137 154.841 268.916 154.727 269.524 154.499C270.145 154.258 270.556 154.024 270.759 153.796V154.176L270.949 155.43C270.67 155.595 270.176 155.766 269.467 155.943C268.77 156.108 267.915 156.19 266.902 156.19ZM264.622 150.547H269.239C269.239 150.218 269.169 149.876 269.03 149.521C268.891 149.166 268.644 148.869 268.289 148.628C267.934 148.375 267.434 148.248 266.788 148.248C265.965 148.248 265.306 148.444 264.812 148.837C264.331 149.23 264.09 149.673 264.09 150.167C264.09 150.294 264.128 150.389 264.204 150.452C264.28 150.515 264.419 150.547 264.622 150.547ZM277.686 156.19C276.495 156.19 275.495 156.127 274.684 156C273.886 155.873 273.341 155.747 273.05 155.62V155.24L272.651 153.606C272.98 153.872 273.557 154.151 274.38 154.442C275.216 154.721 276.229 154.86 277.42 154.86C278.205 154.86 278.794 154.809 279.187 154.708C279.58 154.594 279.839 154.448 279.966 154.271C280.093 154.081 280.156 153.872 280.156 153.644C280.156 153.378 280.061 153.169 279.871 153.017C279.694 152.852 279.352 152.719 278.845 152.618C278.351 152.504 277.616 152.39 276.641 152.276C275.577 152.149 274.754 151.966 274.171 151.725C273.601 151.484 273.208 151.18 272.993 150.813C272.778 150.433 272.67 149.983 272.67 149.464C272.67 149.059 272.778 148.66 272.993 148.267C273.208 147.874 273.607 147.551 274.19 147.298C274.785 147.045 275.628 146.918 276.717 146.918C277.895 146.918 278.883 146.981 279.681 147.108C280.492 147.235 281.043 147.361 281.334 147.488V147.868L281.714 149.312C281.397 149.084 280.821 148.85 279.985 148.609C279.149 148.368 278.142 148.248 276.964 148.248C276.027 148.248 275.4 148.356 275.083 148.571C274.766 148.774 274.608 149.04 274.608 149.369C274.608 149.559 274.646 149.73 274.722 149.882C274.798 150.021 274.95 150.148 275.178 150.262C275.419 150.376 275.773 150.477 276.242 150.566C276.723 150.655 277.363 150.743 278.161 150.832C279.238 150.946 280.055 151.123 280.612 151.364C281.169 151.605 281.549 151.909 281.752 152.276C281.967 152.631 282.075 153.049 282.075 153.53C282.075 154.049 281.929 154.512 281.638 154.917C281.359 155.31 280.897 155.62 280.251 155.848C279.605 156.076 278.75 156.19 277.686 156.19ZM284.76 145.284C284.392 145.284 284.107 145.183 283.905 144.98C283.702 144.765 283.601 144.518 283.601 144.239C283.601 143.948 283.696 143.701 283.886 143.498C284.088 143.295 284.38 143.194 284.76 143.194C285.14 143.194 285.425 143.295 285.615 143.498C285.817 143.701 285.919 143.948 285.919 144.239C285.919 144.518 285.817 144.765 285.615 144.98C285.412 145.183 285.127 145.284 284.76 145.284ZM283.601 156C283.689 156 283.772 155.911 283.848 155.734C283.936 155.557 283.981 155.265 283.981 154.86V148.248C283.981 147.843 283.936 147.558 283.848 147.393C283.772 147.216 283.689 147.121 283.601 147.108H285.919V154.86C285.919 155.265 285.957 155.557 286.033 155.734C286.121 155.911 286.21 156 286.299 156H283.601ZM292.56 160.636C291.458 160.636 290.495 160.528 289.672 160.313C288.849 160.098 288.26 159.889 287.905 159.686L288.285 157.976V157.425C288.462 157.691 288.741 157.97 289.121 158.261C289.501 158.552 289.976 158.799 290.546 159.002C291.116 159.205 291.762 159.306 292.484 159.306C293.333 159.306 293.96 159.167 294.365 158.888C294.783 158.609 295.055 158.223 295.182 157.729C295.321 157.235 295.391 156.671 295.391 156.038V155.335L295.429 154.993L295.391 154.955C295.138 155.272 294.745 155.557 294.213 155.81C293.694 156.063 293.054 156.19 292.294 156.19C291.091 156.19 290.153 155.987 289.482 155.582C288.823 155.177 288.361 154.626 288.095 153.929C287.842 153.232 287.715 152.447 287.715 151.573C287.715 150.686 287.842 149.895 288.095 149.198C288.361 148.501 288.823 147.95 289.482 147.545C290.153 147.127 291.091 146.918 292.294 146.918C293.054 146.918 293.687 147.019 294.194 147.222C294.701 147.425 295.1 147.684 295.391 148.001L295.429 147.982L295.391 147.621V147.108H297.709C297.62 147.121 297.532 147.216 297.443 147.393C297.367 147.57 297.329 147.868 297.329 148.286V155.563C297.329 157.4 296.936 158.704 296.151 159.477C295.378 160.25 294.181 160.636 292.56 160.636ZM292.427 154.841C293.212 154.841 293.82 154.721 294.251 154.48C294.682 154.227 294.979 153.859 295.144 153.378C295.309 152.884 295.391 152.282 295.391 151.573C295.391 150.876 295.302 150.281 295.125 149.787C294.96 149.293 294.663 148.913 294.232 148.647C293.814 148.381 293.212 148.248 292.427 148.248C291.363 148.248 290.628 148.552 290.223 149.16C289.83 149.768 289.634 150.579 289.634 151.592C289.634 152.605 289.83 153.403 290.223 153.986C290.616 154.556 291.35 154.841 292.427 154.841ZM299.539 156C299.628 156 299.71 155.911 299.786 155.734C299.875 155.557 299.919 155.265 299.919 154.86V148.438C299.919 148.033 299.875 147.748 299.786 147.583C299.71 147.406 299.628 147.311 299.539 147.298C300.097 147.298 300.578 147.26 300.983 147.184C301.401 147.095 301.693 147.007 301.857 146.918V148.077L301.819 148.324L301.857 148.362C302.136 148.007 302.548 147.678 303.092 147.374C303.637 147.07 304.359 146.918 305.258 146.918C306.436 146.918 307.336 147.254 307.956 147.925C308.59 148.596 308.906 149.648 308.906 151.079V154.86C308.906 155.265 308.944 155.557 309.02 155.734C309.109 155.911 309.198 156 309.286 156H306.588C306.677 156 306.759 155.911 306.835 155.734C306.924 155.557 306.968 155.265 306.968 154.86V151.136C306.968 150.389 306.873 149.806 306.683 149.388C306.493 148.97 306.227 148.679 305.885 148.514C305.556 148.337 305.17 148.248 304.726 148.248C304.258 148.248 303.802 148.349 303.358 148.552C302.915 148.755 302.554 149.078 302.275 149.521C301.997 149.964 301.857 150.56 301.857 151.307V154.86C301.857 155.265 301.895 155.557 301.971 155.734C302.06 155.911 302.149 156 302.237 156H299.539ZM315.682 156.19C314.682 156.19 313.858 156.076 313.212 155.848C312.566 155.607 312.06 155.278 311.692 154.86C311.325 154.442 311.065 153.954 310.913 153.397C310.774 152.84 310.704 152.232 310.704 151.573C310.704 150.142 311.11 149.008 311.92 148.172C312.744 147.336 313.96 146.918 315.568 146.918C316.506 146.918 317.259 147.045 317.829 147.298C318.412 147.551 318.849 147.887 319.14 148.305C319.444 148.723 319.647 149.179 319.748 149.673C319.862 150.154 319.919 150.629 319.919 151.098V151.991C319.919 151.953 319.742 151.915 319.387 151.877C319.045 151.826 318.463 151.801 317.639 151.801H312.642C312.642 152.738 312.921 153.479 313.478 154.024C314.036 154.569 314.865 154.841 315.967 154.841C316.917 154.841 317.696 154.727 318.304 154.499C318.925 154.258 319.337 154.024 319.539 153.796V154.176L319.729 155.43C319.451 155.595 318.957 155.766 318.247 155.943C317.551 156.108 316.696 156.19 315.682 156.19ZM313.402 150.547H318.019C318.019 150.218 317.95 149.876 317.81 149.521C317.671 149.166 317.424 148.869 317.069 148.628C316.715 148.375 316.214 148.248 315.568 148.248C314.745 148.248 314.086 148.444 313.592 148.837C313.111 149.23 312.87 149.673 312.87 150.167C312.87 150.294 312.908 150.389 312.984 150.452C313.06 150.515 313.2 150.547 313.402 150.547ZM321.545 156C321.634 156 321.716 155.911 321.792 155.734C321.881 155.557 321.925 155.265 321.925 154.86V148.438C321.925 148.033 321.881 147.748 321.792 147.583C321.716 147.406 321.634 147.311 321.545 147.298C322.102 147.298 322.584 147.26 322.989 147.184C323.407 147.095 323.698 147.007 323.863 146.918V147.868L323.825 148.191L323.863 148.229C324.154 147.862 324.528 147.551 324.984 147.298C325.453 147.045 326.029 146.918 326.713 146.918C327.308 146.918 327.821 147.007 328.252 147.184C328.695 147.349 329.012 147.52 329.202 147.697L328.822 149.293V149.863C328.657 149.66 328.417 149.451 328.1 149.236C327.796 149.008 327.448 148.818 327.055 148.666C326.662 148.514 326.244 148.438 325.801 148.438C325.294 148.438 324.845 148.641 324.452 149.046C324.059 149.451 323.863 150.123 323.863 151.06V154.86C323.863 155.265 323.901 155.557 323.977 155.734C324.066 155.911 324.154 156 324.243 156H321.545ZM338.873 156.19C338.214 156.19 337.581 156.108 336.973 155.943C336.365 155.766 335.864 155.455 335.472 155.012C335.092 154.569 334.902 153.948 334.902 153.15C334.902 152.542 335.041 152.023 335.32 151.592C335.611 151.161 335.953 150.813 336.346 150.547C336.751 150.268 337.137 150.059 337.505 149.92C337.872 149.781 338.138 149.686 338.303 149.635L338.322 149.597C337.992 149.293 337.72 148.919 337.505 148.476C337.289 148.02 337.182 147.526 337.182 146.994C337.182 146.259 337.467 145.645 338.037 145.151C338.619 144.657 339.424 144.41 340.45 144.41C341.526 144.41 342.312 144.657 342.806 145.151C343.312 145.632 343.566 146.247 343.566 146.994C343.566 147.488 343.445 147.925 343.205 148.305C342.977 148.685 342.685 149.008 342.331 149.274C341.976 149.527 341.621 149.73 341.267 149.882C341.52 150.123 341.824 150.376 342.179 150.642C342.533 150.908 342.901 151.174 343.281 151.44C343.661 151.706 343.996 151.966 344.288 152.219C344.364 152.118 344.459 151.921 344.573 151.63C344.699 151.326 344.763 150.94 344.763 150.471C344.763 150.104 344.718 149.838 344.63 149.673C344.541 149.508 344.452 149.42 344.364 149.407H347.993C347.904 149.407 347.784 149.496 347.632 149.673C347.48 149.85 347.315 150.142 347.138 150.547C346.821 151.269 346.53 151.826 346.264 152.219C346.01 152.612 345.757 152.947 345.504 153.226C345.77 153.479 346.01 153.707 346.226 153.91C346.441 154.113 346.739 154.366 347.119 154.67C347.727 155.151 348.208 155.493 348.563 155.696C348.93 155.899 349.171 156 349.285 156H345.2C345.225 155.899 345.168 155.721 345.029 155.468C344.889 155.202 344.617 154.885 344.212 154.518C344.022 154.645 343.699 154.847 343.243 155.126C342.799 155.392 342.217 155.639 341.495 155.867C340.773 156.082 339.899 156.19 338.873 156.19ZM340.203 148.989C340.507 148.888 340.817 148.666 341.134 148.324C341.45 147.969 341.609 147.526 341.609 146.994C341.609 146.627 341.514 146.329 341.324 146.101C341.146 145.86 340.855 145.74 340.45 145.74C340.057 145.74 339.759 145.879 339.557 146.158C339.367 146.424 339.272 146.741 339.272 147.108C339.272 147.615 339.379 148.026 339.595 148.343C339.823 148.647 340.025 148.862 340.203 148.989ZM339.101 154.86C340.076 154.86 340.906 154.721 341.59 154.442C342.274 154.163 342.799 153.853 343.167 153.511C342.863 153.22 342.489 152.909 342.046 152.58C341.615 152.251 341.172 151.921 340.716 151.592C340.272 151.25 339.873 150.933 339.519 150.642C339.291 150.731 339.031 150.845 338.74 150.984C338.448 151.111 338.163 151.275 337.885 151.478C337.619 151.681 337.397 151.928 337.22 152.219C337.042 152.498 336.954 152.84 336.954 153.245C336.954 153.777 337.137 154.182 337.505 154.461C337.872 154.727 338.404 154.86 339.101 154.86ZM355.172 156C355.261 156 355.35 155.911 355.438 155.734C355.527 155.557 355.571 155.265 355.571 154.86V145.74C355.571 145.335 355.527 145.05 355.438 144.885C355.35 144.708 355.261 144.613 355.172 144.6H361.138C362.266 144.6 363.203 144.708 363.95 144.923C364.71 145.138 365.318 145.436 365.774 145.816C366.243 146.196 366.598 146.633 366.838 147.127C367.079 147.608 367.237 148.121 367.313 148.666C367.402 149.211 367.446 149.762 367.446 150.319C367.446 150.826 367.402 151.351 367.313 151.896C367.237 152.428 367.073 152.941 366.819 153.435C366.579 153.916 366.224 154.353 365.755 154.746C365.299 155.126 364.691 155.43 363.931 155.658C363.184 155.886 362.253 156 361.138 156H355.172ZM358.459 154.461H360.796C362.418 154.461 363.577 154.144 364.273 153.511C364.97 152.878 365.318 151.858 365.318 150.452V150.11C365.318 149.122 365.179 148.343 364.9 147.773C364.622 147.19 364.153 146.779 363.494 146.538C362.836 146.285 361.936 146.158 360.796 146.158H358.459C358.092 146.158 357.87 146.183 357.794 146.234C357.731 146.272 357.699 146.424 357.699 146.69V153.891C357.699 154.17 357.731 154.334 357.794 154.385C357.87 154.436 358.092 154.461 358.459 154.461ZM373.944 156.19C372.943 156.19 372.12 156.076 371.474 155.848C370.828 155.607 370.321 155.278 369.954 154.86C369.587 154.442 369.327 153.954 369.175 153.397C369.036 152.84 368.966 152.232 368.966 151.573C368.966 150.142 369.371 149.008 370.182 148.172C371.005 147.336 372.221 146.918 373.83 146.918C374.767 146.918 375.521 147.045 376.091 147.298C376.674 147.551 377.111 147.887 377.402 148.305C377.706 148.723 377.909 149.179 378.01 149.673C378.124 150.154 378.181 150.629 378.181 151.098V151.991C378.181 151.953 378.004 151.915 377.649 151.877C377.307 151.826 376.724 151.801 375.901 151.801H370.904C370.904 152.738 371.183 153.479 371.74 154.024C372.297 154.569 373.127 154.841 374.229 154.841C375.179 154.841 375.958 154.727 376.566 154.499C377.187 154.258 377.598 154.024 377.801 153.796V154.176L377.991 155.43C377.712 155.595 377.218 155.766 376.509 155.943C375.812 156.108 374.957 156.19 373.944 156.19ZM371.664 150.547H376.281C376.281 150.218 376.211 149.876 376.072 149.521C375.933 149.166 375.686 148.869 375.331 148.628C374.976 148.375 374.476 148.248 373.83 148.248C373.007 148.248 372.348 148.444 371.854 148.837C371.373 149.23 371.132 149.673 371.132 150.167C371.132 150.294 371.17 150.389 371.246 150.452C371.322 150.515 371.461 150.547 371.664 150.547ZM382.272 156C382.36 156 382.417 155.918 382.443 155.753C382.481 155.576 382.424 155.278 382.272 154.86C382.208 154.695 382.088 154.404 381.911 153.986C381.733 153.568 381.524 153.087 381.284 152.542C381.043 151.985 380.796 151.427 380.543 150.87C380.289 150.3 380.055 149.787 379.84 149.331C379.624 148.862 379.453 148.514 379.327 148.286C379.111 147.881 378.915 147.589 378.738 147.412C378.56 147.222 378.434 147.121 378.358 147.108H381.455C381.341 147.108 381.265 147.197 381.227 147.374C381.189 147.551 381.265 147.855 381.455 148.286C381.556 148.501 381.695 148.831 381.873 149.274C382.05 149.705 382.246 150.205 382.462 150.775C382.69 151.332 382.918 151.902 383.146 152.485C383.386 153.068 383.602 153.612 383.792 154.119H383.811C384.013 153.6 384.235 153.049 384.476 152.466C384.716 151.871 384.951 151.288 385.179 150.718C385.407 150.148 385.609 149.648 385.787 149.217C385.977 148.774 386.116 148.451 386.205 148.248C386.382 147.843 386.452 147.551 386.414 147.374C386.376 147.197 386.306 147.108 386.205 147.108H389.188C389.112 147.108 388.991 147.197 388.827 147.374C388.675 147.539 388.497 147.824 388.295 148.229C388.181 148.444 388.016 148.774 387.801 149.217C387.585 149.66 387.345 150.161 387.079 150.718C386.825 151.263 386.572 151.807 386.319 152.352C386.078 152.897 385.863 153.397 385.673 153.853C385.495 154.296 385.375 154.632 385.312 154.86C385.198 155.278 385.153 155.576 385.179 155.753C385.204 155.918 385.248 156 385.312 156H382.272ZM394.261 156.19C393.261 156.19 392.437 156.076 391.791 155.848C391.145 155.607 390.639 155.278 390.271 154.86C389.904 154.442 389.644 153.954 389.492 153.397C389.353 152.84 389.283 152.232 389.283 151.573C389.283 150.142 389.689 149.008 390.499 148.172C391.323 147.336 392.539 146.918 394.147 146.918C395.085 146.918 395.838 147.045 396.408 147.298C396.991 147.551 397.428 147.887 397.719 148.305C398.023 148.723 398.226 149.179 398.327 149.673C398.441 150.154 398.498 150.629 398.498 151.098V151.991C398.498 151.953 398.321 151.915 397.966 151.877C397.624 151.826 397.042 151.801 396.218 151.801H391.221C391.221 152.738 391.5 153.479 392.057 154.024C392.615 154.569 393.444 154.841 394.546 154.841C395.496 154.841 396.275 154.727 396.883 154.499C397.504 154.258 397.916 154.024 398.118 153.796V154.176L398.308 155.43C398.03 155.595 397.536 155.766 396.826 155.943C396.13 156.108 395.275 156.19 394.261 156.19ZM391.981 150.547H396.598C396.598 150.218 396.529 149.876 396.389 149.521C396.25 149.166 396.003 148.869 395.648 148.628C395.294 148.375 394.793 148.248 394.147 148.248C393.324 148.248 392.665 148.444 392.171 148.837C391.69 149.23 391.449 149.673 391.449 150.167C391.449 150.294 391.487 150.389 391.563 150.452C391.639 150.515 391.779 150.547 391.981 150.547ZM400.2 156C400.289 156 400.371 155.911 400.447 155.734C400.536 155.557 400.58 155.265 400.58 154.86V144.03C400.58 143.625 400.536 143.34 400.447 143.175C400.371 142.998 400.289 142.903 400.2 142.89C400.758 142.89 401.239 142.852 401.644 142.776C402.062 142.687 402.354 142.599 402.518 142.51V154.86C402.518 155.265 402.556 155.557 402.632 155.734C402.721 155.911 402.81 156 402.898 156H400.2ZM409.419 156.19C408.152 156.19 407.158 155.987 406.436 155.582C405.726 155.177 405.226 154.626 404.935 153.929C404.656 153.232 404.517 152.447 404.517 151.573C404.517 150.686 404.662 149.895 404.954 149.198C405.258 148.501 405.764 147.95 406.474 147.545C407.183 147.127 408.165 146.918 409.419 146.918C410.673 146.918 411.654 147.127 412.364 147.545C413.073 147.95 413.573 148.501 413.865 149.198C414.169 149.895 414.321 150.686 414.321 151.573C414.321 152.447 414.175 153.232 413.884 153.929C413.605 154.626 413.111 155.177 412.402 155.582C411.692 155.987 410.698 156.19 409.419 156.19ZM409.419 154.841C410.204 154.841 410.812 154.714 411.243 154.461C411.673 154.208 411.971 153.84 412.136 153.359C412.3 152.865 412.383 152.27 412.383 151.573C412.383 150.876 412.294 150.281 412.117 149.787C411.952 149.293 411.654 148.913 411.224 148.647C410.806 148.381 410.204 148.248 409.419 148.248C408.646 148.248 408.044 148.387 407.614 148.666C407.183 148.932 406.879 149.318 406.702 149.825C406.537 150.319 406.455 150.908 406.455 151.592C406.455 152.263 406.537 152.846 406.702 153.34C406.866 153.821 407.164 154.195 407.595 154.461C408.025 154.714 408.633 154.841 409.419 154.841ZM415.859 160.218C415.947 160.218 416.03 160.129 416.106 159.952C416.194 159.775 416.239 159.483 416.239 159.078V148.248C416.239 147.843 416.194 147.558 416.106 147.393C416.03 147.216 415.947 147.121 415.859 147.108H418.177V147.488L418.139 147.849L418.177 147.887C418.43 147.646 418.81 147.425 419.317 147.222C419.836 147.019 420.444 146.918 421.141 146.918C422.319 146.918 423.25 147.127 423.934 147.545C424.618 147.95 425.105 148.501 425.397 149.198C425.701 149.895 425.853 150.686 425.853 151.573C425.853 152.447 425.707 153.232 425.416 153.929C425.124 154.626 424.637 155.177 423.953 155.582C423.269 155.987 422.331 156.19 421.141 156.19C420.444 156.19 419.855 156.108 419.374 155.943C418.905 155.778 418.506 155.55 418.177 155.259L418.139 155.278L418.177 155.639V159.078C418.177 159.483 418.215 159.775 418.291 159.952C418.379 160.129 418.468 160.218 418.557 160.218H415.859ZM420.951 154.841C421.736 154.841 422.344 154.714 422.775 154.461C423.205 154.208 423.503 153.84 423.668 153.359C423.832 152.865 423.915 152.27 423.915 151.573C423.915 150.876 423.826 150.281 423.649 149.787C423.484 149.293 423.186 148.913 422.756 148.647C422.338 148.381 421.736 148.248 420.951 148.248C420.191 148.248 419.608 148.4 419.203 148.704C418.81 149.008 418.538 149.413 418.386 149.92C418.246 150.427 418.177 150.984 418.177 151.592C418.177 152.213 418.253 152.77 418.405 153.264C418.569 153.758 418.848 154.144 419.241 154.423C419.646 154.702 420.216 154.841 420.951 154.841ZM432.169 156.19C431.168 156.19 430.345 156.076 429.699 155.848C429.053 155.607 428.546 155.278 428.179 154.86C427.811 154.442 427.552 153.954 427.4 153.397C427.26 152.84 427.191 152.232 427.191 151.573C427.191 150.142 427.596 149.008 428.407 148.172C429.23 147.336 430.446 146.918 432.055 146.918C432.992 146.918 433.746 147.045 434.316 147.298C434.898 147.551 435.335 147.887 435.627 148.305C435.931 148.723 436.133 149.179 436.235 149.673C436.349 150.154 436.406 150.629 436.406 151.098V151.991C436.406 151.953 436.228 151.915 435.874 151.877C435.532 151.826 434.949 151.801 434.126 151.801H429.129C429.129 152.738 429.407 153.479 429.965 154.024C430.522 154.569 431.352 154.841 432.454 154.841C433.404 154.841 434.183 154.727 434.791 154.499C435.411 154.258 435.823 154.024 436.026 153.796V154.176L436.216 155.43C435.937 155.595 435.443 155.766 434.734 155.943C434.037 156.108 433.182 156.19 432.169 156.19ZM429.889 150.547H434.506C434.506 150.218 434.436 149.876 434.297 149.521C434.157 149.166 433.91 148.869 433.556 148.628C433.201 148.375 432.701 148.248 432.055 148.248C431.231 148.248 430.573 148.444 430.079 148.837C429.597 149.23 429.357 149.673 429.357 150.167C429.357 150.294 429.395 150.389 429.471 150.452C429.547 150.515 429.686 150.547 429.889 150.547ZM438.031 156C438.12 156 438.202 155.911 438.278 155.734C438.367 155.557 438.411 155.265 438.411 154.86V148.438C438.411 148.033 438.367 147.748 438.278 147.583C438.202 147.406 438.12 147.311 438.031 147.298C438.589 147.298 439.07 147.26 439.475 147.184C439.893 147.095 440.185 147.007 440.349 146.918V147.868L440.311 148.191L440.349 148.229C440.641 147.862 441.014 147.551 441.47 147.298C441.939 147.045 442.515 146.918 443.199 146.918C443.795 146.918 444.308 147.007 444.738 147.184C445.182 147.349 445.498 147.52 445.688 147.697L445.308 149.293V149.863C445.144 149.66 444.903 149.451 444.586 149.236C444.282 149.008 443.934 148.818 443.541 148.666C443.149 148.514 442.731 148.438 442.287 148.438C441.781 148.438 441.331 148.641 440.938 149.046C440.546 149.451 440.349 150.123 440.349 151.06V154.86C440.349 155.265 440.387 155.557 440.463 155.734C440.552 155.911 440.641 156 440.729 156H438.031ZM456.195 156.19C454.928 156.19 453.934 155.987 453.212 155.582C452.503 155.177 452.002 154.626 451.711 153.929C451.432 153.232 451.293 152.447 451.293 151.573C451.293 150.686 451.439 149.895 451.73 149.198C452.034 148.501 452.541 147.95 453.25 147.545C453.959 147.127 454.941 146.918 456.195 146.918C457.449 146.918 458.431 147.127 459.14 147.545C459.849 147.95 460.35 148.501 460.641 149.198C460.945 149.895 461.097 150.686 461.097 151.573C461.097 152.447 460.951 153.232 460.66 153.929C460.381 154.626 459.887 155.177 459.178 155.582C458.469 155.987 457.474 156.19 456.195 156.19ZM456.195 154.841C456.98 154.841 457.588 154.714 458.019 154.461C458.45 154.208 458.747 153.84 458.912 153.359C459.077 152.865 459.159 152.27 459.159 151.573C459.159 150.876 459.07 150.281 458.893 149.787C458.728 149.293 458.431 148.913 458 148.647C457.582 148.381 456.98 148.248 456.195 148.248C455.422 148.248 454.821 148.387 454.39 148.666C453.959 148.932 453.655 149.318 453.478 149.825C453.313 150.319 453.231 150.908 453.231 151.592C453.231 152.263 453.313 152.846 453.478 153.34C453.643 153.821 453.94 154.195 454.371 154.461C454.802 154.714 455.41 154.841 456.195 154.841ZM463.091 156C463.18 156 463.262 155.911 463.338 155.734C463.427 155.557 463.471 155.265 463.471 154.86V148.438H461.761V147.108H463.661L463.68 147.07C463.642 147.007 463.566 146.798 463.452 146.443C463.338 146.076 463.281 145.645 463.281 145.151C463.281 144.15 463.566 143.428 464.136 142.985C464.706 142.542 465.498 142.32 466.511 142.32C467.195 142.32 467.816 142.364 468.373 142.453C468.943 142.529 469.355 142.611 469.608 142.7V143.099L469.988 144.581C469.988 144.594 469.988 144.6 469.988 144.6V144.581C469.95 144.505 469.773 144.397 469.456 144.258C469.152 144.106 468.759 143.973 468.278 143.859C467.797 143.732 467.29 143.669 466.758 143.669C466.226 143.669 465.833 143.789 465.58 144.03C465.339 144.258 465.219 144.701 465.219 145.36V146.538C465.219 146.817 465.244 146.981 465.295 147.032C465.346 147.083 465.517 147.108 465.808 147.108H469.038C468.962 147.235 468.88 147.425 468.791 147.678C468.702 147.919 468.658 148.172 468.658 148.438H465.409V154.86C465.409 155.265 465.453 155.557 465.542 155.734C465.631 155.911 465.713 156 465.789 156H463.091ZM475.128 156C475.217 156 475.306 155.911 475.394 155.734C475.483 155.557 475.527 155.265 475.527 154.86V145.74C475.527 145.335 475.483 145.05 475.394 144.885C475.306 144.708 475.217 144.613 475.128 144.6H481.094C482.222 144.6 483.159 144.708 483.906 144.923C484.666 145.138 485.274 145.436 485.73 145.816C486.199 146.196 486.554 146.633 486.794 147.127C487.035 147.608 487.193 148.121 487.269 148.666C487.358 149.211 487.402 149.762 487.402 150.319C487.402 150.826 487.358 151.351 487.269 151.896C487.193 152.428 487.029 152.941 486.775 153.435C486.535 153.916 486.18 154.353 485.711 154.746C485.255 155.126 484.647 155.43 483.887 155.658C483.14 155.886 482.209 156 481.094 156H475.128ZM478.415 154.461H480.752C482.374 154.461 483.533 154.144 484.229 153.511C484.926 152.878 485.274 151.858 485.274 150.452V150.11C485.274 149.122 485.135 148.343 484.856 147.773C484.578 147.19 484.109 146.779 483.45 146.538C482.792 146.285 481.892 146.158 480.752 146.158H478.415C478.048 146.158 477.826 146.183 477.75 146.234C477.687 146.272 477.655 146.424 477.655 146.69V153.891C477.655 154.17 477.687 154.334 477.75 154.385C477.826 154.436 478.048 154.461 478.415 154.461ZM490.29 145.284C489.923 145.284 489.638 145.183 489.435 144.98C489.232 144.765 489.131 144.518 489.131 144.239C489.131 143.948 489.226 143.701 489.416 143.498C489.619 143.295 489.91 143.194 490.29 143.194C490.67 143.194 490.955 143.295 491.145 143.498C491.348 143.701 491.449 143.948 491.449 144.239C491.449 144.518 491.348 144.765 491.145 144.98C490.942 145.183 490.657 145.284 490.29 145.284ZM489.131 156C489.22 156 489.302 155.911 489.378 155.734C489.467 155.557 489.511 155.265 489.511 154.86V148.248C489.511 147.843 489.467 147.558 489.378 147.393C489.302 147.216 489.22 147.121 489.131 147.108H491.449V154.86C491.449 155.265 491.487 155.557 491.563 155.734C491.652 155.911 491.74 156 491.829 156H489.131ZM498.09 160.636C496.988 160.636 496.026 160.528 495.202 160.313C494.379 160.098 493.79 159.889 493.435 159.686L493.815 157.976V157.425C493.993 157.691 494.271 157.97 494.651 158.261C495.031 158.552 495.506 158.799 496.076 159.002C496.646 159.205 497.292 159.306 498.014 159.306C498.863 159.306 499.49 159.167 499.895 158.888C500.313 158.609 500.586 158.223 500.712 157.729C500.852 157.235 500.921 156.671 500.921 156.038V155.335L500.959 154.993L500.921 154.955C500.668 155.272 500.275 155.557 499.743 155.81C499.224 156.063 498.584 156.19 497.824 156.19C496.621 156.19 495.684 155.987 495.012 155.582C494.354 155.177 493.891 154.626 493.625 153.929C493.372 153.232 493.245 152.447 493.245 151.573C493.245 150.686 493.372 149.895 493.625 149.198C493.891 148.501 494.354 147.95 495.012 147.545C495.684 147.127 496.621 146.918 497.824 146.918C498.584 146.918 499.218 147.019 499.724 147.222C500.231 147.425 500.63 147.684 500.921 148.001L500.959 147.982L500.921 147.621V147.108H503.239C503.151 147.121 503.062 147.216 502.973 147.393C502.897 147.57 502.859 147.868 502.859 148.286V155.563C502.859 157.4 502.467 158.704 501.681 159.477C500.909 160.25 499.712 160.636 498.09 160.636ZM497.957 154.841C498.743 154.841 499.351 154.721 499.781 154.48C500.212 154.227 500.51 153.859 500.674 153.378C500.839 152.884 500.921 152.282 500.921 151.573C500.921 150.876 500.833 150.281 500.655 149.787C500.491 149.293 500.193 148.913 499.762 148.647C499.344 148.381 498.743 148.248 497.957 148.248C496.893 148.248 496.159 148.552 495.753 149.16C495.361 149.768 495.164 150.579 495.164 151.592C495.164 152.605 495.361 153.403 495.753 153.986C496.146 154.556 496.881 154.841 497.957 154.841ZM506.229 145.284C505.861 145.284 505.576 145.183 505.374 144.98C505.171 144.765 505.07 144.518 505.07 144.239C505.07 143.948 505.165 143.701 505.355 143.498C505.557 143.295 505.849 143.194 506.229 143.194C506.609 143.194 506.894 143.295 507.084 143.498C507.286 143.701 507.388 143.948 507.388 144.239C507.388 144.518 507.286 144.765 507.084 144.98C506.881 145.183 506.596 145.284 506.229 145.284ZM505.07 156C505.158 156 505.241 155.911 505.317 155.734C505.405 155.557 505.45 155.265 505.45 154.86V148.248C505.45 147.843 505.405 147.558 505.317 147.393C505.241 147.216 505.158 147.121 505.07 147.108H507.388V154.86C507.388 155.265 507.426 155.557 507.502 155.734C507.59 155.911 507.679 156 507.768 156H505.07ZM513.098 156.19C512.224 156.19 511.59 156.006 511.198 155.639C510.805 155.259 510.609 154.645 510.609 153.796V148.438H508.899V147.108C509.481 147.108 509.937 147.038 510.267 146.899C510.596 146.747 510.83 146.487 510.97 146.12C511.109 145.753 511.179 145.24 511.179 144.581H512.547V147.108H516.176C516.087 147.235 515.998 147.425 515.91 147.678C515.834 147.919 515.796 148.172 515.796 148.438H512.547V153.511C512.547 154.094 512.654 154.461 512.87 154.613C513.085 154.765 513.357 154.841 513.687 154.841C514.155 154.841 514.58 154.702 514.96 154.423C515.34 154.144 515.612 153.872 515.777 153.606V154.195L515.967 155.278C515.777 155.481 515.435 155.683 514.941 155.886C514.447 156.089 513.832 156.19 513.098 156.19ZM520.87 156.19C519.49 156.19 518.521 155.943 517.963 155.449C517.406 154.942 517.127 154.265 517.127 153.416C517.127 152.529 517.463 151.833 518.134 151.326C518.806 150.819 519.832 150.566 521.212 150.566C522.2 150.566 522.992 150.667 523.587 150.87C524.183 151.06 524.582 151.225 524.784 151.364C524.772 150.237 524.556 149.439 524.138 148.97C523.733 148.489 523.011 148.248 521.972 148.248C521.225 148.248 520.554 148.337 519.958 148.514C519.376 148.679 518.907 148.862 518.552 149.065C518.198 149.255 517.976 149.394 517.887 149.483V149.103L517.697 147.678C517.811 147.627 518.058 147.545 518.438 147.431C518.818 147.304 519.319 147.19 519.939 147.089C520.56 146.975 521.288 146.918 522.124 146.918C523.72 146.918 524.886 147.26 525.62 147.944C526.355 148.615 526.722 149.654 526.722 151.06V154.86C526.722 155.215 526.76 155.474 526.836 155.639C526.925 155.791 527.014 155.911 527.102 156H524.784V155.43L524.822 155.069L524.784 155.05C524.366 155.43 523.822 155.715 523.15 155.905C522.479 156.095 521.719 156.19 520.87 156.19ZM521.497 154.841C522.523 154.841 523.328 154.695 523.91 154.404C524.493 154.1 524.784 153.72 524.784 153.264C524.784 152.884 524.531 152.561 524.024 152.295C523.53 152.029 522.758 151.896 521.706 151.896C520.731 151.896 520.041 152.023 519.635 152.276C519.243 152.529 519.046 152.909 519.046 153.416C519.046 153.91 519.236 154.271 519.616 154.499C520.009 154.727 520.636 154.841 521.497 154.841ZM528.821 156C528.91 156 528.992 155.911 529.068 155.734C529.157 155.557 529.201 155.265 529.201 154.86V144.03C529.201 143.625 529.157 143.34 529.068 143.175C528.992 142.998 528.91 142.903 528.821 142.89C529.379 142.89 529.86 142.852 530.265 142.776C530.683 142.687 530.975 142.599 531.139 142.51V154.86C531.139 155.265 531.177 155.557 531.253 155.734C531.342 155.911 531.431 156 531.519 156H528.821ZM336.284 180C336.372 180 336.461 179.911 336.55 179.734C336.638 179.557 336.683 179.265 336.683 178.86V169.74C336.683 169.335 336.638 169.05 336.55 168.885C336.461 168.708 336.372 168.613 336.284 168.6H346.981V168.98L347.361 170.804C347.044 170.665 346.487 170.519 345.689 170.367C344.891 170.202 343.928 170.12 342.801 170.12H339.59C339.21 170.12 338.982 170.152 338.906 170.215C338.842 170.266 338.811 170.424 338.811 170.69V172.856C338.811 173.135 338.842 173.299 338.906 173.35C338.982 173.401 339.203 173.426 339.571 173.426H342.706C343.44 173.426 344.029 173.388 344.473 173.312C344.929 173.223 345.226 173.135 345.366 173.046C345.277 173.287 345.188 173.597 345.1 173.977C345.024 174.344 344.986 174.667 344.986 174.946H339.571C339.203 174.946 338.982 174.971 338.906 175.022C338.842 175.06 338.811 175.225 338.811 175.516V177.872C338.811 178.163 338.842 178.334 338.906 178.385C338.969 178.436 339.191 178.461 339.571 178.461H345.1C345.834 178.461 346.423 178.379 346.867 178.214C347.323 178.037 347.62 177.866 347.76 177.701L347.38 179.411V180H336.284ZM348.284 180C348.423 180 348.626 179.911 348.892 179.734C349.158 179.557 349.449 179.272 349.766 178.879C350.007 178.588 350.285 178.239 350.602 177.834C350.931 177.429 351.261 177.023 351.59 176.618C351.919 176.2 352.211 175.839 352.464 175.535C352.198 175.231 351.888 174.876 351.533 174.471C351.178 174.066 350.83 173.667 350.488 173.274C350.159 172.881 349.874 172.552 349.633 172.286C349.278 171.868 348.987 171.57 348.759 171.393C348.531 171.216 348.373 171.121 348.284 171.108H351.4C351.299 171.121 351.254 171.222 351.267 171.412C351.292 171.589 351.463 171.881 351.78 172.286C351.919 172.463 352.103 172.691 352.331 172.97C352.559 173.236 352.8 173.508 353.053 173.787C353.306 174.066 353.534 174.319 353.737 174.547H353.775C353.952 174.332 354.155 174.085 354.383 173.806C354.624 173.527 354.858 173.249 355.086 172.97C355.327 172.691 355.523 172.451 355.675 172.248C355.979 171.843 356.144 171.551 356.169 171.374C356.194 171.197 356.156 171.108 356.055 171.108H359.228C359.101 171.108 358.905 171.197 358.639 171.374C358.386 171.539 358.094 171.824 357.765 172.229C357.537 172.52 357.252 172.869 356.91 173.274C356.568 173.667 356.22 174.066 355.865 174.471C355.523 174.876 355.213 175.231 354.934 175.535C355.213 175.826 355.536 176.175 355.903 176.58C356.27 176.973 356.631 177.372 356.986 177.777C357.341 178.17 357.632 178.518 357.86 178.822C358.202 179.253 358.493 179.557 358.734 179.734C358.975 179.911 359.139 180 359.228 180H356.112C356.226 180 356.27 179.911 356.245 179.734C356.232 179.557 356.061 179.253 355.732 178.822C355.593 178.632 355.403 178.398 355.162 178.119C354.921 177.84 354.668 177.549 354.402 177.245C354.149 176.941 353.914 176.675 353.699 176.447H353.661C353.484 176.675 353.275 176.941 353.034 177.245C352.793 177.549 352.559 177.847 352.331 178.138C352.116 178.417 351.932 178.657 351.78 178.86C351.463 179.265 351.292 179.557 351.267 179.734C351.254 179.911 351.299 180 351.4 180H348.284ZM360.25 184.218C360.339 184.218 360.421 184.129 360.497 183.952C360.586 183.775 360.63 183.483 360.63 183.078V172.248C360.63 171.843 360.586 171.558 360.497 171.393C360.421 171.216 360.339 171.121 360.25 171.108H362.568V171.488L362.53 171.849L362.568 171.887C362.822 171.646 363.202 171.425 363.708 171.222C364.228 171.019 364.836 170.918 365.532 170.918C366.71 170.918 367.641 171.127 368.325 171.545C369.009 171.95 369.497 172.501 369.788 173.198C370.092 173.895 370.244 174.686 370.244 175.573C370.244 176.447 370.099 177.232 369.807 177.929C369.516 178.626 369.028 179.177 368.344 179.582C367.66 179.987 366.723 180.19 365.532 180.19C364.836 180.19 364.247 180.108 363.765 179.943C363.297 179.778 362.898 179.55 362.568 179.259L362.53 179.278L362.568 179.639V183.078C362.568 183.483 362.606 183.775 362.682 183.952C362.771 184.129 362.86 184.218 362.948 184.218H360.25ZM365.342 178.841C366.128 178.841 366.736 178.714 367.166 178.461C367.597 178.208 367.895 177.84 368.059 177.359C368.224 176.865 368.306 176.27 368.306 175.573C368.306 174.876 368.218 174.281 368.04 173.787C367.876 173.293 367.578 172.913 367.147 172.647C366.729 172.381 366.128 172.248 365.342 172.248C364.582 172.248 364 172.4 363.594 172.704C363.202 173.008 362.929 173.413 362.777 173.92C362.638 174.427 362.568 174.984 362.568 175.592C362.568 176.213 362.644 176.77 362.796 177.264C362.961 177.758 363.24 178.144 363.632 178.423C364.038 178.702 364.608 178.841 365.342 178.841ZM376.56 180.19C375.56 180.19 374.736 180.076 374.09 179.848C373.444 179.607 372.938 179.278 372.57 178.86C372.203 178.442 371.943 177.954 371.791 177.397C371.652 176.84 371.582 176.232 371.582 175.573C371.582 174.142 371.988 173.008 372.798 172.172C373.622 171.336 374.838 170.918 376.446 170.918C377.384 170.918 378.137 171.045 378.707 171.298C379.29 171.551 379.727 171.887 380.018 172.305C380.322 172.723 380.525 173.179 380.626 173.673C380.74 174.154 380.797 174.629 380.797 175.098V175.991C380.797 175.953 380.62 175.915 380.265 175.877C379.923 175.826 379.341 175.801 378.517 175.801H373.52C373.52 176.738 373.799 177.479 374.356 178.024C374.914 178.569 375.743 178.841 376.845 178.841C377.795 178.841 378.574 178.727 379.182 178.499C379.803 178.258 380.215 178.024 380.417 177.796V178.176L380.607 179.43C380.329 179.595 379.835 179.766 379.125 179.943C378.429 180.108 377.574 180.19 376.56 180.19ZM374.28 174.547H378.897C378.897 174.218 378.828 173.876 378.688 173.521C378.549 173.166 378.302 172.869 377.947 172.628C377.593 172.375 377.092 172.248 376.446 172.248C375.623 172.248 374.964 172.444 374.47 172.837C373.989 173.23 373.748 173.673 373.748 174.167C373.748 174.294 373.786 174.389 373.862 174.452C373.938 174.515 374.078 174.547 374.28 174.547ZM382.423 180C382.512 180 382.594 179.911 382.67 179.734C382.759 179.557 382.803 179.265 382.803 178.86V172.438C382.803 172.033 382.759 171.748 382.67 171.583C382.594 171.406 382.512 171.311 382.423 171.298C382.98 171.298 383.462 171.26 383.867 171.184C384.285 171.095 384.576 171.007 384.741 170.918V171.868L384.703 172.191L384.741 172.229C385.032 171.862 385.406 171.551 385.862 171.298C386.331 171.045 386.907 170.918 387.591 170.918C388.186 170.918 388.699 171.007 389.13 171.184C389.573 171.349 389.89 171.52 390.08 171.697L389.7 173.293V173.863C389.535 173.66 389.295 173.451 388.978 173.236C388.674 173.008 388.326 172.818 387.933 172.666C387.54 172.514 387.122 172.438 386.679 172.438C386.172 172.438 385.723 172.641 385.33 173.046C384.937 173.451 384.741 174.123 384.741 175.06V178.86C384.741 179.265 384.779 179.557 384.855 179.734C384.944 179.911 385.032 180 385.121 180H382.423ZM392.488 169.284C392.121 169.284 391.836 169.183 391.633 168.98C391.431 168.765 391.329 168.518 391.329 168.239C391.329 167.948 391.424 167.701 391.614 167.498C391.817 167.295 392.108 167.194 392.488 167.194C392.868 167.194 393.153 167.295 393.343 167.498C393.546 167.701 393.647 167.948 393.647 168.239C393.647 168.518 393.546 168.765 393.343 168.98C393.141 169.183 392.856 169.284 392.488 169.284ZM391.329 180C391.418 180 391.5 179.911 391.576 179.734C391.665 179.557 391.709 179.265 391.709 178.86V172.248C391.709 171.843 391.665 171.558 391.576 171.393C391.5 171.216 391.418 171.121 391.329 171.108H393.647V178.86C393.647 179.265 393.685 179.557 393.761 179.734C393.85 179.911 393.939 180 394.027 180H391.329ZM400.422 180.19C399.421 180.19 398.598 180.076 397.952 179.848C397.306 179.607 396.799 179.278 396.432 178.86C396.064 178.442 395.805 177.954 395.653 177.397C395.513 176.84 395.444 176.232 395.444 175.573C395.444 174.142 395.849 173.008 396.66 172.172C397.483 171.336 398.699 170.918 400.308 170.918C401.245 170.918 401.999 171.045 402.569 171.298C403.151 171.551 403.588 171.887 403.88 172.305C404.184 172.723 404.386 173.179 404.488 173.673C404.602 174.154 404.659 174.629 404.659 175.098V175.991C404.659 175.953 404.481 175.915 404.127 175.877C403.785 175.826 403.202 175.801 402.379 175.801H397.382C397.382 176.738 397.66 177.479 398.218 178.024C398.775 178.569 399.605 178.841 400.707 178.841C401.657 178.841 402.436 178.727 403.044 178.499C403.664 178.258 404.076 178.024 404.279 177.796V178.176L404.469 179.43C404.19 179.595 403.696 179.766 402.987 179.943C402.29 180.108 401.435 180.19 400.422 180.19ZM398.142 174.547H402.759C402.759 174.218 402.689 173.876 402.55 173.521C402.41 173.166 402.163 172.869 401.809 172.628C401.454 172.375 400.954 172.248 400.308 172.248C399.484 172.248 398.826 172.444 398.332 172.837C397.85 173.23 397.61 173.673 397.61 174.167C397.61 174.294 397.648 174.389 397.724 174.452C397.8 174.515 397.939 174.547 398.142 174.547ZM406.284 180C406.373 180 406.455 179.911 406.531 179.734C406.62 179.557 406.664 179.265 406.664 178.86V172.438C406.664 172.033 406.62 171.748 406.531 171.583C406.455 171.406 406.373 171.311 406.284 171.298C406.842 171.298 407.323 171.26 407.728 171.184C408.146 171.095 408.438 171.007 408.602 170.918V172.077L408.564 172.324L408.602 172.362C408.881 172.007 409.293 171.678 409.837 171.374C410.382 171.07 411.104 170.918 412.003 170.918C413.181 170.918 414.081 171.254 414.701 171.925C415.335 172.596 415.651 173.648 415.651 175.079V178.86C415.651 179.265 415.689 179.557 415.765 179.734C415.854 179.911 415.943 180 416.031 180H413.333C413.422 180 413.504 179.911 413.58 179.734C413.669 179.557 413.713 179.265 413.713 178.86V175.136C413.713 174.389 413.618 173.806 413.428 173.388C413.238 172.97 412.972 172.679 412.63 172.514C412.301 172.337 411.915 172.248 411.471 172.248C411.003 172.248 410.547 172.349 410.103 172.552C409.66 172.755 409.299 173.078 409.02 173.521C408.742 173.964 408.602 174.56 408.602 175.307V178.86C408.602 179.265 408.64 179.557 408.716 179.734C408.805 179.911 408.894 180 408.982 180H406.284ZM422.598 180.19C421.281 180.19 420.242 179.987 419.482 179.582C418.735 179.177 418.209 178.626 417.905 177.929C417.601 177.232 417.449 176.447 417.449 175.573C417.449 174.028 417.867 172.869 418.703 172.096C419.552 171.323 420.787 170.937 422.408 170.937C423.396 170.937 424.226 171 424.897 171.127C425.569 171.254 426.031 171.374 426.284 171.488V171.868L426.664 173.521C426.411 173.255 425.93 172.983 425.22 172.704C424.511 172.413 423.618 172.267 422.541 172.267C421.997 172.267 421.477 172.362 420.983 172.552C420.502 172.729 420.109 173.059 419.805 173.54C419.514 174.021 419.368 174.705 419.368 175.592C419.368 176.453 419.527 177.125 419.843 177.606C420.16 178.075 420.597 178.398 421.154 178.575C421.712 178.752 422.345 178.841 423.054 178.841C423.954 178.841 424.695 178.702 425.277 178.423C425.873 178.144 426.272 177.872 426.474 177.606V177.986L426.664 179.278C426.424 179.481 425.949 179.683 425.239 179.886C424.543 180.089 423.662 180.19 422.598 180.19ZM433.059 180.19C432.059 180.19 431.235 180.076 430.589 179.848C429.943 179.607 429.437 179.278 429.069 178.86C428.702 178.442 428.442 177.954 428.29 177.397C428.151 176.84 428.081 176.232 428.081 175.573C428.081 174.142 428.487 173.008 429.297 172.172C430.121 171.336 431.337 170.918 432.945 170.918C433.883 170.918 434.636 171.045 435.206 171.298C435.789 171.551 436.226 171.887 436.517 172.305C436.821 172.723 437.024 173.179 437.125 173.673C437.239 174.154 437.296 174.629 437.296 175.098V175.991C437.296 175.953 437.119 175.915 436.764 175.877C436.422 175.826 435.84 175.801 435.016 175.801H430.019C430.019 176.738 430.298 177.479 430.855 178.024C431.413 178.569 432.242 178.841 433.344 178.841C434.294 178.841 435.073 178.727 435.681 178.499C436.302 178.258 436.714 178.024 436.916 177.796V178.176L437.106 179.43C436.828 179.595 436.334 179.766 435.624 179.943C434.928 180.108 434.073 180.19 433.059 180.19ZM430.779 174.547H435.396C435.396 174.218 435.327 173.876 435.187 173.521C435.048 173.166 434.801 172.869 434.446 172.628C434.092 172.375 433.591 172.248 432.945 172.248C432.122 172.248 431.463 172.444 430.969 172.837C430.488 173.23 430.247 173.673 430.247 174.167C430.247 174.294 430.285 174.389 430.361 174.452C430.437 174.515 430.577 174.547 430.779 174.547ZM443.843 180.19C442.652 180.19 441.652 180.127 440.841 180C440.043 179.873 439.498 179.747 439.207 179.62V179.24L438.808 177.606C439.137 177.872 439.714 178.151 440.537 178.442C441.373 178.721 442.386 178.86 443.577 178.86C444.362 178.86 444.951 178.809 445.344 178.708C445.737 178.594 445.996 178.448 446.123 178.271C446.25 178.081 446.313 177.872 446.313 177.644C446.313 177.378 446.218 177.169 446.028 177.017C445.851 176.852 445.509 176.719 445.002 176.618C444.508 176.504 443.773 176.39 442.798 176.276C441.734 176.149 440.911 175.966 440.328 175.725C439.758 175.484 439.365 175.18 439.15 174.813C438.935 174.433 438.827 173.983 438.827 173.464C438.827 173.059 438.935 172.66 439.15 172.267C439.365 171.874 439.764 171.551 440.347 171.298C440.942 171.045 441.785 170.918 442.874 170.918C444.052 170.918 445.04 170.981 445.838 171.108C446.649 171.235 447.2 171.361 447.491 171.488V171.868L447.871 173.312C447.554 173.084 446.978 172.85 446.142 172.609C445.306 172.368 444.299 172.248 443.121 172.248C442.184 172.248 441.557 172.356 441.24 172.571C440.923 172.774 440.765 173.04 440.765 173.369C440.765 173.559 440.803 173.73 440.879 173.882C440.955 174.021 441.107 174.148 441.335 174.262C441.576 174.376 441.93 174.477 442.399 174.566C442.88 174.655 443.52 174.743 444.318 174.832C445.395 174.946 446.212 175.123 446.769 175.364C447.326 175.605 447.706 175.909 447.909 176.276C448.124 176.631 448.232 177.049 448.232 177.53C448.232 178.049 448.086 178.512 447.795 178.917C447.516 179.31 447.054 179.62 446.408 179.848C445.762 180.076 444.907 180.19 443.843 180.19Z" fill="white"/>
</svg>
