<svg width="409" height="353" viewBox="0 0 409 353" fill="none" xmlns="http://www.w3.org/2000/svg">
<rect width="409" height="353" rx="4" fill="#D47C3C"/>
<path d="M64.8988 158C64.9875 158 65.0761 157.911 65.1648 157.734C65.2535 157.557 65.2978 157.265 65.2978 156.86V147.74C65.2978 147.335 65.2535 147.05 65.1648 146.885C65.0761 146.708 64.9875 146.613 64.8988 146.6H70.8648C71.9921 146.6 72.9295 146.708 73.6768 146.923C74.4368 147.138 75.0448 147.436 75.5008 147.816C75.9695 148.196 76.3241 148.633 76.5648 149.127C76.8055 149.608 76.9638 150.121 77.0398 150.666C77.1285 151.211 77.1728 151.762 77.1728 152.319C77.1728 152.826 77.1285 153.351 77.0398 153.896C76.9638 154.428 76.7991 154.941 76.5458 155.435C76.3051 155.916 75.9505 156.353 75.4818 156.746C75.0258 157.126 74.4178 157.43 73.6578 157.658C72.9105 157.886 71.9795 158 70.8648 158H64.8988ZM68.1858 156.461H70.5228C72.1441 156.461 73.3031 156.144 73.9998 155.511C74.6965 154.878 75.0448 153.858 75.0448 152.452V152.11C75.0448 151.122 74.9055 150.343 74.6268 149.773C74.3481 149.19 73.8795 148.779 73.2208 148.538C72.5621 148.285 71.6628 148.158 70.5228 148.158H68.1858C67.8185 148.158 67.5968 148.183 67.5208 148.234C67.4575 148.272 67.4258 148.424 67.4258 148.69V155.891C67.4258 156.17 67.4575 156.334 67.5208 156.385C67.5968 156.436 67.8185 156.461 68.1858 156.461ZM83.6703 158.19C82.6697 158.19 81.8463 158.076 81.2003 157.848C80.5543 157.607 80.0477 157.278 79.6803 156.86C79.313 156.442 79.0533 155.954 78.9013 155.397C78.762 154.84 78.6923 154.232 78.6923 153.573C78.6923 152.142 79.0977 151.008 79.9083 150.172C80.7317 149.336 81.9477 148.918 83.5563 148.918C84.4937 148.918 85.2473 149.045 85.8173 149.298C86.4 149.551 86.837 149.887 87.1283 150.305C87.4323 150.723 87.635 151.179 87.7363 151.673C87.8503 152.154 87.9073 152.629 87.9073 153.098V153.991C87.9073 153.953 87.73 153.915 87.3753 153.877C87.0333 153.826 86.4507 153.801 85.6273 153.801H80.6303C80.6303 154.738 80.909 155.479 81.4663 156.024C82.0237 156.569 82.8533 156.841 83.9553 156.841C84.9053 156.841 85.6843 156.727 86.2923 156.499C86.913 156.258 87.3247 156.024 87.5273 155.796V156.176L87.7173 157.43C87.4387 157.595 86.9447 157.766 86.2353 157.943C85.5387 158.108 84.6837 158.19 83.6703 158.19ZM81.3903 152.547H86.0073C86.0073 152.218 85.9377 151.876 85.7983 151.521C85.659 151.166 85.412 150.869 85.0573 150.628C84.7027 150.375 84.2023 150.248 83.5563 150.248C82.733 150.248 82.0743 150.444 81.5803 150.837C81.099 151.23 80.8583 151.673 80.8583 152.167C80.8583 152.294 80.8963 152.389 80.9723 152.452C81.0483 152.515 81.1877 152.547 81.3903 152.547ZM94.4542 158.19C93.2635 158.19 92.2628 158.127 91.4522 158C90.6542 157.873 90.1095 157.747 89.8182 157.62V157.24L89.4192 155.606C89.7485 155.872 90.3248 156.151 91.1482 156.442C91.9842 156.721 92.9975 156.86 94.1882 156.86C94.9735 156.86 95.5625 156.809 95.9552 156.708C96.3478 156.594 96.6075 156.448 96.7342 156.271C96.8608 156.081 96.9242 155.872 96.9242 155.644C96.9242 155.378 96.8292 155.169 96.6392 155.017C96.4618 154.852 96.1198 154.719 95.6132 154.618C95.1192 154.504 94.3845 154.39 93.4092 154.276C92.3452 154.149 91.5218 153.966 90.9392 153.725C90.3692 153.484 89.9765 153.18 89.7612 152.813C89.5458 152.433 89.4382 151.983 89.4382 151.464C89.4382 151.059 89.5458 150.66 89.7612 150.267C89.9765 149.874 90.3755 149.551 90.9582 149.298C91.5535 149.045 92.3958 148.918 93.4852 148.918C94.6632 148.918 95.6512 148.981 96.4492 149.108C97.2598 149.235 97.8108 149.361 98.1022 149.488V149.868L98.4822 151.312C98.1655 151.084 97.5892 150.85 96.7532 150.609C95.9172 150.368 94.9102 150.248 93.7322 150.248C92.7948 150.248 92.1678 150.356 91.8512 150.571C91.5345 150.774 91.3762 151.04 91.3762 151.369C91.3762 151.559 91.4142 151.73 91.4902 151.882C91.5662 152.021 91.7182 152.148 91.9462 152.262C92.1868 152.376 92.5415 152.477 93.0102 152.566C93.4915 152.655 94.1312 152.743 94.9292 152.832C96.0058 152.946 96.8228 153.123 97.3802 153.364C97.9375 153.605 98.3175 153.909 98.5202 154.276C98.7355 154.631 98.8432 155.049 98.8432 155.53C98.8432 156.049 98.6975 156.512 98.4062 156.917C98.1275 157.31 97.6652 157.62 97.0192 157.848C96.3732 158.076 95.5182 158.19 94.4542 158.19ZM101.528 147.284C101.161 147.284 100.876 147.183 100.673 146.98C100.47 146.765 100.369 146.518 100.369 146.239C100.369 145.948 100.464 145.701 100.654 145.498C100.857 145.295 101.148 145.194 101.528 145.194C101.908 145.194 102.193 145.295 102.383 145.498C102.586 145.701 102.687 145.948 102.687 146.239C102.687 146.518 102.586 146.765 102.383 146.98C102.18 147.183 101.895 147.284 101.528 147.284ZM100.369 158C100.458 158 100.54 157.911 100.616 157.734C100.705 157.557 100.749 157.265 100.749 156.86V150.248C100.749 149.843 100.705 149.558 100.616 149.393C100.54 149.216 100.458 149.121 100.369 149.108H102.687V156.86C102.687 157.265 102.725 157.557 102.801 157.734C102.89 157.911 102.978 158 103.067 158H100.369ZM109.328 162.636C108.226 162.636 107.264 162.528 106.44 162.313C105.617 162.098 105.028 161.889 104.673 161.686L105.053 159.976V159.425C105.231 159.691 105.509 159.97 105.889 160.261C106.269 160.552 106.744 160.799 107.314 161.002C107.884 161.205 108.53 161.306 109.252 161.306C110.101 161.306 110.728 161.167 111.133 160.888C111.551 160.609 111.824 160.223 111.95 159.729C112.09 159.235 112.159 158.671 112.159 158.038V157.335L112.197 156.993L112.159 156.955C111.906 157.272 111.513 157.557 110.981 157.81C110.462 158.063 109.822 158.19 109.062 158.19C107.859 158.19 106.922 157.987 106.25 157.582C105.592 157.177 105.129 156.626 104.863 155.929C104.61 155.232 104.483 154.447 104.483 153.573C104.483 152.686 104.61 151.895 104.863 151.198C105.129 150.501 105.592 149.95 106.25 149.545C106.922 149.127 107.859 148.918 109.062 148.918C109.822 148.918 110.456 149.019 110.962 149.222C111.469 149.425 111.868 149.684 112.159 150.001L112.197 149.982L112.159 149.621V149.108H114.477C114.389 149.121 114.3 149.216 114.211 149.393C114.135 149.57 114.097 149.868 114.097 150.286V157.563C114.097 159.4 113.705 160.704 112.919 161.477C112.147 162.25 110.95 162.636 109.328 162.636ZM109.195 156.841C109.981 156.841 110.589 156.721 111.019 156.48C111.45 156.227 111.748 155.859 111.912 155.378C112.077 154.884 112.159 154.282 112.159 153.573C112.159 152.876 112.071 152.281 111.893 151.787C111.729 151.293 111.431 150.913 111 150.647C110.582 150.381 109.981 150.248 109.195 150.248C108.131 150.248 107.397 150.552 106.991 151.16C106.599 151.768 106.402 152.579 106.402 153.592C106.402 154.605 106.599 155.403 106.991 155.986C107.384 156.556 108.119 156.841 109.195 156.841ZM116.308 158C116.396 158 116.479 157.911 116.555 157.734C116.643 157.557 116.688 157.265 116.688 156.86V150.438C116.688 150.033 116.643 149.748 116.555 149.583C116.479 149.406 116.396 149.311 116.308 149.298C116.865 149.298 117.346 149.26 117.752 149.184C118.17 149.095 118.461 149.007 118.626 148.918V150.077L118.588 150.324L118.626 150.362C118.904 150.007 119.316 149.678 119.861 149.374C120.405 149.07 121.127 148.918 122.027 148.918C123.205 148.918 124.104 149.254 124.725 149.925C125.358 150.596 125.675 151.648 125.675 153.079V156.86C125.675 157.265 125.713 157.557 125.789 157.734C125.877 157.911 125.966 158 126.055 158H123.357C123.445 158 123.528 157.911 123.604 157.734C123.692 157.557 123.737 157.265 123.737 156.86V153.136C123.737 152.389 123.642 151.806 123.452 151.388C123.262 150.97 122.996 150.679 122.654 150.514C122.324 150.337 121.938 150.248 121.495 150.248C121.026 150.248 120.57 150.349 120.127 150.552C119.683 150.755 119.322 151.078 119.044 151.521C118.765 151.964 118.626 152.56 118.626 153.307V156.86C118.626 157.265 118.664 157.557 118.74 157.734C118.828 157.911 118.917 158 119.006 158H116.308ZM132.451 158.19C131.45 158.19 130.627 158.076 129.981 157.848C129.335 157.607 128.828 157.278 128.461 156.86C128.093 156.442 127.834 155.954 127.682 155.397C127.542 154.84 127.473 154.232 127.473 153.573C127.473 152.142 127.878 151.008 128.689 150.172C129.512 149.336 130.728 148.918 132.337 148.918C133.274 148.918 134.028 149.045 134.598 149.298C135.18 149.551 135.617 149.887 135.909 150.305C136.213 150.723 136.415 151.179 136.517 151.673C136.631 152.154 136.688 152.629 136.688 153.098V153.991C136.688 153.953 136.51 153.915 136.156 153.877C135.814 153.826 135.231 153.801 134.408 153.801H129.411C129.411 154.738 129.689 155.479 130.247 156.024C130.804 156.569 131.634 156.841 132.736 156.841C133.686 156.841 134.465 156.727 135.073 156.499C135.693 156.258 136.105 156.024 136.308 155.796V156.176L136.498 157.43C136.219 157.595 135.725 157.766 135.016 157.943C134.319 158.108 133.464 158.19 132.451 158.19ZM130.171 152.547H134.788C134.788 152.218 134.718 151.876 134.579 151.521C134.439 151.166 134.192 150.869 133.838 150.628C133.483 150.375 132.983 150.248 132.337 150.248C131.513 150.248 130.855 150.444 130.361 150.837C129.879 151.23 129.639 151.673 129.639 152.167C129.639 152.294 129.677 152.389 129.753 152.452C129.829 152.515 129.968 152.547 130.171 152.547ZM138.313 158C138.402 158 138.484 157.911 138.56 157.734C138.649 157.557 138.693 157.265 138.693 156.86V150.438C138.693 150.033 138.649 149.748 138.56 149.583C138.484 149.406 138.402 149.311 138.313 149.298C138.871 149.298 139.352 149.26 139.757 149.184C140.175 149.095 140.467 149.007 140.631 148.918V149.868L140.593 150.191L140.631 150.229C140.923 149.862 141.296 149.551 141.752 149.298C142.221 149.045 142.797 148.918 143.481 148.918C144.077 148.918 144.59 149.007 145.02 149.184C145.464 149.349 145.78 149.52 145.97 149.697L145.59 151.293V151.863C145.426 151.66 145.185 151.451 144.868 151.236C144.564 151.008 144.216 150.818 143.823 150.666C143.431 150.514 143.013 150.438 142.569 150.438C142.063 150.438 141.613 150.641 141.22 151.046C140.828 151.451 140.631 152.123 140.631 153.06V156.86C140.631 157.265 140.669 157.557 140.745 157.734C140.834 157.911 140.923 158 141.011 158H138.313ZM155.641 158.19C154.982 158.19 154.349 158.108 153.741 157.943C153.133 157.766 152.633 157.455 152.24 157.012C151.86 156.569 151.67 155.948 151.67 155.15C151.67 154.542 151.809 154.023 152.088 153.592C152.379 153.161 152.721 152.813 153.114 152.547C153.519 152.268 153.906 152.059 154.273 151.92C154.64 151.781 154.906 151.686 155.071 151.635L155.09 151.597C154.761 151.293 154.488 150.919 154.273 150.476C154.058 150.02 153.95 149.526 153.95 148.994C153.95 148.259 154.235 147.645 154.805 147.151C155.388 146.657 156.192 146.41 157.218 146.41C158.295 146.41 159.08 146.657 159.574 147.151C160.081 147.632 160.334 148.247 160.334 148.994C160.334 149.488 160.214 149.925 159.973 150.305C159.745 150.685 159.454 151.008 159.099 151.274C158.744 151.527 158.39 151.73 158.035 151.882C158.288 152.123 158.592 152.376 158.947 152.642C159.302 152.908 159.669 153.174 160.049 153.44C160.429 153.706 160.765 153.966 161.056 154.219C161.132 154.118 161.227 153.921 161.341 153.63C161.468 153.326 161.531 152.94 161.531 152.471C161.531 152.104 161.487 151.838 161.398 151.673C161.309 151.508 161.221 151.42 161.132 151.407H164.761C164.672 151.407 164.552 151.496 164.4 151.673C164.248 151.85 164.083 152.142 163.906 152.547C163.589 153.269 163.298 153.826 163.032 154.219C162.779 154.612 162.525 154.947 162.272 155.226C162.538 155.479 162.779 155.707 162.994 155.91C163.209 156.113 163.507 156.366 163.887 156.67C164.495 157.151 164.976 157.493 165.331 157.696C165.698 157.899 165.939 158 166.053 158H161.968C161.993 157.899 161.936 157.721 161.797 157.468C161.658 157.202 161.385 156.885 160.98 156.518C160.79 156.645 160.467 156.847 160.011 157.126C159.568 157.392 158.985 157.639 158.263 157.867C157.541 158.082 156.667 158.19 155.641 158.19ZM156.971 150.989C157.275 150.888 157.585 150.666 157.902 150.324C158.219 149.969 158.377 149.526 158.377 148.994C158.377 148.627 158.282 148.329 158.092 148.101C157.915 147.86 157.623 147.74 157.218 147.74C156.825 147.74 156.528 147.879 156.325 148.158C156.135 148.424 156.04 148.741 156.04 149.108C156.04 149.615 156.148 150.026 156.363 150.343C156.591 150.647 156.794 150.862 156.971 150.989ZM155.869 156.86C156.844 156.86 157.674 156.721 158.358 156.442C159.042 156.163 159.568 155.853 159.935 155.511C159.631 155.22 159.257 154.909 158.814 154.58C158.383 154.251 157.94 153.921 157.484 153.592C157.041 153.25 156.642 152.933 156.287 152.642C156.059 152.731 155.799 152.845 155.508 152.984C155.217 153.111 154.932 153.275 154.653 153.478C154.387 153.681 154.165 153.928 153.988 154.219C153.811 154.498 153.722 154.84 153.722 155.245C153.722 155.777 153.906 156.182 154.273 156.461C154.64 156.727 155.172 156.86 155.869 156.86ZM171.941 158C172.029 158 172.118 157.911 172.207 157.734C172.295 157.557 172.34 157.265 172.34 156.86V147.74C172.34 147.335 172.295 147.05 172.207 146.885C172.118 146.708 172.029 146.613 171.941 146.6H177.907C179.034 146.6 179.971 146.708 180.719 146.923C181.479 147.138 182.087 147.436 182.543 147.816C183.011 148.196 183.366 148.633 183.607 149.127C183.847 149.608 184.006 150.121 184.082 150.666C184.17 151.211 184.215 151.762 184.215 152.319C184.215 152.826 184.17 153.351 184.082 153.896C184.006 154.428 183.841 154.941 183.588 155.435C183.347 155.916 182.992 156.353 182.524 156.746C182.068 157.126 181.46 157.43 180.7 157.658C179.952 157.886 179.021 158 177.907 158H171.941ZM175.228 156.461H177.565C179.186 156.461 180.345 156.144 181.042 155.511C181.738 154.878 182.087 153.858 182.087 152.452V152.11C182.087 151.122 181.947 150.343 181.669 149.773C181.39 149.19 180.921 148.779 180.263 148.538C179.604 148.285 178.705 148.158 177.565 148.158H175.228C174.86 148.158 174.639 148.183 174.563 148.234C174.499 148.272 174.468 148.424 174.468 148.69V155.891C174.468 156.17 174.499 156.334 174.563 156.385C174.639 156.436 174.86 156.461 175.228 156.461ZM190.712 158.19C189.712 158.19 188.888 158.076 188.242 157.848C187.596 157.607 187.09 157.278 186.722 156.86C186.355 156.442 186.095 155.954 185.943 155.397C185.804 154.84 185.734 154.232 185.734 153.573C185.734 152.142 186.14 151.008 186.95 150.172C187.774 149.336 188.99 148.918 190.598 148.918C191.536 148.918 192.289 149.045 192.859 149.298C193.442 149.551 193.879 149.887 194.17 150.305C194.474 150.723 194.677 151.179 194.778 151.673C194.892 152.154 194.949 152.629 194.949 153.098V153.991C194.949 153.953 194.772 153.915 194.417 153.877C194.075 153.826 193.493 153.801 192.669 153.801H187.672C187.672 154.738 187.951 155.479 188.508 156.024C189.066 156.569 189.895 156.841 190.997 156.841C191.947 156.841 192.726 156.727 193.334 156.499C193.955 156.258 194.367 156.024 194.569 155.796V156.176L194.759 157.43C194.481 157.595 193.987 157.766 193.277 157.943C192.581 158.108 191.726 158.19 190.712 158.19ZM188.432 152.547H193.049C193.049 152.218 192.98 151.876 192.84 151.521C192.701 151.166 192.454 150.869 192.099 150.628C191.745 150.375 191.244 150.248 190.598 150.248C189.775 150.248 189.116 150.444 188.622 150.837C188.141 151.23 187.9 151.673 187.9 152.167C187.9 152.294 187.938 152.389 188.014 152.452C188.09 152.515 188.23 152.547 188.432 152.547ZM199.04 158C199.129 158 199.186 157.918 199.211 157.753C199.249 157.576 199.192 157.278 199.04 156.86C198.977 156.695 198.856 156.404 198.679 155.986C198.502 155.568 198.293 155.087 198.052 154.542C197.811 153.985 197.564 153.427 197.311 152.87C197.058 152.3 196.823 151.787 196.608 151.331C196.393 150.862 196.222 150.514 196.095 150.286C195.88 149.881 195.683 149.589 195.506 149.412C195.329 149.222 195.202 149.121 195.126 149.108H198.223C198.109 149.108 198.033 149.197 197.995 149.374C197.957 149.551 198.033 149.855 198.223 150.286C198.324 150.501 198.464 150.831 198.641 151.274C198.818 151.705 199.015 152.205 199.23 152.775C199.458 153.332 199.686 153.902 199.914 154.485C200.155 155.068 200.37 155.612 200.56 156.119H200.579C200.782 155.6 201.003 155.049 201.244 154.466C201.485 153.871 201.719 153.288 201.947 152.718C202.175 152.148 202.378 151.648 202.555 151.217C202.745 150.774 202.884 150.451 202.973 150.248C203.15 149.843 203.22 149.551 203.182 149.374C203.144 149.197 203.074 149.108 202.973 149.108H205.956C205.88 149.108 205.76 149.197 205.595 149.374C205.443 149.539 205.266 149.824 205.063 150.229C204.949 150.444 204.784 150.774 204.569 151.217C204.354 151.66 204.113 152.161 203.847 152.718C203.594 153.263 203.34 153.807 203.087 154.352C202.846 154.897 202.631 155.397 202.441 155.853C202.264 156.296 202.143 156.632 202.08 156.86C201.966 157.278 201.922 157.576 201.947 157.753C201.972 157.918 202.017 158 202.08 158H199.04ZM211.03 158.19C210.029 158.19 209.206 158.076 208.56 157.848C207.914 157.607 207.407 157.278 207.04 156.86C206.672 156.442 206.413 155.954 206.261 155.397C206.121 154.84 206.052 154.232 206.052 153.573C206.052 152.142 206.457 151.008 207.268 150.172C208.091 149.336 209.307 148.918 210.916 148.918C211.853 148.918 212.607 149.045 213.177 149.298C213.759 149.551 214.196 149.887 214.488 150.305C214.792 150.723 214.994 151.179 215.096 151.673C215.21 152.154 215.267 152.629 215.267 153.098V153.991C215.267 153.953 215.089 153.915 214.735 153.877C214.393 153.826 213.81 153.801 212.987 153.801H207.99C207.99 154.738 208.268 155.479 208.826 156.024C209.383 156.569 210.213 156.841 211.315 156.841C212.265 156.841 213.044 156.727 213.652 156.499C214.272 156.258 214.684 156.024 214.887 155.796V156.176L215.077 157.43C214.798 157.595 214.304 157.766 213.595 157.943C212.898 158.108 212.043 158.19 211.03 158.19ZM208.75 152.547H213.367C213.367 152.218 213.297 151.876 213.158 151.521C213.018 151.166 212.771 150.869 212.417 150.628C212.062 150.375 211.562 150.248 210.916 150.248C210.092 150.248 209.434 150.444 208.94 150.837C208.458 151.23 208.218 151.673 208.218 152.167C208.218 152.294 208.256 152.389 208.332 152.452C208.408 152.515 208.547 152.547 208.75 152.547ZM216.969 158C217.057 158 217.14 157.911 217.216 157.734C217.304 157.557 217.349 157.265 217.349 156.86V146.03C217.349 145.625 217.304 145.34 217.216 145.175C217.14 144.998 217.057 144.903 216.969 144.89C217.526 144.89 218.007 144.852 218.413 144.776C218.831 144.687 219.122 144.599 219.287 144.51V156.86C219.287 157.265 219.325 157.557 219.401 157.734C219.489 157.911 219.578 158 219.667 158H216.969ZM226.187 158.19C224.92 158.19 223.926 157.987 223.204 157.582C222.495 157.177 221.994 156.626 221.703 155.929C221.424 155.232 221.285 154.447 221.285 153.573C221.285 152.686 221.431 151.895 221.722 151.198C222.026 150.501 222.533 149.95 223.242 149.545C223.951 149.127 224.933 148.918 226.187 148.918C227.441 148.918 228.423 149.127 229.132 149.545C229.841 149.95 230.342 150.501 230.633 151.198C230.937 151.895 231.089 152.686 231.089 153.573C231.089 154.447 230.943 155.232 230.652 155.929C230.373 156.626 229.879 157.177 229.17 157.582C228.461 157.987 227.466 158.19 226.187 158.19ZM226.187 156.841C226.972 156.841 227.58 156.714 228.011 156.461C228.442 156.208 228.739 155.84 228.904 155.359C229.069 154.865 229.151 154.27 229.151 153.573C229.151 152.876 229.062 152.281 228.885 151.787C228.72 151.293 228.423 150.913 227.992 150.647C227.574 150.381 226.972 150.248 226.187 150.248C225.414 150.248 224.813 150.387 224.382 150.666C223.951 150.932 223.647 151.318 223.47 151.825C223.305 152.319 223.223 152.908 223.223 153.592C223.223 154.263 223.305 154.846 223.47 155.34C223.635 155.821 223.932 156.195 224.363 156.461C224.794 156.714 225.402 156.841 226.187 156.841ZM232.627 162.218C232.716 162.218 232.798 162.129 232.874 161.952C232.963 161.775 233.007 161.483 233.007 161.078V150.248C233.007 149.843 232.963 149.558 232.874 149.393C232.798 149.216 232.716 149.121 232.627 149.108H234.945V149.488L234.907 149.849L234.945 149.887C235.198 149.646 235.578 149.425 236.085 149.222C236.604 149.019 237.212 148.918 237.909 148.918C239.087 148.918 240.018 149.127 240.702 149.545C241.386 149.95 241.874 150.501 242.165 151.198C242.469 151.895 242.621 152.686 242.621 153.573C242.621 154.447 242.475 155.232 242.184 155.929C241.893 156.626 241.405 157.177 240.721 157.582C240.037 157.987 239.1 158.19 237.909 158.19C237.212 158.19 236.623 158.108 236.142 157.943C235.673 157.778 235.274 157.55 234.945 157.259L234.907 157.278L234.945 157.639V161.078C234.945 161.483 234.983 161.775 235.059 161.952C235.148 162.129 235.236 162.218 235.325 162.218H232.627ZM237.719 156.841C238.504 156.841 239.112 156.714 239.543 156.461C239.974 156.208 240.271 155.84 240.436 155.359C240.601 154.865 240.683 154.27 240.683 153.573C240.683 152.876 240.594 152.281 240.417 151.787C240.252 151.293 239.955 150.913 239.524 150.647C239.106 150.381 238.504 150.248 237.719 150.248C236.959 150.248 236.376 150.4 235.971 150.704C235.578 151.008 235.306 151.413 235.154 151.92C235.015 152.427 234.945 152.984 234.945 153.592C234.945 154.213 235.021 154.77 235.173 155.264C235.338 155.758 235.616 156.144 236.009 156.423C236.414 156.702 236.984 156.841 237.719 156.841ZM248.937 158.19C247.936 158.19 247.113 158.076 246.467 157.848C245.821 157.607 245.314 157.278 244.947 156.86C244.58 156.442 244.32 155.954 244.168 155.397C244.029 154.84 243.959 154.232 243.959 153.573C243.959 152.142 244.364 151.008 245.175 150.172C245.998 149.336 247.214 148.918 248.823 148.918C249.76 148.918 250.514 149.045 251.084 149.298C251.667 149.551 252.104 149.887 252.395 150.305C252.699 150.723 252.902 151.179 253.003 151.673C253.117 152.154 253.174 152.629 253.174 153.098V153.991C253.174 153.953 252.997 153.915 252.642 153.877C252.3 153.826 251.717 153.801 250.894 153.801H245.897C245.897 154.738 246.176 155.479 246.733 156.024C247.29 156.569 248.12 156.841 249.222 156.841C250.172 156.841 250.951 156.727 251.559 156.499C252.18 156.258 252.591 156.024 252.794 155.796V156.176L252.984 157.43C252.705 157.595 252.211 157.766 251.502 157.943C250.805 158.108 249.95 158.19 248.937 158.19ZM246.657 152.547H251.274C251.274 152.218 251.204 151.876 251.065 151.521C250.926 151.166 250.679 150.869 250.324 150.628C249.969 150.375 249.469 150.248 248.823 150.248C248 150.248 247.341 150.444 246.847 150.837C246.366 151.23 246.125 151.673 246.125 152.167C246.125 152.294 246.163 152.389 246.239 152.452C246.315 152.515 246.454 152.547 246.657 152.547ZM254.8 158C254.888 158 254.971 157.911 255.047 157.734C255.135 157.557 255.18 157.265 255.18 156.86V150.438C255.18 150.033 255.135 149.748 255.047 149.583C254.971 149.406 254.888 149.311 254.8 149.298C255.357 149.298 255.838 149.26 256.244 149.184C256.662 149.095 256.953 149.007 257.118 148.918V149.868L257.08 150.191L257.118 150.229C257.409 149.862 257.783 149.551 258.239 149.298C258.707 149.045 259.284 148.918 259.968 148.918C260.563 148.918 261.076 149.007 261.507 149.184C261.95 149.349 262.267 149.52 262.457 149.697L262.077 151.293V151.863C261.912 151.66 261.671 151.451 261.355 151.236C261.051 151.008 260.702 150.818 260.31 150.666C259.917 150.514 259.499 150.438 259.056 150.438C258.549 150.438 258.099 150.641 257.707 151.046C257.314 151.451 257.118 152.123 257.118 153.06V156.86C257.118 157.265 257.156 157.557 257.232 157.734C257.32 157.911 257.409 158 257.498 158H254.8ZM272.963 158.19C271.697 158.19 270.702 157.987 269.98 157.582C269.271 157.177 268.771 156.626 268.479 155.929C268.201 155.232 268.061 154.447 268.061 153.573C268.061 152.686 268.207 151.895 268.498 151.198C268.802 150.501 269.309 149.95 270.018 149.545C270.728 149.127 271.709 148.918 272.963 148.918C274.217 148.918 275.199 149.127 275.908 149.545C276.618 149.95 277.118 150.501 277.409 151.198C277.713 151.895 277.865 152.686 277.865 153.573C277.865 154.447 277.72 155.232 277.428 155.929C277.15 156.626 276.656 157.177 275.946 157.582C275.237 157.987 274.243 158.19 272.963 158.19ZM272.963 156.841C273.749 156.841 274.357 156.714 274.787 156.461C275.218 156.208 275.516 155.84 275.68 155.359C275.845 154.865 275.927 154.27 275.927 153.573C275.927 152.876 275.839 152.281 275.661 151.787C275.497 151.293 275.199 150.913 274.768 150.647C274.35 150.381 273.749 150.248 272.963 150.248C272.191 150.248 271.589 150.387 271.158 150.666C270.728 150.932 270.424 151.318 270.246 151.825C270.082 152.319 269.999 152.908 269.999 153.592C269.999 154.263 270.082 154.846 270.246 155.34C270.411 155.821 270.709 156.195 271.139 156.461C271.57 156.714 272.178 156.841 272.963 156.841ZM279.859 158C279.948 158 280.03 157.911 280.106 157.734C280.195 157.557 280.239 157.265 280.239 156.86V150.438H278.529V149.108H280.429L280.448 149.07C280.41 149.007 280.334 148.798 280.22 148.443C280.106 148.076 280.049 147.645 280.049 147.151C280.049 146.15 280.334 145.428 280.904 144.985C281.474 144.542 282.266 144.32 283.279 144.32C283.963 144.32 284.584 144.364 285.141 144.453C285.711 144.529 286.123 144.611 286.376 144.7V145.099L286.756 146.581C286.756 146.594 286.756 146.6 286.756 146.6V146.581C286.718 146.505 286.541 146.397 286.224 146.258C285.92 146.106 285.528 145.973 285.046 145.859C284.565 145.732 284.058 145.669 283.526 145.669C282.994 145.669 282.602 145.789 282.348 146.03C282.108 146.258 281.987 146.701 281.987 147.36V148.538C281.987 148.817 282.013 148.981 282.063 149.032C282.114 149.083 282.285 149.108 282.576 149.108H285.806C285.73 149.235 285.648 149.425 285.559 149.678C285.471 149.919 285.426 150.172 285.426 150.438H282.177V156.86C282.177 157.265 282.222 157.557 282.31 157.734C282.399 157.911 282.481 158 282.557 158H279.859ZM291.897 158C291.986 158 292.074 157.911 292.163 157.734C292.252 157.557 292.296 157.265 292.296 156.86V147.74C292.296 147.335 292.252 147.05 292.163 146.885C292.074 146.708 291.986 146.613 291.897 146.6H297.863C298.99 146.6 299.928 146.708 300.675 146.923C301.435 147.138 302.043 147.436 302.499 147.816C302.968 148.196 303.322 148.633 303.563 149.127C303.804 149.608 303.962 150.121 304.038 150.666C304.127 151.211 304.171 151.762 304.171 152.319C304.171 152.826 304.127 153.351 304.038 153.896C303.962 154.428 303.797 154.941 303.544 155.435C303.303 155.916 302.949 156.353 302.48 156.746C302.024 157.126 301.416 157.43 300.656 157.658C299.909 157.886 298.978 158 297.863 158H291.897ZM295.184 156.461H297.521C299.142 156.461 300.301 156.144 300.998 155.511C301.695 154.878 302.043 153.858 302.043 152.452V152.11C302.043 151.122 301.904 150.343 301.625 149.773C301.346 149.19 300.878 148.779 300.219 148.538C299.56 148.285 298.661 148.158 297.521 148.158H295.184C294.817 148.158 294.595 148.183 294.519 148.234C294.456 148.272 294.424 148.424 294.424 148.69V155.891C294.424 156.17 294.456 156.334 294.519 156.385C294.595 156.436 294.817 156.461 295.184 156.461ZM307.058 147.284C306.691 147.284 306.406 147.183 306.203 146.98C306.001 146.765 305.899 146.518 305.899 146.239C305.899 145.948 305.994 145.701 306.184 145.498C306.387 145.295 306.678 145.194 307.058 145.194C307.438 145.194 307.723 145.295 307.913 145.498C308.116 145.701 308.217 145.948 308.217 146.239C308.217 146.518 308.116 146.765 307.913 146.98C307.711 147.183 307.426 147.284 307.058 147.284ZM305.899 158C305.988 158 306.07 157.911 306.146 157.734C306.235 157.557 306.279 157.265 306.279 156.86V150.248C306.279 149.843 306.235 149.558 306.146 149.393C306.07 149.216 305.988 149.121 305.899 149.108H308.217V156.86C308.217 157.265 308.255 157.557 308.331 157.734C308.42 157.911 308.509 158 308.597 158H305.899ZM314.859 162.636C313.757 162.636 312.794 162.528 311.971 162.313C311.147 162.098 310.558 161.889 310.204 161.686L310.584 159.976V159.425C310.761 159.691 311.04 159.97 311.42 160.261C311.8 160.552 312.275 160.799 312.845 161.002C313.415 161.205 314.061 161.306 314.783 161.306C315.631 161.306 316.258 161.167 316.664 160.888C317.082 160.609 317.354 160.223 317.481 159.729C317.62 159.235 317.69 158.671 317.69 158.038V157.335L317.728 156.993L317.69 156.955C317.436 157.272 317.044 157.557 316.512 157.81C315.992 158.063 315.353 158.19 314.593 158.19C313.389 158.19 312.452 157.987 311.781 157.582C311.122 157.177 310.66 156.626 310.394 155.929C310.14 155.232 310.014 154.447 310.014 153.573C310.014 152.686 310.14 151.895 310.394 151.198C310.66 150.501 311.122 149.95 311.781 149.545C312.452 149.127 313.389 148.918 314.593 148.918C315.353 148.918 315.986 149.019 316.493 149.222C316.999 149.425 317.398 149.684 317.69 150.001L317.728 149.982L317.69 149.621V149.108H320.008C319.919 149.121 319.83 149.216 319.742 149.393C319.666 149.57 319.628 149.868 319.628 150.286V157.563C319.628 159.4 319.235 160.704 318.45 161.477C317.677 162.25 316.48 162.636 314.859 162.636ZM314.726 156.841C315.511 156.841 316.119 156.721 316.55 156.48C316.98 156.227 317.278 155.859 317.443 155.378C317.607 154.884 317.69 154.282 317.69 153.573C317.69 152.876 317.601 152.281 317.424 151.787C317.259 151.293 316.961 150.913 316.531 150.647C316.113 150.381 315.511 150.248 314.726 150.248C313.662 150.248 312.927 150.552 312.522 151.16C312.129 151.768 311.933 152.579 311.933 153.592C311.933 154.605 312.129 155.403 312.522 155.986C312.914 156.556 313.649 156.841 314.726 156.841ZM322.997 147.284C322.63 147.284 322.345 147.183 322.142 146.98C321.939 146.765 321.838 146.518 321.838 146.239C321.838 145.948 321.933 145.701 322.123 145.498C322.326 145.295 322.617 145.194 322.997 145.194C323.377 145.194 323.662 145.295 323.852 145.498C324.055 145.701 324.156 145.948 324.156 146.239C324.156 146.518 324.055 146.765 323.852 146.98C323.649 147.183 323.364 147.284 322.997 147.284ZM321.838 158C321.927 158 322.009 157.911 322.085 157.734C322.174 157.557 322.218 157.265 322.218 156.86V150.248C322.218 149.843 322.174 149.558 322.085 149.393C322.009 149.216 321.927 149.121 321.838 149.108H324.156V156.86C324.156 157.265 324.194 157.557 324.27 157.734C324.359 157.911 324.447 158 324.536 158H321.838ZM329.866 158.19C328.992 158.19 328.359 158.006 327.966 157.639C327.573 157.259 327.377 156.645 327.377 155.796V150.438H325.667V149.108C326.25 149.108 326.706 149.038 327.035 148.899C327.364 148.747 327.599 148.487 327.738 148.12C327.877 147.753 327.947 147.24 327.947 146.581H329.315V149.108H332.944C332.855 149.235 332.767 149.425 332.678 149.678C332.602 149.919 332.564 150.172 332.564 150.438H329.315V155.511C329.315 156.094 329.423 156.461 329.638 156.613C329.853 156.765 330.126 156.841 330.455 156.841C330.924 156.841 331.348 156.702 331.728 156.423C332.108 156.144 332.38 155.872 332.545 155.606V156.195L332.735 157.278C332.545 157.481 332.203 157.683 331.709 157.886C331.215 158.089 330.601 158.19 329.866 158.19ZM337.639 158.19C336.258 158.19 335.289 157.943 334.732 157.449C334.174 156.942 333.896 156.265 333.896 155.416C333.896 154.529 334.231 153.833 334.903 153.326C335.574 152.819 336.6 152.566 337.981 152.566C338.969 152.566 339.76 152.667 340.356 152.87C340.951 153.06 341.35 153.225 341.553 153.364C341.54 152.237 341.325 151.439 340.907 150.97C340.501 150.489 339.779 150.248 338.741 150.248C337.993 150.248 337.322 150.337 336.727 150.514C336.144 150.679 335.675 150.862 335.321 151.065C334.966 151.255 334.744 151.394 334.656 151.483V151.103L334.466 149.678C334.58 149.627 334.827 149.545 335.207 149.431C335.587 149.304 336.087 149.19 336.708 149.089C337.328 148.975 338.057 148.918 338.893 148.918C340.489 148.918 341.654 149.26 342.389 149.944C343.123 150.615 343.491 151.654 343.491 153.06V156.86C343.491 157.215 343.529 157.474 343.605 157.639C343.693 157.791 343.782 157.911 343.871 158H341.553V157.43L341.591 157.069L341.553 157.05C341.135 157.43 340.59 157.715 339.919 157.905C339.247 158.095 338.487 158.19 337.639 158.19ZM338.266 156.841C339.292 156.841 340.096 156.695 340.679 156.404C341.261 156.1 341.553 155.72 341.553 155.264C341.553 154.884 341.299 154.561 340.793 154.295C340.299 154.029 339.526 153.896 338.475 153.896C337.499 153.896 336.809 154.023 336.404 154.276C336.011 154.529 335.815 154.909 335.815 155.416C335.815 155.91 336.005 156.271 336.385 156.499C336.777 156.727 337.404 156.841 338.266 156.841ZM345.59 158C345.678 158 345.761 157.911 345.837 157.734C345.925 157.557 345.97 157.265 345.97 156.86V146.03C345.97 145.625 345.925 145.34 345.837 145.175C345.761 144.998 345.678 144.903 345.59 144.89C346.147 144.89 346.628 144.852 347.034 144.776C347.452 144.687 347.743 144.599 347.908 144.51V156.86C347.908 157.265 347.946 157.557 348.022 157.734C348.11 157.911 348.199 158 348.288 158H345.59ZM150.77 182C150.859 182 150.947 181.911 151.036 181.734C151.125 181.557 151.169 181.265 151.169 180.86V171.74C151.169 171.335 151.125 171.05 151.036 170.885C150.947 170.708 150.859 170.613 150.77 170.6H161.467V170.98L161.847 172.804C161.53 172.665 160.973 172.519 160.175 172.367C159.377 172.202 158.414 172.12 157.287 172.12H154.076C153.696 172.12 153.468 172.152 153.392 172.215C153.329 172.266 153.297 172.424 153.297 172.69V174.856C153.297 175.135 153.329 175.299 153.392 175.35C153.468 175.401 153.69 175.426 154.057 175.426H157.192C157.927 175.426 158.516 175.388 158.959 175.312C159.415 175.223 159.713 175.135 159.852 175.046C159.763 175.287 159.675 175.597 159.586 175.977C159.51 176.344 159.472 176.667 159.472 176.946H154.057C153.69 176.946 153.468 176.971 153.392 177.022C153.329 177.06 153.297 177.225 153.297 177.516V179.872C153.297 180.163 153.329 180.334 153.392 180.385C153.455 180.436 153.677 180.461 154.057 180.461H159.586C160.321 180.461 160.91 180.379 161.353 180.214C161.809 180.037 162.107 179.866 162.246 179.701L161.866 181.411V182H150.77ZM162.77 182C162.909 182 163.112 181.911 163.378 181.734C163.644 181.557 163.935 181.272 164.252 180.879C164.493 180.588 164.771 180.239 165.088 179.834C165.417 179.429 165.747 179.023 166.076 178.618C166.405 178.2 166.697 177.839 166.95 177.535C166.684 177.231 166.374 176.876 166.019 176.471C165.664 176.066 165.316 175.667 164.974 175.274C164.645 174.881 164.36 174.552 164.119 174.286C163.764 173.868 163.473 173.57 163.245 173.393C163.017 173.216 162.859 173.121 162.77 173.108H165.886C165.785 173.121 165.74 173.222 165.753 173.412C165.778 173.589 165.949 173.881 166.266 174.286C166.405 174.463 166.589 174.691 166.817 174.97C167.045 175.236 167.286 175.508 167.539 175.787C167.792 176.066 168.02 176.319 168.223 176.547H168.261C168.438 176.332 168.641 176.085 168.869 175.806C169.11 175.527 169.344 175.249 169.572 174.97C169.813 174.691 170.009 174.451 170.161 174.248C170.465 173.843 170.63 173.551 170.655 173.374C170.68 173.197 170.642 173.108 170.541 173.108H173.714C173.587 173.108 173.391 173.197 173.125 173.374C172.872 173.539 172.58 173.824 172.251 174.229C172.023 174.52 171.738 174.869 171.396 175.274C171.054 175.667 170.706 176.066 170.351 176.471C170.009 176.876 169.699 177.231 169.42 177.535C169.699 177.826 170.022 178.175 170.389 178.58C170.756 178.973 171.117 179.372 171.472 179.777C171.827 180.17 172.118 180.518 172.346 180.822C172.688 181.253 172.979 181.557 173.22 181.734C173.461 181.911 173.625 182 173.714 182H170.598C170.712 182 170.756 181.911 170.731 181.734C170.718 181.557 170.547 181.253 170.218 180.822C170.079 180.632 169.889 180.398 169.648 180.119C169.407 179.84 169.154 179.549 168.888 179.245C168.635 178.941 168.4 178.675 168.185 178.447H168.147C167.97 178.675 167.761 178.941 167.52 179.245C167.279 179.549 167.045 179.847 166.817 180.138C166.602 180.417 166.418 180.657 166.266 180.86C165.949 181.265 165.778 181.557 165.753 181.734C165.74 181.911 165.785 182 165.886 182H162.77ZM174.736 186.218C174.825 186.218 174.907 186.129 174.983 185.952C175.072 185.775 175.116 185.483 175.116 185.078V174.248C175.116 173.843 175.072 173.558 174.983 173.393C174.907 173.216 174.825 173.121 174.736 173.108H177.054V173.488L177.016 173.849L177.054 173.887C177.308 173.646 177.688 173.425 178.194 173.222C178.714 173.019 179.322 172.918 180.018 172.918C181.196 172.918 182.127 173.127 182.811 173.545C183.495 173.95 183.983 174.501 184.274 175.198C184.578 175.895 184.73 176.686 184.73 177.573C184.73 178.447 184.585 179.232 184.293 179.929C184.002 180.626 183.514 181.177 182.83 181.582C182.146 181.987 181.209 182.19 180.018 182.19C179.322 182.19 178.733 182.108 178.251 181.943C177.783 181.778 177.384 181.55 177.054 181.259L177.016 181.278L177.054 181.639V185.078C177.054 185.483 177.092 185.775 177.168 185.952C177.257 186.129 177.346 186.218 177.434 186.218H174.736ZM179.828 180.841C180.614 180.841 181.222 180.714 181.652 180.461C182.083 180.208 182.381 179.84 182.545 179.359C182.71 178.865 182.792 178.27 182.792 177.573C182.792 176.876 182.704 176.281 182.526 175.787C182.362 175.293 182.064 174.913 181.633 174.647C181.215 174.381 180.614 174.248 179.828 174.248C179.068 174.248 178.486 174.4 178.08 174.704C177.688 175.008 177.415 175.413 177.263 175.92C177.124 176.427 177.054 176.984 177.054 177.592C177.054 178.213 177.13 178.77 177.282 179.264C177.447 179.758 177.726 180.144 178.118 180.423C178.524 180.702 179.094 180.841 179.828 180.841ZM191.046 182.19C190.046 182.19 189.222 182.076 188.576 181.848C187.93 181.607 187.424 181.278 187.056 180.86C186.689 180.442 186.429 179.954 186.277 179.397C186.138 178.84 186.068 178.232 186.068 177.573C186.068 176.142 186.474 175.008 187.284 174.172C188.108 173.336 189.324 172.918 190.932 172.918C191.87 172.918 192.623 173.045 193.193 173.298C193.776 173.551 194.213 173.887 194.504 174.305C194.808 174.723 195.011 175.179 195.112 175.673C195.226 176.154 195.283 176.629 195.283 177.098V177.991C195.283 177.953 195.106 177.915 194.751 177.877C194.409 177.826 193.827 177.801 193.003 177.801H188.006C188.006 178.738 188.285 179.479 188.842 180.024C189.4 180.569 190.229 180.841 191.331 180.841C192.281 180.841 193.06 180.727 193.668 180.499C194.289 180.258 194.701 180.024 194.903 179.796V180.176L195.093 181.43C194.815 181.595 194.321 181.766 193.611 181.943C192.915 182.108 192.06 182.19 191.046 182.19ZM188.766 176.547H193.383C193.383 176.218 193.314 175.876 193.174 175.521C193.035 175.166 192.788 174.869 192.433 174.628C192.079 174.375 191.578 174.248 190.932 174.248C190.109 174.248 189.45 174.444 188.956 174.837C188.475 175.23 188.234 175.673 188.234 176.167C188.234 176.294 188.272 176.389 188.348 176.452C188.424 176.515 188.564 176.547 188.766 176.547ZM196.909 182C196.998 182 197.08 181.911 197.156 181.734C197.245 181.557 197.289 181.265 197.289 180.86V174.438C197.289 174.033 197.245 173.748 197.156 173.583C197.08 173.406 196.998 173.311 196.909 173.298C197.466 173.298 197.948 173.26 198.353 173.184C198.771 173.095 199.062 173.007 199.227 172.918V173.868L199.189 174.191L199.227 174.229C199.518 173.862 199.892 173.551 200.348 173.298C200.817 173.045 201.393 172.918 202.077 172.918C202.672 172.918 203.185 173.007 203.616 173.184C204.059 173.349 204.376 173.52 204.566 173.697L204.186 175.293V175.863C204.021 175.66 203.781 175.451 203.464 175.236C203.16 175.008 202.812 174.818 202.419 174.666C202.026 174.514 201.608 174.438 201.165 174.438C200.658 174.438 200.209 174.641 199.816 175.046C199.423 175.451 199.227 176.123 199.227 177.06V180.86C199.227 181.265 199.265 181.557 199.341 181.734C199.43 181.911 199.518 182 199.607 182H196.909ZM206.974 171.284C206.607 171.284 206.322 171.183 206.119 170.98C205.917 170.765 205.815 170.518 205.815 170.239C205.815 169.948 205.91 169.701 206.1 169.498C206.303 169.295 206.594 169.194 206.974 169.194C207.354 169.194 207.639 169.295 207.829 169.498C208.032 169.701 208.133 169.948 208.133 170.239C208.133 170.518 208.032 170.765 207.829 170.98C207.627 171.183 207.342 171.284 206.974 171.284ZM205.815 182C205.904 182 205.986 181.911 206.062 181.734C206.151 181.557 206.195 181.265 206.195 180.86V174.248C206.195 173.843 206.151 173.558 206.062 173.393C205.986 173.216 205.904 173.121 205.815 173.108H208.133V180.86C208.133 181.265 208.171 181.557 208.247 181.734C208.336 181.911 208.425 182 208.513 182H205.815ZM214.908 182.19C213.907 182.19 213.084 182.076 212.438 181.848C211.792 181.607 211.285 181.278 210.918 180.86C210.55 180.442 210.291 179.954 210.139 179.397C209.999 178.84 209.93 178.232 209.93 177.573C209.93 176.142 210.335 175.008 211.146 174.172C211.969 173.336 213.185 172.918 214.794 172.918C215.731 172.918 216.485 173.045 217.055 173.298C217.637 173.551 218.074 173.887 218.366 174.305C218.67 174.723 218.872 175.179 218.974 175.673C219.088 176.154 219.145 176.629 219.145 177.098V177.991C219.145 177.953 218.967 177.915 218.613 177.877C218.271 177.826 217.688 177.801 216.865 177.801H211.868C211.868 178.738 212.146 179.479 212.704 180.024C213.261 180.569 214.091 180.841 215.193 180.841C216.143 180.841 216.922 180.727 217.53 180.499C218.15 180.258 218.562 180.024 218.765 179.796V180.176L218.955 181.43C218.676 181.595 218.182 181.766 217.473 181.943C216.776 182.108 215.921 182.19 214.908 182.19ZM212.628 176.547H217.245C217.245 176.218 217.175 175.876 217.036 175.521C216.896 175.166 216.649 174.869 216.295 174.628C215.94 174.375 215.44 174.248 214.794 174.248C213.97 174.248 213.312 174.444 212.818 174.837C212.336 175.23 212.096 175.673 212.096 176.167C212.096 176.294 212.134 176.389 212.21 176.452C212.286 176.515 212.425 176.547 212.628 176.547ZM220.77 182C220.859 182 220.941 181.911 221.017 181.734C221.106 181.557 221.15 181.265 221.15 180.86V174.438C221.15 174.033 221.106 173.748 221.017 173.583C220.941 173.406 220.859 173.311 220.77 173.298C221.328 173.298 221.809 173.26 222.214 173.184C222.632 173.095 222.924 173.007 223.088 172.918V174.077L223.05 174.324L223.088 174.362C223.367 174.007 223.779 173.678 224.323 173.374C224.868 173.07 225.59 172.918 226.489 172.918C227.667 172.918 228.567 173.254 229.187 173.925C229.821 174.596 230.137 175.648 230.137 177.079V180.86C230.137 181.265 230.175 181.557 230.251 181.734C230.34 181.911 230.429 182 230.517 182H227.819C227.908 182 227.99 181.911 228.066 181.734C228.155 181.557 228.199 181.265 228.199 180.86V177.136C228.199 176.389 228.104 175.806 227.914 175.388C227.724 174.97 227.458 174.679 227.116 174.514C226.787 174.337 226.401 174.248 225.957 174.248C225.489 174.248 225.033 174.349 224.589 174.552C224.146 174.755 223.785 175.078 223.506 175.521C223.228 175.964 223.088 176.56 223.088 177.307V180.86C223.088 181.265 223.126 181.557 223.202 181.734C223.291 181.911 223.38 182 223.468 182H220.77ZM237.085 182.19C235.767 182.19 234.729 181.987 233.969 181.582C233.221 181.177 232.696 180.626 232.392 179.929C232.088 179.232 231.936 178.447 231.936 177.573C231.936 176.028 232.354 174.869 233.19 174.096C234.038 173.323 235.273 172.937 236.895 172.937C237.883 172.937 238.712 173 239.384 173.127C240.055 173.254 240.517 173.374 240.771 173.488V173.868L241.151 175.521C240.897 175.255 240.416 174.983 239.707 174.704C238.997 174.413 238.104 174.267 237.028 174.267C236.483 174.267 235.964 174.362 235.47 174.552C234.988 174.729 234.596 175.059 234.292 175.54C234 176.021 233.855 176.705 233.855 177.592C233.855 178.453 234.013 179.125 234.33 179.606C234.646 180.075 235.083 180.398 235.641 180.575C236.198 180.752 236.831 180.841 237.541 180.841C238.44 180.841 239.181 180.702 239.764 180.423C240.359 180.144 240.758 179.872 240.961 179.606V179.986L241.151 181.278C240.91 181.481 240.435 181.683 239.726 181.886C239.029 182.089 238.149 182.19 237.085 182.19ZM247.545 182.19C246.545 182.19 245.721 182.076 245.075 181.848C244.429 181.607 243.923 181.278 243.555 180.86C243.188 180.442 242.928 179.954 242.776 179.397C242.637 178.84 242.567 178.232 242.567 177.573C242.567 176.142 242.973 175.008 243.783 174.172C244.607 173.336 245.823 172.918 247.431 172.918C248.369 172.918 249.122 173.045 249.692 173.298C250.275 173.551 250.712 173.887 251.003 174.305C251.307 174.723 251.51 175.179 251.611 175.673C251.725 176.154 251.782 176.629 251.782 177.098V177.991C251.782 177.953 251.605 177.915 251.25 177.877C250.908 177.826 250.326 177.801 249.502 177.801H244.505C244.505 178.738 244.784 179.479 245.341 180.024C245.899 180.569 246.728 180.841 247.83 180.841C248.78 180.841 249.559 180.727 250.167 180.499C250.788 180.258 251.2 180.024 251.402 179.796V180.176L251.592 181.43C251.314 181.595 250.82 181.766 250.11 181.943C249.414 182.108 248.559 182.19 247.545 182.19ZM245.265 176.547H249.882C249.882 176.218 249.813 175.876 249.673 175.521C249.534 175.166 249.287 174.869 248.932 174.628C248.578 174.375 248.077 174.248 247.431 174.248C246.608 174.248 245.949 174.444 245.455 174.837C244.974 175.23 244.733 175.673 244.733 176.167C244.733 176.294 244.771 176.389 244.847 176.452C244.923 176.515 245.063 176.547 245.265 176.547ZM258.329 182.19C257.139 182.19 256.138 182.127 255.327 182C254.529 181.873 253.985 181.747 253.693 181.62V181.24L253.294 179.606C253.624 179.872 254.2 180.151 255.023 180.442C255.859 180.721 256.873 180.86 258.063 180.86C258.849 180.86 259.438 180.809 259.83 180.708C260.223 180.594 260.483 180.448 260.609 180.271C260.736 180.081 260.799 179.872 260.799 179.644C260.799 179.378 260.704 179.169 260.514 179.017C260.337 178.852 259.995 178.719 259.488 178.618C258.994 178.504 258.26 178.39 257.284 178.276C256.22 178.149 255.397 177.966 254.814 177.725C254.244 177.484 253.852 177.18 253.636 176.813C253.421 176.433 253.313 175.983 253.313 175.464C253.313 175.059 253.421 174.66 253.636 174.267C253.852 173.874 254.251 173.551 254.833 173.298C255.429 173.045 256.271 172.918 257.36 172.918C258.538 172.918 259.526 172.981 260.324 173.108C261.135 173.235 261.686 173.361 261.977 173.488V173.868L262.357 175.312C262.041 175.084 261.464 174.85 260.628 174.609C259.792 174.368 258.785 174.248 257.607 174.248C256.67 174.248 256.043 174.356 255.726 174.571C255.41 174.774 255.251 175.04 255.251 175.369C255.251 175.559 255.289 175.73 255.365 175.882C255.441 176.021 255.593 176.148 255.821 176.262C256.062 176.376 256.417 176.477 256.885 176.566C257.367 176.655 258.006 176.743 258.804 176.832C259.881 176.946 260.698 177.123 261.255 177.364C261.813 177.605 262.193 177.909 262.395 178.276C262.611 178.631 262.718 179.049 262.718 179.53C262.718 180.049 262.573 180.512 262.281 180.917C262.003 181.31 261.54 181.62 260.894 181.848C260.248 182.076 259.393 182.19 258.329 182.19Z" fill="white"/>
<path d="M110.744 109C110.893 109 111.043 108.851 111.192 108.552C111.341 108.253 111.416 107.763 111.416 107.08V93.32C111.416 92.8507 111.363 92.5733 111.256 92.488C111.149 92.4027 110.776 92.36 110.136 92.36H107.8C106.563 92.36 105.56 92.4987 104.792 92.776C104.045 93.032 103.555 93.2773 103.32 93.512L103.96 90.44V89.8H122.456V90.44L123.096 93.512C122.861 93.2773 122.36 93.032 121.592 92.776C120.845 92.4987 119.853 92.36 118.616 92.36H116.312C115.651 92.36 115.267 92.4027 115.16 92.488C115.053 92.5733 115 92.8507 115 93.32V107.08C115 107.763 115.075 108.253 115.224 108.552C115.373 108.851 115.523 109 115.672 109H110.744ZM125.07 116.808C123.79 116.808 122.777 116.68 122.03 116.424C121.284 116.168 120.804 115.923 120.59 115.688L121.23 112.328V111.368C121.38 111.816 121.625 112.285 121.966 112.776C122.286 113.288 122.702 113.715 123.214 114.056C123.726 114.397 124.302 114.568 124.942 114.568C126.03 114.568 126.884 114.248 127.502 113.608C128.142 112.968 128.74 112.115 129.294 111.048C129.721 110.195 129.988 109.608 130.094 109.288C129.966 109.117 129.764 108.723 129.486 108.104C129.209 107.485 128.878 106.739 128.494 105.864C128.11 104.968 127.705 104.019 127.278 103.016C126.873 102.013 126.468 101.043 126.062 100.104C125.657 99.1653 125.294 98.3333 124.974 97.608C124.654 96.8827 124.409 96.36 124.238 96.04C123.876 95.3573 123.545 94.856 123.246 94.536C122.948 94.216 122.734 94.0453 122.606 94.024H127.822C127.652 94.024 127.534 94.184 127.47 94.504C127.428 94.8027 127.545 95.3147 127.822 96.04C127.993 96.4453 128.228 97.032 128.526 97.8C128.825 98.5467 129.156 99.4 129.518 100.36C129.881 101.299 130.254 102.259 130.638 103.24C131.022 104.2 131.374 105.096 131.694 105.928H131.726C132.068 105.053 132.441 104.115 132.846 103.112C133.252 102.109 133.646 101.128 134.03 100.168C134.436 99.208 134.788 98.3547 135.086 97.608C135.406 96.8613 135.641 96.3173 135.79 95.976C136.089 95.2933 136.206 94.8027 136.142 94.504C136.078 94.2053 135.961 94.0453 135.79 94.024H140.814C140.686 94.0453 140.484 94.2053 140.206 94.504C139.95 94.7813 139.652 95.2613 139.31 95.944C139.118 96.3067 138.82 96.9253 138.414 97.8C138.03 98.6747 137.582 99.6773 137.07 100.808C136.558 101.939 136.036 103.112 135.502 104.328C134.969 105.523 134.468 106.653 133.998 107.72C133.529 108.765 133.134 109.629 132.814 110.312C131.833 112.467 130.745 114.088 129.55 115.176C128.356 116.264 126.862 116.808 125.07 116.808ZM150.573 109.32C148.567 109.32 146.882 109.213 145.516 109C144.173 108.787 143.255 108.573 142.765 108.36V107.72L142.093 104.968C142.647 105.416 143.618 105.885 145.005 106.376C146.413 106.845 148.119 107.08 150.125 107.08C151.447 107.08 152.439 106.995 153.101 106.824C153.762 106.632 154.199 106.387 154.413 106.088C154.626 105.768 154.733 105.416 154.733 105.032C154.733 104.584 154.573 104.232 154.253 103.976C153.954 103.699 153.378 103.475 152.525 103.304C151.693 103.112 150.455 102.92 148.812 102.728C147.021 102.515 145.634 102.205 144.653 101.8C143.693 101.395 143.031 100.883 142.669 100.264C142.306 99.624 142.125 98.8667 142.125 97.992C142.125 97.3093 142.306 96.6373 142.669 95.976C143.031 95.3147 143.703 94.7707 144.685 94.344C145.687 93.9173 147.106 93.704 148.941 93.704C150.925 93.704 152.589 93.8107 153.933 94.024C155.298 94.2373 156.226 94.4507 156.717 94.664V95.304L157.357 97.736C156.823 97.352 155.853 96.9573 154.445 96.552C153.037 96.1467 151.341 95.944 149.357 95.944C147.778 95.944 146.722 96.1253 146.189 96.488C145.655 96.8293 145.389 97.2773 145.389 97.832C145.389 98.152 145.453 98.44 145.581 98.696C145.709 98.9307 145.965 99.144 146.349 99.336C146.754 99.528 147.351 99.6987 148.141 99.848C148.951 99.9973 150.029 100.147 151.373 100.296C153.186 100.488 154.562 100.787 155.501 101.192C156.439 101.597 157.079 102.109 157.421 102.728C157.783 103.325 157.965 104.029 157.965 104.84C157.965 105.715 157.719 106.493 157.229 107.176C156.759 107.837 155.981 108.36 154.893 108.744C153.805 109.128 152.365 109.32 150.573 109.32ZM168.439 109.32C166.305 109.32 164.631 108.979 163.415 108.296C162.22 107.613 161.377 106.685 160.887 105.512C160.417 104.339 160.183 103.016 160.183 101.544C160.183 100.051 160.428 98.7173 160.919 97.544C161.431 96.3707 162.284 95.4427 163.479 94.76C164.673 94.056 166.327 93.704 168.439 93.704C170.551 93.704 172.204 94.056 173.399 94.76C174.593 95.4427 175.436 96.3707 175.927 97.544C176.439 98.7173 176.694 100.051 176.694 101.544C176.694 103.016 176.449 104.339 175.958 105.512C175.489 106.685 174.657 107.613 173.463 108.296C172.268 108.979 170.593 109.32 168.439 109.32ZM168.439 107.048C169.761 107.048 170.785 106.835 171.511 106.408C172.236 105.981 172.737 105.363 173.015 104.552C173.292 103.72 173.431 102.717 173.431 101.544C173.431 100.371 173.281 99.368 172.983 98.536C172.705 97.704 172.204 97.064 171.479 96.616C170.775 96.168 169.761 95.944 168.439 95.944C167.137 95.944 166.124 96.1787 165.399 96.648C164.673 97.096 164.161 97.7467 163.863 98.6C163.585 99.432 163.447 100.424 163.447 101.576C163.447 102.707 163.585 103.688 163.863 104.52C164.14 105.331 164.641 105.96 165.367 106.408C166.092 106.835 167.116 107.048 168.439 107.048ZM179.285 109C179.434 109 179.573 108.851 179.701 108.552C179.85 108.253 179.924 107.763 179.924 107.08V96.264C179.924 95.5813 179.85 95.1013 179.701 94.824C179.573 94.5253 179.434 94.3653 179.285 94.344C180.223 94.344 181.034 94.28 181.717 94.152C182.421 94.0027 182.911 93.8533 183.189 93.704V95.656L183.125 96.072L183.189 96.136C183.658 95.5387 184.351 94.984 185.269 94.472C186.186 93.96 187.402 93.704 188.917 93.704C190.901 93.704 192.415 94.2693 193.461 95.4C194.527 96.5307 195.061 98.3013 195.061 100.712V107.08C195.061 107.763 195.125 108.253 195.253 108.552C195.402 108.851 195.551 109 195.701 109H191.157C191.306 109 191.445 108.851 191.573 108.552C191.722 108.253 191.797 107.763 191.797 107.08V100.808C191.797 99.5493 191.637 98.568 191.317 97.864C190.997 97.16 190.549 96.6693 189.973 96.392C189.418 96.0933 188.767 95.944 188.021 95.944C187.231 95.944 186.463 96.1147 185.717 96.456C184.97 96.7973 184.362 97.3413 183.893 98.088C183.423 98.8347 183.189 99.8373 183.189 101.096V107.08C183.189 107.763 183.253 108.253 183.381 108.552C183.53 108.851 183.679 109 183.829 109H179.285ZM216.496 109.32C212.827 109.32 210.171 108.445 208.528 106.696C206.907 104.925 206.096 102.461 206.096 99.304C206.096 97.2773 206.448 95.5387 207.152 94.088C207.878 92.616 208.998 91.4853 210.512 90.696C212.048 89.8853 214.043 89.48 216.496 89.48H217.488C219.899 89.48 221.851 89.8747 223.344 90.664C224.859 91.4533 225.968 92.584 226.672 94.056C227.376 95.528 227.728 97.2773 227.728 99.304C227.728 102.461 226.918 104.925 225.296 106.696C223.675 108.445 221.072 109.32 217.488 109.32H216.496ZM216.816 106.728H217.168C218.768 106.728 220.08 106.493 221.104 106.024C222.128 105.555 222.886 104.787 223.376 103.72C223.888 102.632 224.144 101.16 224.144 99.304C224.144 96.5947 223.568 94.7067 222.416 93.64C221.264 92.5733 219.515 92.04 217.168 92.04H216.816C214.406 92.04 212.614 92.584 211.44 93.672C210.267 94.76 209.68 96.6373 209.68 99.304C209.68 101.139 209.936 102.6 210.448 103.688C210.982 104.776 211.782 105.555 212.848 106.024C213.915 106.493 215.238 106.728 216.816 106.728ZM230.628 109C230.778 109 230.916 108.851 231.044 108.552C231.194 108.253 231.268 107.763 231.268 107.08V96.264C231.268 95.5813 231.194 95.1013 231.044 94.824C230.916 94.5253 230.778 94.3653 230.628 94.344C231.567 94.344 232.378 94.28 233.06 94.152C233.764 94.0027 234.255 93.8533 234.532 93.704V95.656L234.468 96.072L234.532 96.136C234.852 95.7307 235.204 95.3467 235.588 94.984C235.994 94.6213 236.516 94.3227 237.156 94.088C237.796 93.832 238.618 93.704 239.62 93.704C240.922 93.704 242.02 93.9493 242.916 94.44C243.834 94.9093 244.538 95.6453 245.028 96.648C245.284 96.2213 245.647 95.784 246.116 95.336C246.607 94.888 247.236 94.504 248.004 94.184C248.772 93.864 249.711 93.704 250.82 93.704C252.804 93.704 254.319 94.2693 255.364 95.4C256.431 96.5307 256.964 98.3013 256.964 100.712V107.08C256.964 107.763 257.028 108.253 257.156 108.552C257.306 108.851 257.455 109 257.604 109H253.06C253.21 109 253.348 108.851 253.476 108.552C253.626 108.253 253.7 107.763 253.7 107.08V100.808C253.7 99.5493 253.54 98.568 253.22 97.864C252.9 97.16 252.452 96.6693 251.876 96.392C251.322 96.0933 250.671 95.944 249.924 95.944C248.687 95.944 247.684 96.3387 246.916 97.128C246.148 97.896 245.764 99.208 245.764 101.064V107.08C245.764 107.763 245.828 108.253 245.956 108.552C246.106 108.851 246.255 109 246.404 109H241.86C242.01 109 242.148 108.851 242.276 108.552C242.426 108.253 242.5 107.763 242.5 107.08V100.808C242.5 99.5493 242.34 98.568 242.02 97.864C241.7 97.16 241.252 96.6693 240.676 96.392C240.122 96.0933 239.471 95.944 238.724 95.944C237.53 95.944 236.527 96.3387 235.716 97.128C234.927 97.896 234.532 99.2187 234.532 101.096V107.08C234.532 107.763 234.596 108.253 234.724 108.552C234.874 108.851 235.023 109 235.172 109H230.628ZM268.379 109.32C266.694 109.32 265.307 109.128 264.219 108.744C263.131 108.339 262.278 107.784 261.659 107.08C261.04 106.376 260.603 105.555 260.347 104.616C260.112 103.677 259.995 102.653 259.995 101.544C259.995 99.1333 260.678 97.224 262.043 95.816C263.43 94.408 265.478 93.704 268.187 93.704C269.766 93.704 271.035 93.9173 271.995 94.344C272.976 94.7707 273.712 95.336 274.203 96.04C274.715 96.744 275.056 97.512 275.227 98.344C275.419 99.1547 275.515 99.9547 275.515 100.744V102.248C275.515 102.184 275.216 102.12 274.619 102.056C274.043 101.971 273.062 101.928 271.675 101.928H263.259C263.259 103.507 263.728 104.755 264.667 105.672C265.606 106.589 267.003 107.048 268.859 107.048C270.459 107.048 271.771 106.856 272.795 106.472C273.84 106.067 274.534 105.672 274.875 105.288V105.928L275.195 108.04C274.726 108.317 273.894 108.605 272.699 108.904C271.526 109.181 270.086 109.32 268.379 109.32ZM264.539 99.816H272.315C272.315 99.2613 272.198 98.6853 271.963 98.088C271.728 97.4907 271.312 96.9893 270.715 96.584C270.118 96.1573 269.275 95.944 268.187 95.944C266.8 95.944 265.691 96.2747 264.859 96.936C264.048 97.5973 263.643 98.344 263.643 99.176C263.643 99.3893 263.707 99.5493 263.835 99.656C263.963 99.7627 264.198 99.816 264.539 99.816ZM278.253 109C278.403 109 278.541 108.851 278.669 108.552C278.819 108.253 278.893 107.763 278.893 107.08V96.264C278.893 95.5813 278.819 95.1013 278.669 94.824C278.541 94.5253 278.403 94.3653 278.253 94.344C279.192 94.344 280.003 94.28 280.685 94.152C281.389 94.0027 281.88 93.8533 282.157 93.704V95.304L282.093 95.848L282.157 95.912C282.648 95.2933 283.277 94.7707 284.045 94.344C284.835 93.9173 285.805 93.704 286.957 93.704C287.96 93.704 288.824 93.8533 289.549 94.152C290.296 94.4293 290.829 94.7173 291.149 95.016L290.509 97.704V98.664C290.232 98.3227 289.827 97.9707 289.293 97.608C288.781 97.224 288.195 96.904 287.533 96.648C286.872 96.392 286.168 96.264 285.421 96.264C284.568 96.264 283.811 96.6053 283.149 97.288C282.488 97.9707 282.157 99.1013 282.157 100.68V107.08C282.157 107.763 282.221 108.253 282.349 108.552C282.499 108.851 282.648 109 282.797 109H278.253Z" fill="white"/>
</svg>
