<svg width="330" height="47" viewBox="0 0 330 47" fill="none" xmlns="http://www.w3.org/2000/svg">
<path d="M47.037 34C47.205 34 47.373 33.832 47.541 33.496C47.709 33.16 47.793 32.608 47.793 31.84V14.56C47.793 13.792 47.709 13.252 47.541 12.94C47.373 12.604 47.205 12.424 47.037 12.4H53.697C53.649 12.4 53.673 12.568 53.769 12.904C53.865 13.24 54.093 13.816 54.453 14.632C54.597 14.944 54.849 15.496 55.209 16.288C55.593 17.08 56.049 18.028 56.577 19.132C57.105 20.212 57.669 21.376 58.269 22.624C58.869 23.872 59.481 25.144 60.105 26.44C60.729 27.712 61.317 28.912 61.869 30.04H61.905C62.481 28.888 63.081 27.676 63.705 26.404C64.329 25.108 64.953 23.824 65.577 22.552C66.201 21.28 66.777 20.104 67.305 19.024C67.833 17.92 68.277 16.984 68.637 16.216C69.021 15.424 69.285 14.872 69.429 14.56C69.765 13.792 69.981 13.24 70.077 12.904C70.197 12.568 70.233 12.4 70.185 12.4H76.809C76.641 12.4 76.473 12.568 76.305 12.904C76.137 13.24 76.053 13.804 76.053 14.596V31.84C76.053 32.608 76.137 33.16 76.305 33.496C76.473 33.832 76.641 34 76.809 34H71.301C71.469 34 71.625 33.832 71.769 33.496C71.937 33.16 72.021 32.608 72.021 31.84V16.936H71.949C71.325 18.184 70.653 19.552 69.933 21.04C69.213 22.504 68.505 23.956 67.809 25.396C67.113 26.812 66.489 28.096 65.937 29.248C65.409 30.376 65.013 31.24 64.749 31.84C64.413 32.584 64.233 33.124 64.209 33.46C64.209 33.796 64.269 33.976 64.389 34H59.349C59.469 34 59.529 33.844 59.529 33.532C59.529 33.196 59.349 32.632 58.989 31.84C58.773 31.336 58.401 30.532 57.873 29.428C57.345 28.324 56.733 27.052 56.037 25.612C55.365 24.172 54.669 22.696 53.949 21.184C53.229 19.648 52.557 18.232 51.933 16.936H51.825V31.84C51.825 32.608 51.909 33.16 52.077 33.496C52.245 33.832 52.413 34 52.581 34H47.037ZM89.6705 34.36C87.7745 34.36 86.2145 34.144 84.9905 33.712C83.7665 33.256 82.8065 32.632 82.1105 31.84C81.4145 31.048 80.9225 30.124 80.6345 29.068C80.3705 28.012 80.2385 26.86 80.2385 25.612C80.2385 22.9 81.0065 20.752 82.5425 19.168C84.1025 17.584 86.4065 16.792 89.4545 16.792C91.2305 16.792 92.6585 17.032 93.7385 17.512C94.8425 17.992 95.6705 18.628 96.2225 19.42C96.7985 20.212 97.1825 21.076 97.3745 22.012C97.5905 22.924 97.6985 23.824 97.6985 24.712V26.404C97.6985 26.332 97.3625 26.26 96.6905 26.188C96.0425 26.092 94.9385 26.044 93.3785 26.044H83.9105C83.9105 27.82 84.4385 29.224 85.4945 30.256C86.5505 31.288 88.1225 31.804 90.2105 31.804C92.0105 31.804 93.4865 31.588 94.6385 31.156C95.8145 30.7 96.5945 30.256 96.9785 29.824V30.544L97.3385 32.92C96.8105 33.232 95.8745 33.556 94.5305 33.892C93.2105 34.204 91.5905 34.36 89.6705 34.36ZM85.3505 23.668H94.0985C94.0985 23.044 93.9665 22.396 93.7025 21.724C93.4385 21.052 92.9705 20.488 92.2985 20.032C91.6265 19.552 90.6785 19.312 89.4545 19.312C87.8945 19.312 86.6465 19.684 85.7105 20.428C84.7985 21.172 84.3425 22.012 84.3425 22.948C84.3425 23.188 84.4145 23.368 84.5585 23.488C84.7025 23.608 84.9665 23.668 85.3505 23.668Z" fill="black"/>
<path d="M189.673 34C189.841 34 189.997 33.832 190.141 33.496C190.309 33.16 190.393 32.608 190.393 31.84V14.56C190.393 13.792 190.309 13.252 190.141 12.94C189.973 12.604 189.805 12.424 189.637 12.4H201.445C203.677 12.4 205.417 12.676 206.665 13.228C207.913 13.756 208.789 14.524 209.293 15.532C209.821 16.516 210.085 17.716 210.085 19.132C210.085 20.02 209.893 20.896 209.509 21.76C209.125 22.624 208.501 23.368 207.637 23.992C206.797 24.616 205.657 25.024 204.217 25.216V25.324C205.825 25.756 207.205 26.548 208.357 27.7C209.533 28.852 210.541 30.112 211.381 31.48C211.933 32.368 212.437 33.004 212.893 33.388C213.349 33.772 213.697 33.976 213.937 34H206.377C206.665 33.976 206.893 33.82 207.061 33.532C207.253 33.22 207.193 32.716 206.881 32.02C206.137 30.292 204.901 28.864 203.173 27.736C201.469 26.608 199.177 26.044 196.297 26.044H195.901C195.157 26.044 194.725 26.104 194.605 26.224C194.485 26.344 194.425 26.644 194.425 27.124V31.84C194.425 32.608 194.509 33.16 194.677 33.496C194.845 33.832 195.013 34 195.181 34H189.673ZM195.901 23.164H200.329C204.169 23.164 206.089 21.82 206.089 19.132C206.089 17.788 205.657 16.816 204.793 16.216C203.953 15.616 202.585 15.316 200.689 15.316H195.901C195.157 15.316 194.725 15.352 194.605 15.424C194.485 15.496 194.425 15.772 194.425 16.252V22.192C194.425 22.672 194.485 22.96 194.605 23.056C194.725 23.128 195.157 23.164 195.901 23.164ZM223.376 34.36C221.48 34.36 219.92 34.144 218.696 33.712C217.472 33.256 216.512 32.632 215.816 31.84C215.12 31.048 214.628 30.124 214.34 29.068C214.076 28.012 213.944 26.86 213.944 25.612C213.944 22.9 214.712 20.752 216.248 19.168C217.808 17.584 220.112 16.792 223.16 16.792C224.936 16.792 226.364 17.032 227.444 17.512C228.548 17.992 229.376 18.628 229.928 19.42C230.504 20.212 230.888 21.076 231.08 22.012C231.296 22.924 231.404 23.824 231.404 24.712V26.404C231.404 26.332 231.068 26.26 230.396 26.188C229.748 26.092 228.644 26.044 227.084 26.044H217.616C217.616 27.82 218.144 29.224 219.2 30.256C220.256 31.288 221.828 31.804 223.916 31.804C225.716 31.804 227.192 31.588 228.344 31.156C229.52 30.7 230.3 30.256 230.684 29.824V30.544L231.044 32.92C230.516 33.232 229.58 33.556 228.236 33.892C226.916 34.204 225.296 34.36 223.376 34.36ZM219.056 23.668H227.804C227.804 23.044 227.672 22.396 227.408 21.724C227.144 21.052 226.676 20.488 226.004 20.032C225.332 19.552 224.384 19.312 223.16 19.312C221.6 19.312 220.352 19.684 219.416 20.428C218.504 21.172 218.048 22.012 218.048 22.948C218.048 23.188 218.12 23.368 218.264 23.488C218.408 23.608 218.672 23.668 219.056 23.668ZM243.808 34.36C241.552 34.36 239.656 34.24 238.12 34C236.608 33.76 235.576 33.52 235.024 33.28V32.56L234.268 29.464C234.892 29.968 235.984 30.496 237.544 31.048C239.128 31.576 241.048 31.84 243.304 31.84C244.792 31.84 245.908 31.744 246.652 31.552C247.396 31.336 247.888 31.06 248.128 30.724C248.368 30.364 248.488 29.968 248.488 29.536C248.488 29.032 248.308 28.636 247.948 28.348C247.612 28.036 246.964 27.784 246.004 27.592C245.068 27.376 243.676 27.16 241.828 26.944C239.812 26.704 238.252 26.356 237.148 25.9C236.068 25.444 235.324 24.868 234.916 24.172C234.508 23.452 234.304 22.6 234.304 21.616C234.304 20.848 234.508 20.092 234.916 19.348C235.324 18.604 236.08 17.992 237.184 17.512C238.312 17.032 239.908 16.792 241.972 16.792C244.204 16.792 246.076 16.912 247.588 17.152C249.124 17.392 250.168 17.632 250.72 17.872V18.592L251.44 21.328C250.84 20.896 249.748 20.452 248.164 19.996C246.58 19.54 244.672 19.312 242.44 19.312C240.664 19.312 239.476 19.516 238.876 19.924C238.276 20.308 237.976 20.812 237.976 21.436C237.976 21.796 238.048 22.12 238.192 22.408C238.336 22.672 238.624 22.912 239.056 23.128C239.512 23.344 240.184 23.536 241.072 23.704C241.984 23.872 243.196 24.04 244.708 24.208C246.748 24.424 248.296 24.76 249.352 25.216C250.408 25.672 251.128 26.248 251.512 26.944C251.92 27.616 252.124 28.408 252.124 29.32C252.124 30.304 251.848 31.18 251.296 31.948C250.768 32.692 249.892 33.28 248.668 33.712C247.444 34.144 245.824 34.36 243.808 34.36ZM262.647 34.36C261.255 34.36 260.031 34.12 258.975 33.64C257.943 33.136 257.139 32.284 256.563 31.084C256.011 29.86 255.735 28.168 255.735 26.008V19.312C255.735 18.544 255.651 17.992 255.483 17.656C255.339 17.32 255.183 17.152 255.015 17.152H260.163C259.995 17.152 259.815 17.32 259.623 17.656C259.455 17.992 259.371 18.544 259.371 19.312V26.512C259.371 28.552 259.731 29.944 260.451 30.688C261.171 31.432 262.119 31.804 263.295 31.804C264.471 31.804 265.491 31.516 266.355 30.94C267.219 30.364 267.891 29.572 268.371 28.564C268.875 27.556 269.127 26.416 269.127 25.144V19.312C269.127 18.544 269.043 18.004 268.875 17.692C268.731 17.356 268.575 17.176 268.407 17.152H272.799V31.84C272.799 32.608 272.871 33.16 273.015 33.496C273.183 33.832 273.351 34 273.519 34H269.127V31.84L269.199 31.12L269.127 31.048C268.935 31.432 268.563 31.888 268.011 32.416C267.483 32.92 266.775 33.376 265.887 33.784C264.999 34.168 263.919 34.36 262.647 34.36ZM276.601 34C276.769 34 276.925 33.832 277.069 33.496C277.237 33.16 277.321 32.608 277.321 31.84V19.672C277.321 18.904 277.237 18.364 277.069 18.052C276.925 17.716 276.769 17.536 276.601 17.512C277.657 17.512 278.569 17.44 279.337 17.296C280.129 17.128 280.681 16.96 280.993 16.792V18.988L280.921 19.456L280.993 19.528C281.353 19.072 281.749 18.64 282.181 18.232C282.637 17.824 283.225 17.488 283.945 17.224C284.665 16.936 285.589 16.792 286.717 16.792C288.181 16.792 289.417 17.068 290.425 17.62C291.457 18.148 292.249 18.976 292.801 20.104C293.089 19.624 293.497 19.132 294.025 18.628C294.577 18.124 295.285 17.692 296.149 17.332C297.013 16.972 298.069 16.792 299.317 16.792C301.549 16.792 303.253 17.428 304.429 18.7C305.629 19.972 306.229 21.964 306.229 24.676V31.84C306.229 32.608 306.301 33.16 306.445 33.496C306.613 33.832 306.781 34 306.949 34H301.837C302.005 34 302.161 33.832 302.305 33.496C302.473 33.16 302.557 32.608 302.557 31.84V24.784C302.557 23.368 302.377 22.264 302.017 21.472C301.657 20.68 301.153 20.128 300.505 19.816C299.881 19.48 299.149 19.312 298.309 19.312C296.917 19.312 295.789 19.756 294.925 20.644C294.061 21.508 293.629 22.984 293.629 25.072V31.84C293.629 32.608 293.701 33.16 293.845 33.496C294.013 33.832 294.181 34 294.349 34H289.237C289.405 34 289.561 33.832 289.705 33.496C289.873 33.16 289.957 32.608 289.957 31.84V24.784C289.957 23.368 289.777 22.264 289.417 21.472C289.057 20.68 288.553 20.128 287.905 19.816C287.281 19.48 286.549 19.312 285.709 19.312C284.365 19.312 283.237 19.756 282.325 20.644C281.437 21.508 280.993 22.996 280.993 25.108V31.84C280.993 32.608 281.065 33.16 281.209 33.496C281.377 33.832 281.545 34 281.713 34H276.601ZM319.071 34.36C317.175 34.36 315.615 34.144 314.391 33.712C313.167 33.256 312.207 32.632 311.511 31.84C310.815 31.048 310.323 30.124 310.035 29.068C309.771 28.012 309.639 26.86 309.639 25.612C309.639 22.9 310.407 20.752 311.943 19.168C313.503 17.584 315.807 16.792 318.855 16.792C320.631 16.792 322.059 17.032 323.139 17.512C324.243 17.992 325.071 18.628 325.623 19.42C326.199 20.212 326.583 21.076 326.775 22.012C326.991 22.924 327.099 23.824 327.099 24.712V26.404C327.099 26.332 326.763 26.26 326.091 26.188C325.443 26.092 324.339 26.044 322.779 26.044H313.311C313.311 27.82 313.839 29.224 314.895 30.256C315.951 31.288 317.523 31.804 319.611 31.804C321.411 31.804 322.887 31.588 324.039 31.156C325.215 30.7 325.995 30.256 326.379 29.824V30.544L326.739 32.92C326.211 33.232 325.275 33.556 323.931 33.892C322.611 34.204 320.991 34.36 319.071 34.36ZM314.751 23.668H323.499C323.499 23.044 323.367 22.396 323.103 21.724C322.839 21.052 322.371 20.488 321.699 20.032C321.027 19.552 320.079 19.312 318.855 19.312C317.295 19.312 316.047 19.684 315.111 20.428C314.199 21.172 313.743 22.012 313.743 22.948C313.743 23.188 313.815 23.368 313.959 23.488C314.103 23.608 314.367 23.668 314.751 23.668Z" fill="black"/>
</svg>
