<svg width="792" height="612" viewBox="0 0 792 612" fill="none" xmlns="http://www.w3.org/2000/svg">
<rect width="792" height="612" fill="white"/>
<rect x="64" y="196" width="60" height="60" rx="10" fill="#3A40A0"/>
<rect x="144" y="196" width="60" height="60" rx="10" fill="#4670D3"/>
<rect x="224" y="196" width="60" height="60" rx="10" fill="#4D91F6"/>
<rect x="304" y="196" width="60" height="60" rx="10" fill="#98C7FD"/>
<rect x="64" y="77" width="60" height="60" rx="10" fill="#E97801"/>
<rect x="144" y="77" width="60" height="60" rx="10" fill="#F39303"/>
<rect x="224" y="77" width="60" height="60" rx="10" fill="#F6B24D"/>
<rect x="304" y="77" width="60" height="60" rx="10" fill="#FBDEB1"/>
<g filter="url(#filter0_d)">
<rect x="384" y="77" width="60" height="60" rx="10" fill="#FDF2E0"/>
</g>
<g filter="url(#filter1_d)">
<rect x="384" y="196" width="60" height="60" rx="10" fill="#E4F1FE"/>
</g>
<path d="M71.56 309.12L71.434 310.452H68.662V321H66.556V310.452H63.73V309.12H71.56ZM76.8046 315.51V321H74.6986V315.726L71.2426 309.12H73.5466L75.8866 313.998L78.1006 309.12H80.2606L76.8046 315.51ZM89.0249 312.468C89.0249 313.512 88.7189 314.358 88.1069 315.006C87.4949 315.642 86.6729 315.96 85.6409 315.96C85.2569 315.96 84.9209 315.9 84.6329 315.78C84.3449 315.648 84.2009 315.432 84.2009 315.132C85.1129 315.132 85.7849 314.922 86.2169 314.502C86.6489 314.082 86.8649 313.428 86.8649 312.54C86.8649 311.784 86.6789 311.226 86.3069 310.866C85.9469 310.494 85.3889 310.308 84.6329 310.308C84.2609 310.308 83.8769 310.338 83.4809 310.398V321H81.3749V309.192C82.7909 309.096 83.9189 309.048 84.7589 309.048C86.1269 309.048 87.1769 309.318 87.9089 309.858C88.6529 310.386 89.0249 311.256 89.0249 312.468ZM94.445 308.76C97.517 308.76 99.053 310.806 99.053 314.898C99.053 319.23 97.517 321.396 94.445 321.396C92.765 321.396 91.571 320.838 90.863 319.722C90.167 318.606 89.819 317.07 89.819 315.114C89.819 313.194 90.179 311.658 90.899 310.506C91.631 309.342 92.813 308.76 94.445 308.76ZM94.445 320.136C95.405 320.136 96.035 319.662 96.335 318.714C96.635 317.754 96.785 316.524 96.785 315.024C96.785 313.596 96.629 312.408 96.317 311.46C96.005 310.5 95.381 310.02 94.445 310.02C93.497 310.02 92.867 310.5 92.555 311.46C92.243 312.408 92.087 313.596 92.087 315.024C92.087 316.524 92.237 317.754 92.537 318.714C92.837 319.662 93.473 320.136 94.445 320.136ZM104.994 310.02C104.034 310.02 103.386 310.5 103.05 311.46C102.714 312.408 102.546 313.596 102.546 315.024C102.546 316.488 102.714 317.682 103.05 318.606C103.386 319.53 104.064 319.992 105.084 319.992C105.648 319.992 106.164 319.914 106.632 319.758L106.56 315.546L108.522 315.294V320.658C108.09 320.886 107.538 321.066 106.866 321.198C106.194 321.33 105.582 321.396 105.03 321.396C103.326 321.396 102.108 320.844 101.376 319.74C100.644 318.624 100.278 317.082 100.278 315.114C100.278 313.17 100.662 311.628 101.43 310.488C102.21 309.336 103.452 308.76 105.156 308.76C106.224 308.76 107.088 308.97 107.748 309.39C108.408 309.81 108.738 310.476 108.738 311.388C108.738 311.82 108.612 312.174 108.36 312.45C108.108 312.714 107.766 312.846 107.334 312.846C106.938 312.846 106.626 312.75 106.398 312.558C106.494 312.294 106.542 311.994 106.542 311.658C106.542 311.142 106.41 310.74 106.146 310.452C105.882 310.164 105.498 310.02 104.994 310.02ZM118.222 312.378C118.222 313.194 118.012 313.89 117.592 314.466C117.184 315.042 116.62 315.432 115.9 315.636L119.032 321H116.728L113.524 315.312C113.452 315.18 113.416 315.06 113.416 314.952C114.316 314.952 114.982 314.754 115.414 314.358C115.846 313.95 116.062 313.314 116.062 312.45C116.062 311.73 115.876 311.196 115.504 310.848C115.144 310.488 114.586 310.308 113.83 310.308C113.458 310.308 113.074 310.338 112.678 310.398V321H110.572V309.192C111.988 309.096 113.116 309.048 113.956 309.048C116.8 309.048 118.222 310.158 118.222 312.378ZM125.031 309.12L128.109 321H125.985L125.265 317.976H121.737L121.035 321H119.055L122.349 309.12H125.031ZM122.061 316.644H124.959L123.501 310.47L122.061 316.644ZM136.837 312.468C136.837 313.512 136.531 314.358 135.919 315.006C135.307 315.642 134.485 315.96 133.453 315.96C133.069 315.96 132.733 315.9 132.445 315.78C132.157 315.648 132.013 315.432 132.013 315.132C132.925 315.132 133.597 314.922 134.029 314.502C134.461 314.082 134.677 313.428 134.677 312.54C134.677 311.784 134.491 311.226 134.119 310.866C133.759 310.494 133.201 310.308 132.445 310.308C132.073 310.308 131.689 310.338 131.293 310.398V321H129.187V309.192C130.603 309.096 131.731 309.048 132.571 309.048C133.939 309.048 134.989 309.318 135.721 309.858C136.465 310.386 136.837 311.256 136.837 312.468ZM146.344 309.12V321H144.238V315.654H140.206V321H138.1V309.12H140.206V314.322H144.238V309.12H146.344ZM153.006 315.51V321H150.9V315.726L147.444 309.12H149.748L152.088 313.998L154.302 309.12H156.462L153.006 315.51Z" fill="black"/>
<path d="M301.186 309.12V321H299.08V309.12H301.186ZM307.401 310.02C306.489 310.02 305.883 310.5 305.583 311.46C305.295 312.408 305.151 313.596 305.151 315.024C305.151 316.452 305.307 317.598 305.619 318.462C305.931 319.314 306.585 319.74 307.581 319.74C308.205 319.74 308.739 319.566 309.183 319.218C309.627 318.87 309.945 318.39 310.137 317.778C310.389 317.862 310.569 317.994 310.677 318.174C310.785 318.342 310.839 318.564 310.839 318.84C310.839 319.38 310.671 319.842 310.335 320.226C310.011 320.61 309.585 320.898 309.057 321.09C308.541 321.294 307.989 321.396 307.401 321.396C305.769 321.396 304.605 320.832 303.909 319.704C303.225 318.576 302.883 317.046 302.883 315.114C302.883 313.194 303.249 311.658 303.981 310.506C304.725 309.342 305.919 308.76 307.563 308.76C308.619 308.76 309.459 308.97 310.083 309.39C310.719 309.81 311.037 310.476 311.037 311.388C311.037 311.82 310.911 312.174 310.659 312.45C310.407 312.714 310.065 312.846 309.633 312.846C309.213 312.846 308.901 312.75 308.697 312.558C308.793 312.294 308.841 311.994 308.841 311.658C308.841 310.566 308.361 310.02 307.401 310.02ZM316.72 308.76C319.792 308.76 321.328 310.806 321.328 314.898C321.328 319.23 319.792 321.396 316.72 321.396C315.04 321.396 313.846 320.838 313.138 319.722C312.442 318.606 312.094 317.07 312.094 315.114C312.094 313.194 312.454 311.658 313.174 310.506C313.906 309.342 315.088 308.76 316.72 308.76ZM316.72 320.136C317.68 320.136 318.31 319.662 318.61 318.714C318.91 317.754 319.06 316.524 319.06 315.024C319.06 313.596 318.904 312.408 318.592 311.46C318.28 310.5 317.656 310.02 316.72 310.02C315.772 310.02 315.142 310.5 314.83 311.46C314.518 312.408 314.362 313.596 314.362 315.024C314.362 316.524 314.512 317.754 314.812 318.714C315.112 319.662 315.748 320.136 316.72 320.136ZM329.483 321L324.713 312.864V321H323.021V309.12H324.623L329.393 317.256V309.12H331.085V321H329.483ZM337.41 308.76C340.482 308.76 342.018 310.806 342.018 314.898C342.018 319.23 340.482 321.396 337.41 321.396C335.73 321.396 334.536 320.838 333.828 319.722C333.132 318.606 332.784 317.07 332.784 315.114C332.784 313.194 333.144 311.658 333.864 310.506C334.596 309.342 335.778 308.76 337.41 308.76ZM337.41 320.136C338.37 320.136 339 319.662 339.3 318.714C339.6 317.754 339.75 316.524 339.75 315.024C339.75 313.596 339.594 312.408 339.282 311.46C338.97 310.5 338.346 310.02 337.41 310.02C336.462 310.02 335.832 310.5 335.52 311.46C335.208 312.408 335.052 313.596 335.052 315.024C335.052 316.524 335.202 317.754 335.502 318.714C335.802 319.662 336.438 320.136 337.41 320.136ZM347.959 310.02C346.999 310.02 346.351 310.5 346.015 311.46C345.679 312.408 345.511 313.596 345.511 315.024C345.511 316.488 345.679 317.682 346.015 318.606C346.351 319.53 347.029 319.992 348.049 319.992C348.613 319.992 349.129 319.914 349.597 319.758L349.525 315.546L351.487 315.294V320.658C351.055 320.886 350.503 321.066 349.831 321.198C349.159 321.33 348.547 321.396 347.995 321.396C346.291 321.396 345.073 320.844 344.341 319.74C343.609 318.624 343.243 317.082 343.243 315.114C343.243 313.17 343.627 311.628 344.395 310.488C345.175 309.336 346.417 308.76 348.121 308.76C349.189 308.76 350.053 308.97 350.713 309.39C351.373 309.81 351.703 310.476 351.703 311.388C351.703 311.82 351.577 312.174 351.325 312.45C351.073 312.714 350.731 312.846 350.299 312.846C349.903 312.846 349.591 312.75 349.363 312.558C349.459 312.294 349.507 311.994 349.507 311.658C349.507 311.142 349.375 310.74 349.111 310.452C348.847 310.164 348.463 310.02 347.959 310.02ZM361.187 312.378C361.187 313.194 360.977 313.89 360.557 314.466C360.149 315.042 359.585 315.432 358.865 315.636L361.997 321H359.693L356.489 315.312C356.417 315.18 356.381 315.06 356.381 314.952C357.281 314.952 357.947 314.754 358.379 314.358C358.811 313.95 359.027 313.314 359.027 312.45C359.027 311.73 358.841 311.196 358.469 310.848C358.109 310.488 357.551 310.308 356.795 310.308C356.423 310.308 356.039 310.338 355.643 310.398V321H353.537V309.192C354.953 309.096 356.081 309.048 356.921 309.048C359.765 309.048 361.187 310.158 361.187 312.378ZM367.996 309.12L371.074 321H368.95L368.23 317.976H364.702L364 321H362.02L365.314 309.12H367.996ZM365.026 316.644H367.924L366.466 310.47L365.026 316.644ZM379.802 312.468C379.802 313.512 379.496 314.358 378.884 315.006C378.272 315.642 377.45 315.96 376.418 315.96C376.034 315.96 375.698 315.9 375.41 315.78C375.122 315.648 374.978 315.432 374.978 315.132C375.89 315.132 376.562 314.922 376.994 314.502C377.426 314.082 377.642 313.428 377.642 312.54C377.642 311.784 377.456 311.226 377.084 310.866C376.724 310.494 376.166 310.308 375.41 310.308C375.038 310.308 374.654 310.338 374.258 310.398V321H372.152V309.192C373.568 309.096 374.696 309.048 375.536 309.048C376.904 309.048 377.954 309.318 378.686 309.858C379.43 310.386 379.802 311.256 379.802 312.468ZM389.308 309.12V321H387.202V315.654H383.17V321H381.064V309.12H383.17V314.322H387.202V309.12H389.308ZM395.971 315.51V321H393.865V315.726L390.409 309.12H392.713L395.053 313.998L397.267 309.12H399.427L395.971 315.51Z" fill="black"/>
<path d="M69.13 44.02C68.218 44.02 67.612 44.5 67.312 45.46C67.024 46.408 66.88 47.596 66.88 49.024C66.88 50.452 67.036 51.598 67.348 52.462C67.66 53.314 68.314 53.74 69.31 53.74C69.934 53.74 70.468 53.566 70.912 53.218C71.356 52.87 71.674 52.39 71.866 51.778C72.118 51.862 72.298 51.994 72.406 52.174C72.514 52.342 72.568 52.564 72.568 52.84C72.568 53.38 72.4 53.842 72.064 54.226C71.74 54.61 71.314 54.898 70.786 55.09C70.27 55.294 69.718 55.396 69.13 55.396C67.498 55.396 66.334 54.832 65.638 53.704C64.954 52.576 64.612 51.046 64.612 49.114C64.612 47.194 64.978 45.658 65.71 44.506C66.454 43.342 67.648 42.76 69.292 42.76C70.348 42.76 71.188 42.97 71.812 43.39C72.448 43.81 72.766 44.476 72.766 45.388C72.766 45.82 72.64 46.174 72.388 46.45C72.136 46.714 71.794 46.846 71.362 46.846C70.942 46.846 70.63 46.75 70.426 46.558C70.522 46.294 70.57 45.994 70.57 45.658C70.57 44.566 70.09 44.02 69.13 44.02ZM78.4489 42.76C81.5209 42.76 83.0569 44.806 83.0569 48.898C83.0569 53.23 81.5209 55.396 78.4489 55.396C76.7689 55.396 75.5749 54.838 74.8669 53.722C74.1709 52.606 73.8229 51.07 73.8229 49.114C73.8229 47.194 74.1829 45.658 74.9029 44.506C75.6349 43.342 76.8169 42.76 78.4489 42.76ZM78.4489 54.136C79.4089 54.136 80.0389 53.662 80.3389 52.714C80.6389 51.754 80.7889 50.524 80.7889 49.024C80.7889 47.596 80.6329 46.408 80.3209 45.46C80.0089 44.5 79.3849 44.02 78.4489 44.02C77.5009 44.02 76.8709 44.5 76.5589 45.46C76.2469 46.408 76.0909 47.596 76.0909 49.024C76.0909 50.524 76.2409 51.754 76.5409 52.714C76.8409 53.662 77.4769 54.136 78.4489 54.136ZM84.7499 43.12H86.8559V53.668H90.7799L90.6539 55H84.7499V43.12ZM96.115 42.76C99.187 42.76 100.723 44.806 100.723 48.898C100.723 53.23 99.187 55.396 96.115 55.396C94.435 55.396 93.241 54.838 92.533 53.722C91.837 52.606 91.489 51.07 91.489 49.114C91.489 47.194 91.849 45.658 92.569 44.506C93.301 43.342 94.483 42.76 96.115 42.76ZM96.115 54.136C97.075 54.136 97.705 53.662 98.005 52.714C98.305 51.754 98.455 50.524 98.455 49.024C98.455 47.596 98.299 46.408 97.987 45.46C97.675 44.5 97.051 44.02 96.115 44.02C95.167 44.02 94.537 44.5 94.225 45.46C93.913 46.408 93.757 47.596 93.757 49.024C93.757 50.524 93.907 51.754 94.207 52.714C94.507 53.662 95.143 54.136 96.115 54.136ZM110.066 46.378C110.066 47.194 109.856 47.89 109.436 48.466C109.028 49.042 108.464 49.432 107.744 49.636L110.876 55H108.572L105.368 49.312C105.296 49.18 105.26 49.06 105.26 48.952C106.16 48.952 106.826 48.754 107.258 48.358C107.69 47.95 107.906 47.314 107.906 46.45C107.906 45.73 107.72 45.196 107.348 44.848C106.988 44.488 106.43 44.308 105.674 44.308C105.302 44.308 104.918 44.338 104.522 44.398V55H102.416V43.192C103.832 43.096 104.96 43.048 105.8 43.048C108.644 43.048 110.066 44.158 110.066 46.378Z" fill="black"/>
<path d="M231.51 149.2C232.761 149.2 233.741 149.499 234.45 150.096C235.159 150.693 235.514 151.515 235.514 152.56C235.514 153.605 235.159 154.427 234.45 155.024C233.741 155.612 232.761 155.906 231.51 155.906H228.878V159H227.842V149.2H231.51ZM231.482 154.996C232.453 154.996 233.195 154.786 233.708 154.366C234.221 153.937 234.478 153.335 234.478 152.56C234.478 151.767 234.221 151.16 233.708 150.74C233.195 150.311 232.453 150.096 231.482 150.096H228.878V154.996H231.482ZM238.305 153.078C238.538 152.583 238.883 152.21 239.341 151.958C239.807 151.706 240.381 151.58 241.063 151.58V152.546L240.825 152.532C240.05 152.532 239.443 152.77 239.005 153.246C238.566 153.722 238.347 154.389 238.347 155.248V159H237.353V151.636H238.305V153.078ZM242.863 151.636H243.857V159H242.863V151.636ZM243.367 150.026C243.161 150.026 242.989 149.956 242.849 149.816C242.709 149.676 242.639 149.508 242.639 149.312C242.639 149.125 242.709 148.962 242.849 148.822C242.989 148.682 243.161 148.612 243.367 148.612C243.572 148.612 243.745 148.682 243.885 148.822C244.025 148.953 244.095 149.111 244.095 149.298C244.095 149.503 244.025 149.676 243.885 149.816C243.745 149.956 243.572 150.026 243.367 150.026ZM255.806 151.58C256.73 151.58 257.454 151.846 257.976 152.378C258.508 152.91 258.774 153.694 258.774 154.73V159H257.78V154.828C257.78 154.063 257.594 153.479 257.22 153.078C256.856 152.677 256.338 152.476 255.666 152.476C254.901 152.476 254.299 152.714 253.86 153.19C253.422 153.657 253.202 154.305 253.202 155.136V159H252.208V154.828C252.208 154.063 252.022 153.479 251.648 153.078C251.284 152.677 250.762 152.476 250.08 152.476C249.324 152.476 248.722 152.714 248.274 153.19C247.836 153.657 247.616 154.305 247.616 155.136V159H246.622V151.636H247.574V152.98C247.836 152.532 248.2 152.187 248.666 151.944C249.133 151.701 249.67 151.58 250.276 151.58C250.892 151.58 251.424 151.711 251.872 151.972C252.33 152.233 252.67 152.621 252.894 153.134C253.165 152.649 253.552 152.271 254.056 152C254.57 151.72 255.153 151.58 255.806 151.58ZM264.046 151.58C265.007 151.58 265.745 151.823 266.258 152.308C266.771 152.784 267.028 153.493 267.028 154.436V159H266.076V157.852C265.852 158.235 265.521 158.533 265.082 158.748C264.653 158.963 264.139 159.07 263.542 159.07C262.721 159.07 262.067 158.874 261.582 158.482C261.097 158.09 260.854 157.572 260.854 156.928C260.854 156.303 261.078 155.799 261.526 155.416C261.983 155.033 262.707 154.842 263.696 154.842H266.034V154.394C266.034 153.759 265.857 153.279 265.502 152.952C265.147 152.616 264.629 152.448 263.948 152.448C263.481 152.448 263.033 152.527 262.604 152.686C262.175 152.835 261.806 153.045 261.498 153.316L261.05 152.574C261.423 152.257 261.871 152.014 262.394 151.846C262.917 151.669 263.467 151.58 264.046 151.58ZM263.696 158.286C264.256 158.286 264.737 158.16 265.138 157.908C265.539 157.647 265.838 157.273 266.034 156.788V155.584H263.724C262.464 155.584 261.834 156.023 261.834 156.9C261.834 157.329 261.997 157.67 262.324 157.922C262.651 158.165 263.108 158.286 263.696 158.286ZM270.68 153.078C270.913 152.583 271.258 152.21 271.716 151.958C272.182 151.706 272.756 151.58 273.438 151.58V152.546L273.2 152.532C272.425 152.532 271.818 152.77 271.38 153.246C270.941 153.722 270.722 154.389 270.722 155.248V159H269.728V151.636H270.68V153.078ZM281.74 151.636L278.058 159.882C277.759 160.573 277.414 161.063 277.022 161.352C276.63 161.641 276.159 161.786 275.608 161.786C275.253 161.786 274.922 161.73 274.614 161.618C274.306 161.506 274.04 161.338 273.816 161.114L274.278 160.372C274.651 160.745 275.099 160.932 275.622 160.932C275.958 160.932 276.243 160.839 276.476 160.652C276.719 160.465 276.943 160.148 277.148 159.7L277.47 158.986L274.18 151.636H275.216L277.988 157.894L280.76 151.636H281.74Z" fill="black"/>
<path d="M220.665 278.084C219.937 278.084 219.237 277.967 218.565 277.734C217.903 277.501 217.389 277.193 217.025 276.81L217.431 276.012C217.786 276.367 218.257 276.656 218.845 276.88C219.433 277.095 220.04 277.202 220.665 277.202C221.543 277.202 222.201 277.043 222.639 276.726C223.078 276.399 223.297 275.979 223.297 275.466C223.297 275.074 223.176 274.761 222.933 274.528C222.7 274.295 222.411 274.117 222.065 273.996C221.72 273.865 221.239 273.725 220.623 273.576C219.886 273.389 219.298 273.212 218.859 273.044C218.421 272.867 218.043 272.601 217.725 272.246C217.417 271.891 217.263 271.411 217.263 270.804C217.263 270.309 217.394 269.861 217.655 269.46C217.917 269.049 218.318 268.723 218.859 268.48C219.401 268.237 220.073 268.116 220.875 268.116C221.435 268.116 221.981 268.195 222.513 268.354C223.055 268.503 223.521 268.713 223.913 268.984L223.563 269.81C223.153 269.539 222.714 269.339 222.247 269.208C221.781 269.068 221.323 268.998 220.875 268.998C220.017 268.998 219.368 269.166 218.929 269.502C218.5 269.829 218.285 270.253 218.285 270.776C218.285 271.168 218.402 271.485 218.635 271.728C218.878 271.961 219.177 272.143 219.531 272.274C219.895 272.395 220.381 272.531 220.987 272.68C221.706 272.857 222.285 273.035 222.723 273.212C223.171 273.38 223.549 273.641 223.857 273.996C224.165 274.341 224.319 274.813 224.319 275.41C224.319 275.905 224.184 276.357 223.913 276.768C223.652 277.169 223.246 277.491 222.695 277.734C222.145 277.967 221.468 278.084 220.665 278.084ZM232.778 274.626H226.618C226.674 275.391 226.968 276.012 227.5 276.488C228.032 276.955 228.704 277.188 229.516 277.188C229.974 277.188 230.394 277.109 230.776 276.95C231.159 276.782 231.49 276.539 231.77 276.222L232.33 276.866C232.004 277.258 231.593 277.557 231.098 277.762C230.613 277.967 230.076 278.07 229.488 278.07C228.732 278.07 228.06 277.911 227.472 277.594C226.894 277.267 226.441 276.819 226.114 276.25C225.788 275.681 225.624 275.037 225.624 274.318C225.624 273.599 225.778 272.955 226.086 272.386C226.404 271.817 226.833 271.373 227.374 271.056C227.925 270.739 228.541 270.58 229.222 270.58C229.904 270.58 230.515 270.739 231.056 271.056C231.598 271.373 232.022 271.817 232.33 272.386C232.638 272.946 232.792 273.59 232.792 274.318L232.778 274.626ZM229.222 271.434C228.513 271.434 227.916 271.663 227.43 272.12C226.954 272.568 226.684 273.156 226.618 273.884H231.84C231.775 273.156 231.5 272.568 231.014 272.12C230.538 271.663 229.941 271.434 229.222 271.434ZM237.868 278.07C237.14 278.07 236.486 277.911 235.908 277.594C235.338 277.277 234.89 276.833 234.564 276.264C234.237 275.685 234.074 275.037 234.074 274.318C234.074 273.599 234.237 272.955 234.564 272.386C234.89 271.817 235.338 271.373 235.908 271.056C236.486 270.739 237.14 270.58 237.868 270.58C238.502 270.58 239.067 270.706 239.562 270.958C240.066 271.201 240.462 271.56 240.752 272.036L240.01 272.54C239.767 272.176 239.459 271.905 239.086 271.728C238.712 271.541 238.306 271.448 237.868 271.448C237.336 271.448 236.855 271.569 236.426 271.812C236.006 272.045 235.674 272.381 235.432 272.82C235.198 273.259 235.082 273.758 235.082 274.318C235.082 274.887 235.198 275.391 235.432 275.83C235.674 276.259 236.006 276.595 236.426 276.838C236.855 277.071 237.336 277.188 237.868 277.188C238.306 277.188 238.712 277.099 239.086 276.922C239.459 276.745 239.767 276.474 240.01 276.11L240.752 276.614C240.462 277.09 240.066 277.454 239.562 277.706C239.058 277.949 238.493 278.07 237.868 278.07ZM245.591 278.07C244.882 278.07 244.243 277.911 243.673 277.594C243.104 277.267 242.656 276.819 242.329 276.25C242.003 275.681 241.839 275.037 241.839 274.318C241.839 273.599 242.003 272.955 242.329 272.386C242.656 271.817 243.104 271.373 243.673 271.056C244.243 270.739 244.882 270.58 245.591 270.58C246.301 270.58 246.94 270.739 247.509 271.056C248.079 271.373 248.522 271.817 248.839 272.386C249.166 272.955 249.329 273.599 249.329 274.318C249.329 275.037 249.166 275.681 248.839 276.25C248.522 276.819 248.079 277.267 247.509 277.594C246.94 277.911 246.301 278.07 245.591 278.07ZM245.591 277.188C246.114 277.188 246.581 277.071 246.991 276.838C247.411 276.595 247.738 276.255 247.971 275.816C248.205 275.377 248.321 274.878 248.321 274.318C248.321 273.758 248.205 273.259 247.971 272.82C247.738 272.381 247.411 272.045 246.991 271.812C246.581 271.569 246.114 271.448 245.591 271.448C245.069 271.448 244.597 271.569 244.177 271.812C243.767 272.045 243.44 272.381 243.197 272.82C242.964 273.259 242.847 273.758 242.847 274.318C242.847 274.878 242.964 275.377 243.197 275.816C243.44 276.255 243.767 276.595 244.177 276.838C244.597 277.071 245.069 277.188 245.591 277.188ZM255.111 270.58C256.035 270.58 256.767 270.851 257.309 271.392C257.859 271.924 258.135 272.703 258.135 273.73V278H257.141V273.828C257.141 273.063 256.949 272.479 256.567 272.078C256.184 271.677 255.638 271.476 254.929 271.476C254.135 271.476 253.505 271.714 253.039 272.19C252.581 272.657 252.353 273.305 252.353 274.136V278H251.359V270.636H252.311V271.994C252.581 271.546 252.955 271.201 253.431 270.958C253.916 270.706 254.476 270.58 255.111 270.58ZM267.581 267.612V278H266.629V276.544C266.33 277.039 265.933 277.417 265.439 277.678C264.953 277.939 264.403 278.07 263.787 278.07C263.096 278.07 262.471 277.911 261.911 277.594C261.351 277.277 260.912 276.833 260.595 276.264C260.277 275.695 260.119 275.046 260.119 274.318C260.119 273.59 260.277 272.941 260.595 272.372C260.912 271.803 261.351 271.364 261.911 271.056C262.471 270.739 263.096 270.58 263.787 270.58C264.384 270.58 264.921 270.706 265.397 270.958C265.882 271.201 266.279 271.56 266.587 272.036V267.612H267.581ZM263.871 277.188C264.384 277.188 264.846 277.071 265.257 276.838C265.677 276.595 266.003 276.255 266.237 275.816C266.479 275.377 266.601 274.878 266.601 274.318C266.601 273.758 266.479 273.259 266.237 272.82C266.003 272.381 265.677 272.045 265.257 271.812C264.846 271.569 264.384 271.448 263.871 271.448C263.348 271.448 262.877 271.569 262.457 271.812C262.046 272.045 261.719 272.381 261.477 272.82C261.243 273.259 261.127 273.758 261.127 274.318C261.127 274.878 261.243 275.377 261.477 275.816C261.719 276.255 262.046 276.595 262.457 276.838C262.877 277.071 263.348 277.188 263.871 277.188ZM272.925 270.58C273.886 270.58 274.624 270.823 275.137 271.308C275.65 271.784 275.907 272.493 275.907 273.436V278H274.955V276.852C274.731 277.235 274.4 277.533 273.961 277.748C273.532 277.963 273.018 278.07 272.421 278.07C271.6 278.07 270.946 277.874 270.461 277.482C269.976 277.09 269.733 276.572 269.733 275.928C269.733 275.303 269.957 274.799 270.405 274.416C270.862 274.033 271.586 273.842 272.575 273.842H274.913V273.394C274.913 272.759 274.736 272.279 274.381 271.952C274.026 271.616 273.508 271.448 272.827 271.448C272.36 271.448 271.912 271.527 271.483 271.686C271.054 271.835 270.685 272.045 270.377 272.316L269.929 271.574C270.302 271.257 270.75 271.014 271.273 270.846C271.796 270.669 272.346 270.58 272.925 270.58ZM272.575 277.286C273.135 277.286 273.616 277.16 274.017 276.908C274.418 276.647 274.717 276.273 274.913 275.788V274.584H272.603C271.343 274.584 270.713 275.023 270.713 275.9C270.713 276.329 270.876 276.67 271.203 276.922C271.53 277.165 271.987 277.286 272.575 277.286ZM279.559 272.078C279.792 271.583 280.137 271.21 280.595 270.958C281.061 270.706 281.635 270.58 282.317 270.58V271.546L282.079 271.532C281.304 271.532 280.697 271.77 280.259 272.246C279.82 272.722 279.601 273.389 279.601 274.248V278H278.607V270.636H279.559V272.078ZM290.619 270.636L286.937 278.882C286.638 279.573 286.293 280.063 285.901 280.352C285.509 280.641 285.038 280.786 284.487 280.786C284.132 280.786 283.801 280.73 283.493 280.618C283.185 280.506 282.919 280.338 282.695 280.114L283.157 279.372C283.53 279.745 283.978 279.932 284.501 279.932C284.837 279.932 285.122 279.839 285.355 279.652C285.598 279.465 285.822 279.148 286.027 278.7L286.349 277.986L283.059 270.636H284.095L286.867 276.894L289.639 270.636H290.619Z" fill="black"/>
<path opacity="0.3" d="M310 349C306.21 349 302.83 351.13 301.18 354.5C302.83 357.87 306.21 360 310 360C313.79 360 317.17 357.87 318.82 354.5C317.17 351.13 313.79 349 310 349ZM310 359C307.52 359 305.5 356.98 305.5 354.5C305.5 352.02 307.52 350 310 350C312.48 350 314.5 352.02 314.5 354.5C314.5 356.98 312.48 359 310 359Z" fill="#48A3CB"/>
<path d="M310 347C305 347 300.73 350.11 299 354.5C300.73 358.89 305 362 310 362C315 362 319.27 358.89 321 354.5C319.27 350.11 315 347 310 347ZM310 360C306.21 360 302.83 357.87 301.18 354.5C302.83 351.13 306.21 349 310 349C313.79 349 317.17 351.13 318.82 354.5C317.17 357.87 313.79 360 310 360ZM310 350C307.52 350 305.5 352.02 305.5 354.5C305.5 356.98 307.52 359 310 359C312.48 359 314.5 356.98 314.5 354.5C314.5 352.02 312.48 350 310 350ZM310 357C308.62 357 307.5 355.88 307.5 354.5C307.5 353.12 308.62 352 310 352C311.38 352 312.5 353.12 312.5 354.5C312.5 355.88 311.38 357 310 357Z" fill="#48A3CB"/>
<path opacity="0.3" d="M338 352H346V362H338V352Z" fill="#48A3CB"/>
<path d="M345.5 347L344.5 346H339.5L338.5 347H335V349H349V347H345.5ZM336 362C336 363.1 336.9 364 338 364H346C347.1 364 348 363.1 348 362V350H336V362ZM338 352H346V362H338V352Z" fill="#48A3CB"/>
<path d="M336 398C336 399.1 336.9 400 338 400H346C347.1 400 348 399.1 348 398V388C348 386.9 347.1 386 346 386H338C336.9 386 336 386.9 336 388V398ZM348 383H345.5L344.79 382.29C344.61 382.11 344.35 382 344.09 382H339.91C339.65 382 339.39 382.11 339.21 382.29L338.5 383H336C335.45 383 335 383.45 335 384C335 384.55 335.45 385 336 385H348C348.55 385 349 384.55 349 384C349 383.45 348.55 383 348 383Z" fill="#48A3CB"/>
<path opacity="0.3" d="M378.5 348C376.96 348 375.46 348.99 374.94 350.36H373.07C372.54 348.99 371.04 348 369.5 348C367.5 348 366 349.5 366 351.5C366 354.39 369.14 357.24 373.9 361.55L374 361.65L374.1 361.55C378.86 357.24 382 354.39 382 351.5C382 349.5 380.5 348 378.5 348Z" fill="#48A3CB"/>
<path d="M378.5 346C376.76 346 375.09 346.81 374 348.09C372.91 346.81 371.24 346 369.5 346C366.42 346 364 348.42 364 351.5C364 355.28 367.4 358.36 372.55 363.04L374 364.35L375.45 363.03C380.6 358.36 384 355.28 384 351.5C384 348.42 381.58 346 378.5 346ZM374.1 361.55L374 361.65L373.9 361.55C369.14 357.24 366 354.39 366 351.5C366 349.5 367.5 348 369.5 348C371.04 348 372.54 348.99 373.07 350.36H374.94C375.46 348.99 376.96 348 378.5 348C380.5 348 382 349.5 382 351.5C382 354.39 378.86 357.24 374.1 361.55Z" fill="#48A3CB"/>
<path d="M375.35 399.13C374.59 399.82 373.42 399.82 372.66 399.12L372.55 399.02C367.3 394.27 363.87 391.16 364 387.28C364.06 385.58 364.93 383.95 366.34 382.99C368.98 381.19 372.24 382.03 374 384.09C375.76 382.03 379.02 381.18 381.66 382.99C383.07 383.95 383.94 385.58 384 387.28C384.14 391.16 380.7 394.27 375.45 399.04L375.35 399.13Z" fill="#48A3CB"/>
<path opacity="0.3" d="M415 355V353H406L407.34 347.66L403 352V362H412L415 355Z" fill="#48A3CB"/>
<path d="M403 364H412C412.83 364 413.54 363.5 413.84 362.78L416.86 355.73C416.95 355.5 417 355.26 417 355V353C417 351.9 416.1 351 415 351H408.69L409.64 346.43L409.67 346.11C409.67 345.7 409.5 345.32 409.23 345.05L408.17 344L401.58 350.59C401.22 350.95 401 351.45 401 352V362C401 363.1 401.9 364 403 364ZM403 352L407.34 347.66L406 353H415V355L412 362H403V352ZM395 352H399V364H395V352Z" fill="#48A3CB"/>
<path d="M407.12 381.06L401.58 386.6C401.21 386.97 401 387.48 401 388.01V398C401 399.1 401.9 400 403 400H412C412.8 400 413.52 399.52 413.84 398.79L417.1 391.18C417.94 389.2 416.49 387 414.34 387H408.69L409.64 382.42C409.74 381.92 409.59 381.41 409.23 381.05C408.64 380.47 407.7 380.47 407.12 381.06ZM397 400C398.1 400 399 399.1 399 398V390C399 388.9 398.1 388 397 388C395.9 388 395 388.9 395 390V398C395 399.1 395.9 400 397 400Z" fill="#48A3CB"/>
<path d="M310 383C305 383 300.73 386.11 299 390.5C300.73 394.89 305 398 310 398C315 398 319.27 394.89 321 390.5C319.27 386.11 315 383 310 383ZM310 395.5C307.24 395.5 305 393.26 305 390.5C305 387.74 307.24 385.5 310 385.5C312.76 385.5 315 387.74 315 390.5C315 393.26 312.76 395.5 310 395.5ZM310 387.5C308.34 387.5 307 388.84 307 390.5C307 392.16 308.34 393.5 310 393.5C311.66 393.5 313 392.16 313 390.5C313 388.84 311.66 387.5 310 387.5Z" fill="#48A3CB"/>
<path opacity="0.3" d="M675.37 21.51C675.19 22.15 675.1 22.82 675.1 23.5C675.1 27.58 678.42 30.9 682.5 30.9C683.18 30.9 683.85 30.81 684.49 30.63C683.45 33.19 680.93 35 678 35C674.14 35 671 31.86 671 28C671 25.07 672.81 22.55 675.37 21.51Z" fill="#0868AD"/>
<path d="M675.37 21.51C675.19 22.15 675.1 22.82 675.1 23.5C675.1 27.58 678.42 30.9 682.5 30.9C683.18 30.9 683.85 30.81 684.49 30.63C683.45 33.19 680.93 35 678 35C674.14 35 671 31.86 671 28C671 25.07 672.81 22.55 675.37 21.51ZM678 19C673.03 19 669 23.03 669 28C669 32.97 673.03 37 678 37C682.97 37 687 32.97 687 28C687 27.54 686.96 27.08 686.9 26.64C685.92 28.01 684.32 28.9 682.5 28.9C679.52 28.9 677.1 26.48 677.1 23.5C677.1 21.69 677.99 20.08 679.36 19.1C678.92 19.04 678.46 19 678 19Z" fill="#0868AD"/>
<path d="M697.316 23.2H701.6C702.645 23.2 703.574 23.4053 704.386 23.816C705.198 24.2173 705.828 24.7913 706.276 25.538C706.724 26.2753 706.948 27.1293 706.948 28.1C706.948 29.0707 706.724 29.9293 706.276 30.676C705.828 31.4133 705.198 31.9873 704.386 32.398C703.574 32.7993 702.645 33 701.6 33H697.316V23.2ZM701.516 31.46C702.235 31.46 702.865 31.3247 703.406 31.054C703.957 30.774 704.377 30.382 704.666 29.878C704.965 29.3647 705.114 28.772 705.114 28.1C705.114 27.428 704.965 26.84 704.666 26.336C704.377 25.8227 703.957 25.4307 703.406 25.16C702.865 24.88 702.235 24.74 701.516 24.74H699.136V31.46H701.516ZM711.57 25.44C712.672 25.44 713.512 25.706 714.09 26.238C714.678 26.7607 714.972 27.554 714.972 28.618V33H713.32V32.09C713.106 32.4167 712.798 32.6687 712.396 32.846C712.004 33.014 711.528 33.098 710.968 33.098C710.408 33.098 709.918 33.0047 709.498 32.818C709.078 32.622 708.752 32.356 708.518 32.02C708.294 31.6747 708.182 31.2873 708.182 30.858C708.182 30.186 708.43 29.6493 708.924 29.248C709.428 28.8373 710.217 28.632 711.29 28.632H713.222V28.52C713.222 27.9973 713.064 27.596 712.746 27.316C712.438 27.036 711.976 26.896 711.36 26.896C710.94 26.896 710.525 26.9613 710.114 27.092C709.713 27.2227 709.372 27.4047 709.092 27.638L708.406 26.364C708.798 26.0653 709.27 25.8367 709.82 25.678C710.371 25.5193 710.954 25.44 711.57 25.44ZM711.332 31.824C711.771 31.824 712.158 31.726 712.494 31.53C712.84 31.3247 713.082 31.0353 713.222 30.662V29.794H711.416C710.408 29.794 709.904 30.1253 709.904 30.788C709.904 31.1053 710.03 31.3573 710.282 31.544C710.534 31.7307 710.884 31.824 711.332 31.824ZM718.884 26.616C719.388 25.832 720.275 25.44 721.544 25.44V27.106C721.395 27.078 721.26 27.064 721.138 27.064C720.457 27.064 719.925 27.2647 719.542 27.666C719.16 28.058 718.968 28.6273 718.968 29.374V33H717.218V25.524H718.884V26.616ZM726.081 29.794L724.779 31.026V33H723.029V22.612H724.779V28.884L728.405 25.524H730.505L727.383 28.66L730.799 33H728.671L726.081 29.794ZM744.968 33L744.954 26.504L741.734 31.88H740.922L737.702 26.588V33H735.966V23.2H737.464L741.356 29.696L745.178 23.2H746.676L746.69 33H744.968ZM752.529 33.098C751.773 33.098 751.092 32.9347 750.485 32.608C749.879 32.2813 749.403 31.8287 749.057 31.25C748.721 30.662 748.553 29.9993 748.553 29.262C748.553 28.5247 748.721 27.8667 749.057 27.288C749.403 26.7093 749.879 26.2567 750.485 25.93C751.092 25.6033 751.773 25.44 752.529 25.44C753.295 25.44 753.981 25.6033 754.587 25.93C755.194 26.2567 755.665 26.7093 756.001 27.288C756.347 27.8667 756.519 28.5247 756.519 29.262C756.519 29.9993 756.347 30.662 756.001 31.25C755.665 31.8287 755.194 32.2813 754.587 32.608C753.981 32.9347 753.295 33.098 752.529 33.098ZM752.529 31.6C753.173 31.6 753.705 31.3853 754.125 30.956C754.545 30.5267 754.755 29.962 754.755 29.262C754.755 28.562 754.545 27.9973 754.125 27.568C753.705 27.1387 753.173 26.924 752.529 26.924C751.885 26.924 751.353 27.1387 750.933 27.568C750.523 27.9973 750.317 28.562 750.317 29.262C750.317 29.962 750.523 30.5267 750.933 30.956C751.353 31.3853 751.885 31.6 752.529 31.6ZM765.515 22.612V33H763.835V32.034C763.546 32.3887 763.186 32.6547 762.757 32.832C762.337 33.0093 761.87 33.098 761.357 33.098C760.638 33.098 759.99 32.9393 759.411 32.622C758.842 32.3047 758.394 31.8567 758.067 31.278C757.74 30.69 757.577 30.018 757.577 29.262C757.577 28.506 757.74 27.8387 758.067 27.26C758.394 26.6813 758.842 26.2333 759.411 25.916C759.99 25.5987 760.638 25.44 761.357 25.44C761.852 25.44 762.304 25.524 762.715 25.692C763.126 25.86 763.476 26.112 763.765 26.448V22.612H765.515ZM761.567 31.6C761.987 31.6 762.365 31.5067 762.701 31.32C763.037 31.124 763.303 30.8487 763.499 30.494C763.695 30.1393 763.793 29.7287 763.793 29.262C763.793 28.7953 763.695 28.3847 763.499 28.03C763.303 27.6753 763.037 27.4047 762.701 27.218C762.365 27.022 761.987 26.924 761.567 26.924C761.147 26.924 760.769 27.022 760.433 27.218C760.097 27.4047 759.831 27.6753 759.635 28.03C759.439 28.3847 759.341 28.7953 759.341 29.262C759.341 29.7287 759.439 30.1393 759.635 30.494C759.831 30.8487 760.097 31.124 760.433 31.32C760.769 31.5067 761.147 31.6 761.567 31.6ZM774.832 29.304C774.832 29.4253 774.823 29.598 774.804 29.822H768.938C769.041 30.3727 769.307 30.8113 769.736 31.138C770.175 31.4553 770.716 31.614 771.36 31.614C772.182 31.614 772.858 31.3433 773.39 30.802L774.328 31.88C773.992 32.2813 773.568 32.5847 773.054 32.79C772.541 32.9953 771.962 33.098 771.318 33.098C770.497 33.098 769.774 32.9347 769.148 32.608C768.523 32.2813 768.038 31.8287 767.692 31.25C767.356 30.662 767.188 29.9993 767.188 29.262C767.188 28.534 767.352 27.8807 767.678 27.302C768.014 26.714 768.476 26.2567 769.064 25.93C769.652 25.6033 770.315 25.44 771.052 25.44C771.78 25.44 772.429 25.6033 772.998 25.93C773.577 26.2473 774.025 26.7 774.342 27.288C774.669 27.8667 774.832 28.5387 774.832 29.304ZM771.052 26.84C770.492 26.84 770.016 27.008 769.624 27.344C769.242 27.6707 769.008 28.1093 768.924 28.66H773.166C773.092 28.1187 772.863 27.68 772.48 27.344C772.098 27.008 771.622 26.84 771.052 26.84Z" fill="#0868AD"/>
<line x1="65" y1="326" x2="147" y2="326" stroke="black" stroke-width="2" stroke-linecap="round"/>
<line x1="299" y1="326" x2="381" y2="326" stroke="black" stroke-width="2" stroke-linecap="round"/>
<line x1="65" y1="60" x2="147" y2="60" stroke="black" stroke-width="2" stroke-linecap="round"/>
<path d="M72.6016 399.242C72.5859 399.195 72.6328 399.078 72.7422 398.891C72.8516 398.688 72.9688 398.445 73.0938 398.164C73.2344 397.867 73.3672 397.539 73.4922 397.18C73.6328 396.805 73.7266 396.422 73.7734 396.031C73.8359 395.641 73.8359 395.25 73.7734 394.859C73.7109 394.469 73.5469 394.094 73.2812 393.734C73.125 393.547 72.8906 393.445 72.5781 393.43C72.2812 393.398 71.9375 393.445 71.5469 393.57C71.1719 393.68 70.7734 393.859 70.3516 394.109C69.9453 394.344 69.5703 394.625 69.2266 394.953C68.8828 395.266 68.5859 395.617 68.3359 396.008C68.1016 396.398 67.9688 396.797 67.9375 397.203C67.9062 397.531 67.9141 397.836 67.9609 398.117C68.0234 398.398 68.1016 398.656 68.1953 398.891C68.2891 399.125 68.3906 399.344 68.5 399.547C68.6094 399.75 68.7109 399.93 68.8047 400.086C68.9297 400.305 69.125 400.547 69.3906 400.812C69.6562 401.078 69.9453 401.383 70.2578 401.727C70.5703 402.055 70.8828 402.43 71.1953 402.852C71.5078 403.273 71.7812 403.75 72.0156 404.281C72.25 404.812 72.4141 405.406 72.5078 406.062C72.6016 406.719 72.5938 407.445 72.4844 408.242C72.3125 409.398 72.0391 410.359 71.6641 411.125C71.2891 411.906 70.875 412.531 70.4219 413C69.9844 413.469 69.5391 413.805 69.0859 414.008C68.6328 414.227 68.2578 414.367 67.9609 414.43C67.7266 414.477 67.4453 414.516 67.1172 414.547C66.8047 414.594 66.4688 414.586 66.1094 414.523C65.7656 414.477 65.4141 414.367 65.0547 414.195C64.6953 414.039 64.375 413.789 64.0938 413.445C63.7656 413.055 63.5078 412.633 63.3203 412.18C63.1484 411.789 63.0234 411.336 62.9453 410.82C62.8516 410.32 62.8906 409.797 63.0625 409.25C63.1875 409.109 63.3203 408.984 63.4609 408.875C63.6016 408.766 63.7422 408.672 63.8828 408.594C64.0391 408.5 64.2031 408.414 64.375 408.336C64.5781 408.273 64.7812 408.219 64.9844 408.172C65.1562 408.141 65.3359 408.125 65.5234 408.125C65.7266 408.109 65.9141 408.133 66.0859 408.195C65.8516 408.461 65.6875 408.711 65.5938 408.945C65.5312 409.07 65.4844 409.18 65.4531 409.273C65.3906 409.57 65.3672 409.922 65.3828 410.328C65.4141 410.75 65.5 411.148 65.6406 411.523C65.7969 411.914 66.0156 412.242 66.2969 412.508C66.5781 412.789 66.9531 412.938 67.4219 412.953C68.5625 412.984 69.5312 412.094 70.3281 410.281C70.5938 409.719 70.7266 409.148 70.7266 408.57C70.7422 407.992 70.6719 407.438 70.5156 406.906C70.375 406.375 70.1797 405.883 69.9297 405.43C69.6953 404.961 69.4531 404.562 69.2031 404.234C68.9531 403.906 68.6484 403.555 68.2891 403.18C67.9453 402.789 67.6016 402.367 67.2578 401.914C66.9141 401.461 66.6016 400.969 66.3203 400.438C66.0547 399.906 65.875 399.328 65.7812 398.703C65.6562 397.828 65.7344 397.031 66.0156 396.312C66.3125 395.578 66.7031 394.938 67.1875 394.391C67.6875 393.844 68.2266 393.398 68.8047 393.055C69.3984 392.711 69.9219 392.492 70.375 392.398C72.8906 391.898 74.5391 392.32 75.3203 393.664C75.6484 394.18 75.8281 394.727 75.8594 395.305C75.8906 395.883 75.8516 396.422 75.7422 396.922C75.6484 397.406 75.5234 397.82 75.3672 398.164C75.2266 398.492 75.1328 398.672 75.0859 398.703C74.9922 398.797 74.8438 398.898 74.6406 399.008C74.4375 399.117 74.1094 399.219 73.6562 399.312C73.5312 399.344 73.4062 399.359 73.2812 399.359C73.1719 399.359 73.0547 399.352 72.9297 399.336C72.8047 399.32 72.6953 399.289 72.6016 399.242ZM78.2969 410.375C77.7031 410.375 77.2188 410.281 76.8438 410.094C76.4688 409.906 76.1719 409.68 75.9531 409.414C75.75 409.133 75.6016 408.836 75.5078 408.523C75.4297 408.195 75.3906 407.898 75.3906 407.633C75.3906 407.164 75.4297 406.672 75.5078 406.156C75.5859 405.625 75.6797 405.141 75.7891 404.703C75.8984 404.25 75.9922 403.867 76.0703 403.555C76.1641 403.242 76.2266 403.047 76.2578 402.969C76.3984 402.516 76.5781 402.125 76.7969 401.797C77.0312 401.453 77.3516 401.219 77.7578 401.094C77.9141 401.062 78.0781 401.031 78.25 401C78.3906 400.984 78.5312 400.977 78.6719 400.977C78.8281 400.977 78.9688 401 79.0938 401.047C78.6719 402.125 78.3359 403.023 78.0859 403.742C77.8516 404.461 77.6719 405.047 77.5469 405.5C77.4062 406.016 77.3203 406.43 77.2891 406.742C77.2109 407.445 77.2734 407.977 77.4766 408.336C77.6797 408.695 78.0938 408.875 78.7188 408.875C79.125 408.875 79.5156 408.727 79.8906 408.43C80.2656 408.117 80.6094 407.719 80.9219 407.234C80.875 406.984 80.8516 406.727 80.8516 406.461C80.8516 405.961 80.8906 405.477 80.9688 405.008C81.0625 404.523 81.1641 404.078 81.2734 403.672C81.3984 403.25 81.5234 402.875 81.6484 402.547C81.7891 402.219 81.9062 401.961 82 401.773C82.1719 401.398 82.3281 401.172 82.4688 401.094C82.6094 401 82.8359 400.945 83.1484 400.93C83.2734 400.914 83.375 400.914 83.4531 400.93C83.5469 400.93 83.625 400.938 83.6875 400.953C83.875 401 83.9688 401.094 83.9688 401.234C83.9688 401.484 83.9531 401.859 83.9219 402.359C83.8906 402.859 83.7969 403.375 83.6406 403.906C83.5312 404.344 83.4219 404.719 83.3125 405.031C83.2188 405.328 83.125 405.586 83.0312 405.805C82.9375 406.008 82.8438 406.18 82.75 406.32C82.6562 406.445 82.5703 406.562 82.4922 406.672C82.5234 407.141 82.5625 407.516 82.6094 407.797C82.6562 408.078 82.7109 408.297 82.7734 408.453C82.8516 408.594 82.9375 408.695 83.0312 408.758C83.1406 408.805 83.2578 408.828 83.3828 408.828C83.6016 408.828 83.8594 408.727 84.1562 408.523C84.4531 408.305 84.7578 408.039 85.0703 407.727C85.3984 407.398 85.7188 407.047 86.0312 406.672C86.3594 406.281 86.6562 405.914 86.9219 405.57C87.1875 405.227 87.4141 404.93 87.6016 404.68C87.7891 404.414 87.9062 404.25 87.9531 404.188C88.0625 404.047 88.1641 403.961 88.2578 403.93C88.3672 403.898 88.4531 403.914 88.5156 403.977C88.5781 404.023 88.6094 404.109 88.6094 404.234C88.625 404.344 88.5938 404.469 88.5156 404.609C88.2031 405.203 87.8125 405.836 87.3438 406.508C86.8906 407.164 86.3984 407.773 85.8672 408.336C85.3516 408.898 84.8281 409.367 84.2969 409.742C83.7656 410.117 83.2656 410.305 82.7969 410.305C82.375 410.305 82.0391 410.164 81.7891 409.883C81.5547 409.586 81.3516 409.164 81.1797 408.617C80.8203 409.18 80.3984 409.617 79.9141 409.93C79.4297 410.227 78.8906 410.375 78.2969 410.375ZM92.0078 396.57C91.7734 397.508 91.5078 398.406 91.2109 399.266C90.9297 400.109 90.6328 400.906 90.3203 401.656C90.0234 402.391 89.7188 403.062 89.4062 403.672C89.1094 404.281 88.8438 404.812 88.6094 405.266C88.4531 406.391 88.4531 407.297 88.6094 407.984C88.7656 408.672 89.0703 409.016 89.5234 409.016C89.8984 409.016 90.2656 408.844 90.625 408.5C90.9844 408.156 91.3047 407.734 91.5859 407.234C91.8672 406.734 92.1016 406.203 92.2891 405.641C92.4922 405.062 92.6172 404.547 92.6641 404.094C92.3672 404.016 92.1172 403.883 91.9141 403.695C91.7109 403.492 91.6094 403.227 91.6094 402.898C91.6094 402.68 91.6719 402.477 91.7969 402.289C91.9219 402.086 92.0703 401.914 92.2422 401.773C92.4141 401.633 92.6016 401.523 92.8047 401.445C93.0078 401.367 93.1953 401.328 93.3672 401.328C93.6328 401.328 93.8594 401.5 94.0469 401.844C94.2344 402.172 94.3594 402.594 94.4219 403.109C95.0469 403.094 95.7031 403 96.3906 402.828C97.0781 402.656 97.7266 402.438 98.3359 402.172C98.5078 402.094 98.6484 402.07 98.7578 402.102C98.8672 402.133 98.9375 402.195 98.9688 402.289C99.0156 402.383 99.0156 402.492 98.9688 402.617C98.9219 402.727 98.8281 402.812 98.6875 402.875C98.3281 403.078 97.9531 403.266 97.5625 403.438C97.1875 403.594 96.8125 403.727 96.4375 403.836C96.0625 403.945 95.7031 404.031 95.3594 404.094C95.0156 404.156 94.7031 404.188 94.4219 404.188C94.3594 404.812 94.1641 405.492 93.8359 406.227C93.5078 406.945 93.1094 407.617 92.6406 408.242C92.1719 408.852 91.6484 409.359 91.0703 409.766C90.5078 410.172 89.9531 410.375 89.4062 410.375C89.2344 410.375 89.0078 410.352 88.7266 410.305C88.4453 410.258 88.1719 410.094 87.9062 409.812C87.6406 409.531 87.4141 409.086 87.2266 408.477C87.0391 407.852 86.9609 406.969 86.9922 405.828C87.0078 405.062 87.0938 404.25 87.25 403.391C87.4062 402.531 87.5938 401.672 87.8125 400.812C88.0312 399.953 88.2734 399.125 88.5391 398.328C88.8203 397.516 89.0859 396.789 89.3359 396.148C89.5859 395.492 89.8125 394.945 90.0156 394.508C90.2344 394.07 90.3984 393.789 90.5078 393.664C90.6484 393.492 90.8125 393.367 91 393.289C91.1875 393.195 91.3672 393.133 91.5391 393.102C91.7266 393.055 91.8984 393.039 92.0547 393.055C92.2109 393.07 92.3203 393.094 92.3828 393.125C92.4766 393.188 92.5 393.531 92.4531 394.156C92.4219 394.781 92.2734 395.586 92.0078 396.57ZM108.695 404.844C108.805 404.719 108.914 404.656 109.023 404.656C109.148 404.641 109.242 404.672 109.305 404.75C109.383 404.812 109.414 404.914 109.398 405.055C109.398 405.195 109.336 405.352 109.211 405.523C108.914 405.93 108.57 406.352 108.18 406.789C107.789 407.211 107.367 407.625 106.914 408.031C106.477 408.438 106.031 408.82 105.578 409.18C105.125 409.539 104.688 409.836 104.266 410.07C103.797 410.336 103.398 410.469 103.07 410.469C102.758 410.469 102.445 410.266 102.133 409.859C101.852 409.5 101.711 409.117 101.711 408.711C101.727 408.289 101.82 407.766 101.992 407.141C102.102 406.75 102.25 406.289 102.438 405.758C102.641 405.211 102.797 404.688 102.906 404.188C103.031 403.688 103.07 403.266 103.023 402.922C102.977 402.562 102.773 402.383 102.414 402.383C102.164 402.383 101.891 402.469 101.594 402.641C101.312 402.812 101.023 403.039 100.727 403.32C100.445 403.586 100.172 403.891 99.9062 404.234C99.6406 404.578 99.4062 404.914 99.2031 405.242C99.0781 405.852 98.9531 406.453 98.8281 407.047C98.7188 407.547 98.6016 408.094 98.4766 408.688C98.3672 409.266 98.2578 409.781 98.1484 410.234C98.0547 410.312 97.9531 410.367 97.8438 410.398C97.7344 410.43 97.6328 410.445 97.5391 410.445C97.4297 410.445 97.3203 410.438 97.2109 410.422C97.0859 410.391 96.9688 410.344 96.8594 410.281C96.7656 410.219 96.6719 410.133 96.5781 410.023C96.4844 409.93 96.4141 409.797 96.3672 409.625C97.0703 406.734 97.625 404.414 98.0312 402.664C98.4375 400.914 98.75 399.578 98.9688 398.656C99.2188 397.562 99.3906 396.805 99.4844 396.383C99.5312 396.086 99.5703 395.797 99.6016 395.516C99.6328 395.266 99.6484 395.008 99.6484 394.742C99.6484 394.477 99.625 394.234 99.5781 394.016C99.7031 393.938 99.8359 393.875 99.9766 393.828C100.133 393.781 100.281 393.742 100.422 393.711C100.594 393.664 100.766 393.625 100.938 393.594C101.109 393.562 101.266 393.547 101.406 393.547C101.531 393.547 101.648 393.562 101.758 393.594C101.867 393.609 101.938 393.656 101.969 393.734C102.062 393.812 102.102 393.969 102.086 394.203C102.086 394.438 102.07 394.68 102.039 394.93C101.977 395.227 101.906 395.547 101.828 395.891C101.5 397.156 101.133 398.391 100.727 399.594C100.32 400.781 99.9453 402.055 99.6016 403.414C99.8047 403.102 100.047 402.781 100.328 402.453C100.609 402.125 100.914 401.828 101.242 401.562C101.586 401.281 101.945 401.055 102.32 400.883C102.695 400.695 103.094 400.602 103.516 400.602C103.734 400.602 103.938 400.641 104.125 400.719C104.328 400.781 104.5 400.898 104.641 401.07C104.797 401.227 104.914 401.445 104.992 401.727C105.07 401.992 105.102 402.328 105.086 402.734C105.086 402.984 105.055 403.242 104.992 403.508C104.945 403.773 104.875 404.07 104.781 404.398C104.688 404.711 104.562 405.062 104.406 405.453C104.266 405.844 104.094 406.297 103.891 406.812C103.75 407.172 103.641 407.477 103.562 407.727C103.484 407.977 103.5 408.195 103.609 408.383C103.75 408.633 104.023 408.695 104.43 408.57C104.852 408.43 105.477 408.023 106.305 407.352C106.492 407.195 106.703 407 106.938 406.766C107.172 406.531 107.398 406.297 107.617 406.062C107.836 405.812 108.039 405.578 108.227 405.359C108.414 405.141 108.57 404.969 108.695 404.844ZM118.398 405.125C117.93 405.812 117.398 406.484 116.805 407.141C116.211 407.781 115.578 408.359 114.906 408.875C114.25 409.375 113.57 409.781 112.867 410.094C112.18 410.406 111.508 410.562 110.852 410.562C110.508 410.562 110.133 410.477 109.727 410.305C109.336 410.148 108.977 409.898 108.648 409.555C108.32 409.211 108.055 408.766 107.852 408.219C107.664 407.672 107.609 407.008 107.688 406.227C107.75 405.586 107.945 404.914 108.273 404.211C108.617 403.492 109.031 402.836 109.516 402.242C110.016 401.648 110.57 401.156 111.18 400.766C111.805 400.375 112.43 400.18 113.055 400.18C113.648 400.18 114.078 400.328 114.344 400.625C114.609 400.922 114.727 401.289 114.695 401.727C114.648 402.211 114.508 402.656 114.273 403.062C114.055 403.469 113.789 403.836 113.477 404.164C113.164 404.492 112.828 404.789 112.469 405.055C112.125 405.32 111.797 405.562 111.484 405.781C111.141 406.016 110.812 406.242 110.5 406.461C110.188 406.664 109.914 406.852 109.68 407.023C109.695 407.414 109.766 407.742 109.891 408.008C110.016 408.273 110.172 408.492 110.359 408.664C110.547 408.82 110.758 408.938 110.992 409.016C111.242 409.078 111.492 409.109 111.742 409.109C112.273 409.109 112.828 408.945 113.406 408.617C113.984 408.273 114.547 407.867 115.094 407.398C115.656 406.914 116.172 406.414 116.641 405.898C117.125 405.383 117.523 404.938 117.836 404.562C117.945 404.438 118.055 404.367 118.164 404.352C118.289 404.32 118.383 404.336 118.445 404.398C118.523 404.445 118.562 404.539 118.562 404.68C118.562 404.805 118.508 404.953 118.398 405.125ZM112.398 401.516C112.211 401.516 111.984 401.609 111.719 401.797C111.469 401.984 111.219 402.258 110.969 402.617C110.719 402.961 110.484 403.391 110.266 403.906C110.047 404.406 109.883 404.984 109.773 405.641C109.961 405.5 110.164 405.359 110.383 405.219C110.602 405.062 110.82 404.898 111.039 404.727C111.711 404.211 112.18 403.758 112.445 403.367C112.711 402.977 112.859 402.641 112.891 402.359C112.922 402.062 112.891 401.852 112.797 401.727C112.703 401.586 112.57 401.516 112.398 401.516ZM128.734 405.336C128.516 405.648 128.234 406.039 127.891 406.508C127.547 406.961 127.188 407.422 126.812 407.891C126.453 408.344 126.094 408.766 125.734 409.156C125.391 409.531 125.102 409.797 124.867 409.953C124.711 410.047 124.531 410.125 124.328 410.188C124.125 410.25 123.914 410.289 123.695 410.305C123.492 410.32 123.297 410.305 123.109 410.258C122.922 410.227 122.758 410.164 122.617 410.07C122.477 409.961 122.359 409.805 122.266 409.602C122.188 409.43 122.109 409.203 122.031 408.922C121.969 408.641 121.945 408.289 121.961 407.867C121.586 408.492 121.172 408.977 120.719 409.32C120.266 409.648 119.836 409.891 119.43 410.047C118.961 410.219 118.492 410.32 118.023 410.352C117.805 410.352 117.57 410.273 117.32 410.117C117.07 409.977 116.859 409.75 116.688 409.438C116.516 409.109 116.406 408.695 116.359 408.195C116.312 407.68 116.375 407.07 116.547 406.367C116.766 405.414 117.109 404.547 117.578 403.766C118.062 402.984 118.586 402.32 119.148 401.773C119.711 401.211 120.266 400.789 120.812 400.508C121.359 400.227 121.812 400.102 122.172 400.133C122.594 400.211 122.938 400.336 123.203 400.508C123.422 400.664 123.562 400.898 123.625 401.211C123.703 401.508 123.578 401.906 123.25 402.406C123.469 402.359 123.648 402.328 123.789 402.312C123.945 402.297 124.062 402.289 124.141 402.289C124.234 402.289 124.297 402.297 124.328 402.312C124.344 402.344 124.352 402.414 124.352 402.523C124.352 402.617 124.328 402.797 124.281 403.062C124.234 403.328 124.164 403.688 124.07 404.141C123.977 404.594 123.852 405.18 123.695 405.898C123.664 406.039 123.633 406.172 123.602 406.297C123.586 406.406 123.562 406.523 123.531 406.648C123.516 406.758 123.492 406.891 123.461 407.047C123.43 407.203 123.391 407.398 123.344 407.633C123.328 407.773 123.32 407.93 123.32 408.102C123.336 408.258 123.367 408.406 123.414 408.547C123.461 408.688 123.531 408.805 123.625 408.898C123.734 408.977 123.883 409.016 124.07 409.016C124.227 409.016 124.43 408.922 124.68 408.734C124.93 408.531 125.195 408.281 125.477 407.984C125.758 407.672 126.047 407.336 126.344 406.977C126.656 406.602 126.945 406.242 127.211 405.898C127.477 405.555 127.711 405.25 127.914 404.984C128.133 404.719 128.289 404.523 128.383 404.398C128.508 404.258 128.633 404.18 128.758 404.164C128.883 404.133 128.977 404.164 129.039 404.258C129.102 404.352 129.109 404.492 129.062 404.68C129.031 404.867 128.922 405.086 128.734 405.336ZM121.867 406.367C121.945 406.055 122.039 405.688 122.148 405.266C122.258 404.844 122.352 404.438 122.43 404.047C122.508 403.656 122.562 403.336 122.594 403.086C122.641 402.82 122.633 402.695 122.57 402.711C122.492 402.727 122.406 402.75 122.312 402.781C122.234 402.812 122.133 402.836 122.008 402.852C121.883 402.867 121.758 402.891 121.633 402.922C121.758 402.672 121.828 402.469 121.844 402.312C121.875 402.141 121.883 402.008 121.867 401.914C121.852 401.805 121.82 401.719 121.773 401.656C121.602 401.516 121.297 401.633 120.859 402.008C120.438 402.367 119.945 403.039 119.383 404.023C119.148 404.43 118.961 404.867 118.82 405.336C118.68 405.789 118.578 406.219 118.516 406.625C118.469 407.031 118.461 407.391 118.492 407.703C118.523 408 118.586 408.195 118.68 408.289C118.852 408.461 119.047 408.547 119.266 408.547C119.484 408.531 119.703 408.469 119.922 408.359C120.156 408.234 120.383 408.078 120.602 407.891C120.836 407.703 121.039 407.508 121.211 407.305C121.398 407.102 121.547 406.914 121.656 406.742C121.781 406.57 121.852 406.445 121.867 406.367ZM134.617 405.523C134.539 406.008 134.461 406.469 134.383 406.906C134.32 407.344 134.281 407.695 134.266 407.961C134.25 408.352 134.32 408.633 134.477 408.805C134.633 408.977 134.805 409.062 134.992 409.062C135.211 409.062 135.477 408.953 135.789 408.734C136.117 408.516 136.461 408.242 136.82 407.914C137.18 407.586 137.539 407.227 137.898 406.836C138.258 406.445 138.586 406.078 138.883 405.734C139.195 405.375 139.453 405.062 139.656 404.797C139.875 404.531 140.023 404.359 140.102 404.281C140.195 404.188 140.289 404.133 140.383 404.117C140.492 404.102 140.578 404.117 140.641 404.164C140.703 404.211 140.734 404.297 140.734 404.422C140.734 404.547 140.672 404.703 140.547 404.891C140.359 405.188 140.117 405.539 139.82 405.945C139.523 406.336 139.195 406.742 138.836 407.164C138.477 407.586 138.094 408 137.688 408.406C137.297 408.812 136.898 409.172 136.492 409.484C136.102 409.797 135.719 410.047 135.344 410.234C134.984 410.438 134.656 410.539 134.359 410.539C134.141 410.539 133.93 410.477 133.727 410.352C133.539 410.227 133.367 410.062 133.211 409.859C133.055 409.656 132.93 409.43 132.836 409.18C132.758 408.93 132.727 408.68 132.742 408.43C132.758 408.32 132.781 408.133 132.812 407.867C132.156 408.602 131.492 409.188 130.82 409.625C130.164 410.047 129.531 410.258 128.922 410.258C128.703 410.258 128.469 410.203 128.219 410.094C127.969 409.984 127.742 409.805 127.539 409.555C127.352 409.305 127.195 408.977 127.07 408.57C126.945 408.164 126.898 407.672 126.93 407.094C126.977 406.188 127.156 405.328 127.469 404.516C127.781 403.703 128.172 403 128.641 402.406C129.125 401.797 129.664 401.32 130.258 400.977C130.867 400.617 131.477 400.438 132.086 400.438C132.352 400.438 132.594 400.508 132.812 400.648C133.031 400.773 133.219 400.945 133.375 401.164C133.531 401.367 133.656 401.594 133.75 401.844C133.859 402.094 133.938 402.328 133.984 402.547C134.094 402.094 134.195 401.648 134.289 401.211C134.383 400.773 134.477 400.359 134.57 399.969C134.727 399.391 134.891 398.766 135.062 398.094C135.219 397.516 135.398 396.852 135.602 396.102C135.805 395.352 136.031 394.562 136.281 393.734C136.438 393.609 136.586 393.516 136.727 393.453C136.867 393.391 137 393.344 137.125 393.312C137.266 393.266 137.398 393.242 137.523 393.242C137.68 393.242 137.82 393.266 137.945 393.312C138.07 393.344 138.172 393.445 138.25 393.617C138.344 393.773 138.406 394.016 138.438 394.344C138.469 394.672 138.469 395.117 138.438 395.68C138.406 396.367 138.281 397.117 138.062 397.93C137.859 398.742 137.586 399.586 137.242 400.461C136.898 401.32 136.5 402.188 136.047 403.062C135.609 403.922 135.133 404.742 134.617 405.523ZM133.234 405.828C133.297 405.531 133.352 405.234 133.398 404.938C133.461 404.641 133.531 404.336 133.609 404.023C133.578 404.039 133.547 404.055 133.516 404.07C133.5 404.086 133.477 404.102 133.445 404.117C133.273 404.195 133.156 404.195 133.094 404.117C133.031 404.023 133 403.883 133 403.695C133 403.602 132.992 403.438 132.977 403.203C132.961 402.953 132.914 402.703 132.836 402.453C132.773 402.188 132.672 401.961 132.531 401.773C132.391 401.57 132.195 401.469 131.945 401.469C131.586 401.469 131.219 401.656 130.844 402.031C130.469 402.391 130.117 402.836 129.789 403.367C129.461 403.883 129.188 404.438 128.969 405.031C128.75 405.625 128.625 406.156 128.594 406.625C128.562 407.375 128.656 407.914 128.875 408.242C129.094 408.57 129.391 408.734 129.766 408.734C130.047 408.734 130.352 408.625 130.68 408.406C131.023 408.188 131.352 407.922 131.664 407.609C131.992 407.297 132.289 406.977 132.555 406.648C132.836 406.32 133.062 406.047 133.234 405.828Z" fill="black"/>
<path d="M65.0781 379.859C64.3281 379.859 63.875 379.766 63.7188 379.578C63.5312 379.422 63.5 379.094 63.625 378.594C63.6562 378.438 63.8125 377.734 64.0938 376.484C64.375 375.266 64.7188 373.766 65.125 371.984C65.5625 370.234 66.0156 368.328 66.4844 366.266C66.9844 364.203 67.4531 362.266 67.8906 360.453C67.2344 360.516 66.75 360.469 66.4375 360.312C66.125 360.125 65.9688 359.891 65.9688 359.609C66 359.297 66.1719 358.984 66.4844 358.672C66.8281 358.359 67.3125 358.094 67.9375 357.875C68.0625 357.812 68.25 357.75 68.5 357.688C68.6562 357.156 68.7969 356.609 68.9219 356.047C69.0469 355.578 69.1719 355.078 69.2969 354.547C69.4219 354.016 69.5469 353.5 69.6719 353L72.9531 338.984C73.1406 338.266 73.4219 337.734 73.7969 337.391C74.2031 337.016 74.9375 336.703 76 336.453C76.875 336.234 77.4844 336.156 77.8281 336.219C78.1719 336.25 78.3281 336.344 78.2969 336.5C78.2031 336.844 77.9688 337.672 77.5938 338.984C77.2188 340.297 76.7656 341.906 76.2344 343.812C75.7344 345.688 75.1875 347.766 74.5938 350.047C74 352.297 73.4219 354.531 72.8594 356.75C74.7344 356.469 77.0156 356.234 79.7031 356.047C80.7344 355.922 81.7344 355.844 82.7031 355.812C83.7031 355.781 84.6562 355.781 85.5625 355.812C86 354.125 86.4219 352.438 86.8281 350.75C87.2656 349.062 87.6719 347.5 88.0469 346.062C88.4219 344.625 88.75 343.359 89.0312 342.266C89.3438 341.141 89.5781 340.312 89.7344 339.781C89.9219 339.188 90.0938 338.703 90.25 338.328C90.4375 337.953 90.6406 337.656 90.8594 337.438C91.1094 337.219 91.3906 337.062 91.7031 336.969C92.0156 336.875 92.375 336.797 92.7812 336.734C93 336.734 93.2656 336.719 93.5781 336.688C93.8281 336.688 94.125 336.688 94.4688 336.688C94.8125 336.656 95.2031 336.672 95.6406 336.734C94.4531 339.922 93.3438 343.156 92.3125 346.438C91.3125 349.688 90.375 352.859 89.5 355.953C90.0625 356.016 90.5469 356.062 90.9531 356.094C91.3906 356.125 91.7344 356.172 91.9844 356.234C92.7344 356.359 93.2031 356.562 93.3906 356.844C93.6094 357.125 93.5469 357.531 93.2031 358.062L92.6406 358.766C92.4531 359.016 92.2188 359.312 91.9375 359.656C91.6562 359.969 91.2969 360.328 90.8594 360.734C90.6094 360.641 90.3438 360.547 90.0625 360.453C89.8125 360.359 89.5625 360.266 89.3125 360.172C89 360.078 88.7031 359.984 88.4219 359.891C88.2031 360.641 88 361.375 87.8125 362.094C87.625 362.781 87.4531 363.484 87.2969 364.203C86.9219 365.734 86.5625 367.312 86.2188 368.938C85.9375 370.344 85.6406 371.891 85.3281 373.578C85.0469 375.297 84.8281 376.984 84.6719 378.641C84.4219 378.766 84.1719 378.844 83.9219 378.875C83.6719 378.938 83.4531 378.984 83.2656 379.016C83.0469 379.047 82.8281 379.078 82.6094 379.109H82.5625H82.4688H82.375C82.25 379.109 82.125 379.109 82 379.109C81.875 379.109 81.75 379.078 81.625 379.016C81.4688 378.984 81.3125 378.938 81.1562 378.875C81 378.812 80.8438 378.75 80.6875 378.688C80.5625 378.656 80.4219 378.594 80.2656 378.5C80.5156 377.469 80.7031 376.5 80.8281 375.594C80.9844 374.688 81.0938 373.891 81.1562 373.203C81.25 372.391 81.3125 371.672 81.3438 371.047C81.375 370.234 81.2812 369.344 81.0625 368.375C80.875 367.406 80.5625 366.453 80.125 365.516C79.7188 364.578 79.2031 363.703 78.5781 362.891C77.9844 362.078 77.2969 361.391 76.5156 360.828C75.7344 360.297 74.9844 359.953 74.2656 359.797C73.5781 359.641 72.875 359.594 72.1562 359.656C71.9375 360.594 71.7344 361.5 71.5469 362.375C71.3594 363.25 71.2031 364.094 71.0781 364.906C70.7344 366.719 70.4062 368.484 70.0938 370.203C69.8438 371.672 69.5781 373.188 69.2969 374.75C69.0469 376.344 68.8594 377.703 68.7344 378.828C68.2344 379.078 67.7656 379.266 67.3281 379.391C66.8906 379.547 66.5 379.656 66.1562 379.719C65.7812 379.812 65.4219 379.859 65.0781 379.859ZM83.6406 359.047C82.5469 358.922 81.5 358.859 80.5 358.859C79.5312 358.828 78.6719 358.812 77.9219 358.812C78.5469 359.156 79.0938 359.609 79.5625 360.172C80.0625 360.734 80.5781 361.375 81.1094 362.094C81.6094 362.75 82.0156 363.469 82.3281 364.25C82.6406 365.031 82.9062 365.781 83.125 366.5C83.375 365.188 83.6406 363.906 83.9219 362.656C84.2031 361.406 84.4688 360.234 84.7188 359.141C84.5312 359.109 84.3438 359.094 84.1562 359.094C84 359.062 83.8281 359.047 83.6406 359.047ZM116.406 361.25C115.469 362.625 114.406 363.969 113.219 365.281C112.031 366.562 110.766 367.719 109.422 368.75C108.109 369.75 106.75 370.562 105.344 371.188C103.969 371.812 102.625 372.125 101.312 372.125C100.625 372.125 99.875 371.953 99.0625 371.609C98.2812 371.297 97.5625 370.797 96.9062 370.109C96.25 369.422 95.7188 368.531 95.3125 367.438C94.9375 366.344 94.8281 365.016 94.9844 363.453C95.1094 362.172 95.5 360.828 96.1562 359.422C96.8438 357.984 97.6719 356.672 98.6406 355.484C99.6406 354.297 100.75 353.312 101.969 352.531C103.219 351.75 104.469 351.359 105.719 351.359C106.906 351.359 107.766 351.656 108.297 352.25C108.828 352.844 109.062 353.578 109 354.453C108.906 355.422 108.625 356.312 108.156 357.125C107.719 357.938 107.188 358.672 106.562 359.328C105.938 359.984 105.266 360.578 104.547 361.109C103.859 361.641 103.203 362.125 102.578 362.562C101.891 363.031 101.234 363.484 100.609 363.922C99.9844 364.328 99.4375 364.703 98.9688 365.047C99 365.828 99.1406 366.484 99.3906 367.016C99.6406 367.547 99.9531 367.984 100.328 368.328C100.703 368.641 101.125 368.875 101.594 369.031C102.094 369.156 102.594 369.219 103.094 369.219C104.156 369.219 105.266 368.891 106.422 368.234C107.578 367.547 108.703 366.734 109.797 365.797C110.922 364.828 111.953 363.828 112.891 362.797C113.859 361.766 114.656 360.875 115.281 360.125C115.5 359.875 115.719 359.734 115.938 359.703C116.188 359.641 116.375 359.672 116.5 359.797C116.656 359.891 116.734 360.078 116.734 360.359C116.734 360.609 116.625 360.906 116.406 361.25ZM104.406 354.031C104.031 354.031 103.578 354.219 103.047 354.594C102.547 354.969 102.047 355.516 101.547 356.234C101.047 356.922 100.578 357.781 100.141 358.812C99.7031 359.812 99.375 360.969 99.1562 362.281C99.5312 362 99.9375 361.719 100.375 361.438C100.812 361.125 101.25 360.797 101.688 360.453C103.031 359.422 103.969 358.516 104.5 357.734C105.031 356.953 105.328 356.281 105.391 355.719C105.453 355.125 105.391 354.703 105.203 354.453C105.016 354.172 104.75 354.031 104.406 354.031ZM137.078 361.672C136.641 362.297 136.078 363.078 135.391 364.016C134.703 364.922 133.984 365.844 133.234 366.781C132.516 367.688 131.797 368.531 131.078 369.312C130.391 370.062 129.812 370.594 129.344 370.906C129.031 371.094 128.672 371.25 128.266 371.375C127.859 371.5 127.438 371.578 127 371.609C126.594 371.641 126.203 371.609 125.828 371.516C125.453 371.453 125.125 371.328 124.844 371.141C124.562 370.922 124.328 370.609 124.141 370.203C123.984 369.859 123.828 369.406 123.672 368.844C123.547 368.281 123.5 367.578 123.531 366.734C122.781 367.984 121.953 368.953 121.047 369.641C120.141 370.297 119.281 370.781 118.469 371.094C117.531 371.438 116.594 371.641 115.656 371.703C115.219 371.703 114.75 371.547 114.25 371.234C113.75 370.953 113.328 370.5 112.984 369.875C112.641 369.219 112.422 368.391 112.328 367.391C112.234 366.359 112.359 365.141 112.703 363.734C113.141 361.828 113.828 360.094 114.766 358.531C115.734 356.969 116.781 355.641 117.906 354.547C119.031 353.422 120.141 352.578 121.234 352.016C122.328 351.453 123.234 351.203 123.953 351.266C124.797 351.422 125.484 351.672 126.016 352.016C126.453 352.328 126.734 352.797 126.859 353.422C127.016 354.016 126.766 354.812 126.109 355.812C126.547 355.719 126.906 355.656 127.188 355.625C127.5 355.594 127.734 355.578 127.891 355.578C128.078 355.578 128.203 355.594 128.266 355.625C128.297 355.688 128.312 355.828 128.312 356.047C128.312 356.234 128.266 356.594 128.172 357.125C128.078 357.656 127.938 358.375 127.75 359.281C127.562 360.188 127.312 361.359 127 362.797C126.938 363.078 126.875 363.344 126.812 363.594C126.781 363.812 126.734 364.047 126.672 364.297C126.641 364.516 126.594 364.781 126.531 365.094C126.469 365.406 126.391 365.797 126.297 366.266C126.266 366.547 126.25 366.859 126.25 367.203C126.281 367.516 126.344 367.812 126.438 368.094C126.531 368.375 126.672 368.609 126.859 368.797C127.078 368.953 127.375 369.031 127.75 369.031C128.062 369.031 128.469 368.844 128.969 368.469C129.469 368.062 130 367.562 130.562 366.969C131.125 366.344 131.703 365.672 132.297 364.953C132.922 364.203 133.5 363.484 134.031 362.797C134.562 362.109 135.031 361.5 135.438 360.969C135.875 360.438 136.188 360.047 136.375 359.797C136.625 359.516 136.875 359.359 137.125 359.328C137.375 359.266 137.562 359.328 137.688 359.516C137.812 359.703 137.828 359.984 137.734 360.359C137.672 360.734 137.453 361.172 137.078 361.672ZM123.344 363.734C123.5 363.109 123.688 362.375 123.906 361.531C124.125 360.688 124.312 359.875 124.469 359.094C124.625 358.312 124.734 357.672 124.797 357.172C124.891 356.641 124.875 356.391 124.75 356.422C124.594 356.453 124.422 356.5 124.234 356.562C124.078 356.625 123.875 356.672 123.625 356.703C123.375 356.734 123.125 356.781 122.875 356.844C123.125 356.344 123.266 355.938 123.297 355.625C123.359 355.281 123.375 355.016 123.344 354.828C123.312 354.609 123.25 354.438 123.156 354.312C122.812 354.031 122.203 354.266 121.328 355.016C120.484 355.734 119.5 357.078 118.375 359.047C117.906 359.859 117.531 360.734 117.25 361.672C116.969 362.578 116.766 363.438 116.641 364.25C116.547 365.062 116.531 365.781 116.594 366.406C116.656 367 116.781 367.391 116.969 367.578C117.312 367.922 117.703 368.094 118.141 368.094C118.578 368.062 119.016 367.938 119.453 367.719C119.922 367.469 120.375 367.156 120.812 366.781C121.281 366.406 121.688 366.016 122.031 365.609C122.406 365.203 122.703 364.828 122.922 364.484C123.172 364.141 123.312 363.891 123.344 363.734ZM148.844 362.047C148.688 363.016 148.531 363.938 148.375 364.812C148.25 365.688 148.172 366.391 148.141 366.922C148.109 367.703 148.25 368.266 148.562 368.609C148.875 368.953 149.219 369.125 149.594 369.125C150.031 369.125 150.562 368.906 151.188 368.469C151.844 368.031 152.531 367.484 153.25 366.828C153.969 366.172 154.688 365.453 155.406 364.672C156.125 363.891 156.781 363.156 157.375 362.469C158 361.75 158.516 361.125 158.922 360.594C159.359 360.062 159.656 359.719 159.812 359.562C160 359.375 160.188 359.266 160.375 359.234C160.594 359.203 160.766 359.234 160.891 359.328C161.016 359.422 161.078 359.594 161.078 359.844C161.078 360.094 160.953 360.406 160.703 360.781C160.328 361.375 159.844 362.078 159.25 362.891C158.656 363.672 158 364.484 157.281 365.328C156.562 366.172 155.797 367 154.984 367.812C154.203 368.625 153.406 369.344 152.594 369.969C151.812 370.594 151.047 371.094 150.297 371.469C149.578 371.875 148.922 372.078 148.328 372.078C147.891 372.078 147.469 371.953 147.062 371.703C146.688 371.453 146.344 371.125 146.031 370.719C145.719 370.312 145.469 369.859 145.281 369.359C145.125 368.859 145.062 368.359 145.094 367.859C145.125 367.641 145.172 367.266 145.234 366.734C143.922 368.203 142.594 369.375 141.25 370.25C139.938 371.094 138.672 371.516 137.453 371.516C137.016 371.516 136.547 371.406 136.047 371.188C135.547 370.969 135.094 370.609 134.688 370.109C134.312 369.609 134 368.953 133.75 368.141C133.5 367.328 133.406 366.344 133.469 365.188C133.562 363.375 133.922 361.656 134.547 360.031C135.172 358.406 135.953 357 136.891 355.812C137.859 354.594 138.938 353.641 140.125 352.953C141.344 352.234 142.562 351.875 143.781 351.875C144.312 351.875 144.797 352.016 145.234 352.297C145.672 352.547 146.047 352.891 146.359 353.328C146.672 353.734 146.922 354.188 147.109 354.688C147.328 355.188 147.484 355.656 147.578 356.094C147.797 355.188 148 354.297 148.188 353.422C148.375 352.547 148.562 351.719 148.75 350.938C149.062 349.781 149.391 348.531 149.734 347.188C150.047 346.031 150.406 344.703 150.812 343.203C151.219 341.703 151.672 340.125 152.172 338.469C152.484 338.219 152.781 338.031 153.062 337.906C153.344 337.781 153.609 337.688 153.859 337.625C154.141 337.531 154.406 337.484 154.656 337.484C154.969 337.484 155.25 337.531 155.5 337.625C155.75 337.688 155.953 337.891 156.109 338.234C156.297 338.547 156.422 339.031 156.484 339.688C156.547 340.344 156.547 341.234 156.484 342.359C156.422 343.734 156.172 345.234 155.734 346.859C155.328 348.484 154.781 350.172 154.094 351.922C153.406 353.641 152.609 355.375 151.703 357.125C150.828 358.844 149.875 360.484 148.844 362.047ZM146.078 362.656C146.203 362.062 146.312 361.469 146.406 360.875C146.531 360.281 146.672 359.672 146.828 359.047C146.766 359.078 146.703 359.109 146.641 359.141C146.609 359.172 146.562 359.203 146.5 359.234C146.156 359.391 145.922 359.391 145.797 359.234C145.672 359.047 145.609 358.766 145.609 358.391C145.609 358.203 145.594 357.875 145.562 357.406C145.531 356.906 145.438 356.406 145.281 355.906C145.156 355.375 144.953 354.922 144.672 354.547C144.391 354.141 144 353.938 143.5 353.938C142.781 353.938 142.047 354.312 141.297 355.062C140.547 355.781 139.844 356.672 139.188 357.734C138.531 358.766 137.984 359.875 137.547 361.062C137.109 362.25 136.859 363.312 136.797 364.25C136.734 365.75 136.922 366.828 137.359 367.484C137.797 368.141 138.391 368.469 139.141 368.469C139.703 368.469 140.312 368.25 140.969 367.812C141.656 367.375 142.312 366.844 142.938 366.219C143.594 365.594 144.188 364.953 144.719 364.297C145.281 363.641 145.734 363.094 146.078 362.656ZM178.375 361.25C177.438 362.625 176.375 363.969 175.188 365.281C174 366.562 172.734 367.719 171.391 368.75C170.078 369.75 168.719 370.562 167.312 371.188C165.938 371.812 164.594 372.125 163.281 372.125C162.594 372.125 161.844 371.953 161.031 371.609C160.25 371.297 159.531 370.797 158.875 370.109C158.219 369.422 157.688 368.531 157.281 367.438C156.906 366.344 156.797 365.016 156.953 363.453C157.078 362.172 157.469 360.828 158.125 359.422C158.812 357.984 159.641 356.672 160.609 355.484C161.609 354.297 162.719 353.312 163.938 352.531C165.188 351.75 166.438 351.359 167.688 351.359C168.875 351.359 169.734 351.656 170.266 352.25C170.797 352.844 171.031 353.578 170.969 354.453C170.875 355.422 170.594 356.312 170.125 357.125C169.688 357.938 169.156 358.672 168.531 359.328C167.906 359.984 167.234 360.578 166.516 361.109C165.828 361.641 165.172 362.125 164.547 362.562C163.859 363.031 163.203 363.484 162.578 363.922C161.953 364.328 161.406 364.703 160.938 365.047C160.969 365.828 161.109 366.484 161.359 367.016C161.609 367.547 161.922 367.984 162.297 368.328C162.672 368.641 163.094 368.875 163.562 369.031C164.062 369.156 164.562 369.219 165.062 369.219C166.125 369.219 167.234 368.891 168.391 368.234C169.547 367.547 170.672 366.734 171.766 365.797C172.891 364.828 173.922 363.828 174.859 362.797C175.828 361.766 176.625 360.875 177.25 360.125C177.469 359.875 177.688 359.734 177.906 359.703C178.156 359.641 178.344 359.672 178.469 359.797C178.625 359.891 178.703 360.078 178.703 360.359C178.703 360.609 178.594 360.906 178.375 361.25ZM166.375 354.031C166 354.031 165.547 354.219 165.016 354.594C164.516 354.969 164.016 355.516 163.516 356.234C163.016 356.922 162.547 357.781 162.109 358.812C161.672 359.812 161.344 360.969 161.125 362.281C161.5 362 161.906 361.719 162.344 361.438C162.781 361.125 163.219 360.797 163.656 360.453C165 359.422 165.938 358.516 166.469 357.734C167 356.953 167.297 356.281 167.359 355.719C167.422 355.125 167.359 354.703 167.172 354.453C166.984 354.172 166.719 354.031 166.375 354.031ZM173.219 370.766C173 371.109 172.766 371.328 172.516 371.422C172.234 371.547 172 371.562 171.812 371.469C171.594 371.406 171.453 371.25 171.391 371C171.328 370.75 171.391 370.438 171.578 370.062C171.672 369.875 171.891 369.453 172.234 368.797C172.547 368.141 172.938 367.359 173.406 366.453C173.844 365.516 174.328 364.516 174.859 363.453C175.391 362.359 175.891 361.328 176.359 360.359C176.859 359.391 177.312 358.531 177.719 357.781C178.125 357 178.422 356.438 178.609 356.094C178.266 355.781 178.031 355.562 177.906 355.438C177.781 355.281 177.688 354.969 177.625 354.5C177.562 354.094 177.656 353.562 177.906 352.906C178.156 352.25 178.484 351.625 178.891 351.031C179.297 350.406 179.75 349.875 180.25 349.438C180.75 349 181.234 348.781 181.703 348.781C182.578 348.781 183.188 349.062 183.531 349.625C183.906 350.188 184.125 350.766 184.188 351.359C184.25 351.766 184.219 352.281 184.094 352.906C183.969 353.531 183.734 354.094 183.391 354.594C183.484 354.656 183.609 354.734 183.766 354.828C183.922 354.891 184.172 354.922 184.516 354.922C185.016 354.922 185.359 354.891 185.547 354.828C185.766 354.766 186.094 354.734 186.531 354.734C187.062 354.734 187.5 354.875 187.844 355.156C188.188 355.406 188.469 355.734 188.688 356.141C188.906 356.516 189.062 356.938 189.156 357.406C189.281 357.844 189.359 358.25 189.391 358.625C189.484 359.406 189.281 360.219 188.781 361.062C188.281 361.906 187.672 362.828 186.953 363.828C186.516 364.453 186.078 365.156 185.641 365.938C185.203 366.719 185.016 367.422 185.078 368.047C185.141 368.453 185.25 368.781 185.406 369.031C185.562 369.281 186 369.406 186.719 369.406C187.25 369.406 187.828 369.219 188.453 368.844C189.109 368.438 189.766 367.938 190.422 367.344C191.109 366.719 191.781 366.047 192.438 365.328C193.094 364.578 193.703 363.859 194.266 363.172C194.828 362.453 195.297 361.812 195.672 361.25C196.078 360.688 196.375 360.281 196.562 360.031C196.719 359.781 196.922 359.609 197.172 359.516C197.422 359.422 197.641 359.422 197.828 359.516C198.016 359.609 198.125 359.797 198.156 360.078C198.219 360.359 198.109 360.734 197.828 361.203C197.641 361.516 197.312 362.016 196.844 362.703C196.406 363.391 195.859 364.156 195.203 365C194.578 365.844 193.875 366.719 193.094 367.625C192.312 368.5 191.484 369.312 190.609 370.062C189.766 370.781 188.906 371.375 188.031 371.844C187.188 372.312 186.375 372.547 185.594 372.547C184.781 372.547 184.109 372.391 183.578 372.078C183.047 371.766 182.609 371.391 182.266 370.953C181.953 370.484 181.719 369.984 181.562 369.453C181.438 368.891 181.391 368.375 181.422 367.906C181.453 367.531 181.547 367.141 181.703 366.734C181.891 366.297 182.094 365.859 182.312 365.422C182.562 364.953 182.812 364.5 183.062 364.062C183.344 363.594 183.594 363.141 183.812 362.703C184.344 361.797 184.766 361.031 185.078 360.406C185.422 359.75 185.594 359.203 185.594 358.766C185.594 358.484 185.531 358.234 185.406 358.016C185.281 357.797 185.078 357.688 184.797 357.688C184.609 357.688 184.469 357.703 184.375 357.734C184.312 357.734 184.234 357.734 184.141 357.734C184.078 357.734 183.969 357.75 183.812 357.781C183.688 357.781 183.484 357.781 183.203 357.781C182.797 357.781 182.453 357.719 182.172 357.594C181.891 357.469 181.625 357.375 181.375 357.312C181.25 357.531 180.969 358 180.531 358.719C180.094 359.438 179.578 360.281 178.984 361.25C178.422 362.219 177.812 363.234 177.156 364.297C176.531 365.359 175.938 366.359 175.375 367.297C174.812 368.203 174.344 368.984 173.969 369.641C173.562 370.266 173.312 370.641 173.219 370.766Z" fill="black"/>
<path d="M65.7666 432.15H69.3965C71.1016 432.15 72.335 432.405 73.0967 432.915C73.8584 433.425 74.2393 434.23 74.2393 435.332C74.2393 436.094 74.0254 436.724 73.5977 437.222C73.1758 437.714 72.5576 438.033 71.7432 438.18V438.268C73.6943 438.602 74.6699 439.627 74.6699 441.344C74.6699 442.492 74.2803 443.389 73.501 444.033C72.7275 444.678 71.6436 445 70.249 445H65.7666V432.15ZM67.2607 437.652H69.7217C70.7764 437.652 71.5352 437.488 71.998 437.16C72.4609 436.826 72.6924 436.267 72.6924 435.481C72.6924 434.761 72.4346 434.242 71.9189 433.926C71.4033 433.604 70.583 433.442 69.458 433.442H67.2607V437.652ZM67.2607 438.918V443.726H69.9414C70.9785 443.726 71.7578 443.526 72.2793 443.128C72.8066 442.724 73.0703 442.094 73.0703 441.238C73.0703 440.441 72.8008 439.855 72.2617 439.48C71.7285 439.105 70.9141 438.918 69.8184 438.918H67.2607ZM85.5332 440.175C85.5332 441.745 85.1377 442.973 84.3467 443.857C83.5557 444.736 82.4629 445.176 81.0684 445.176C80.207 445.176 79.4424 444.974 78.7744 444.569C78.1064 444.165 77.5908 443.585 77.2275 442.829C76.8643 442.073 76.6826 441.188 76.6826 440.175C76.6826 438.604 77.0752 437.383 77.8604 436.51C78.6455 435.631 79.7354 435.191 81.1299 435.191C82.4775 435.191 83.5469 435.64 84.3379 436.536C85.1348 437.433 85.5332 438.646 85.5332 440.175ZM78.1943 440.175C78.1943 441.405 78.4404 442.343 78.9326 442.987C79.4248 443.632 80.1484 443.954 81.1035 443.954C82.0586 443.954 82.7822 443.635 83.2744 442.996C83.7725 442.352 84.0215 441.411 84.0215 440.175C84.0215 438.95 83.7725 438.021 83.2744 437.389C82.7822 436.75 82.0527 436.431 81.0859 436.431C80.1309 436.431 79.4102 436.744 78.9238 437.371C78.4375 437.998 78.1943 438.933 78.1943 440.175ZM94.6562 443.708H94.5771C93.9033 444.687 92.8955 445.176 91.5537 445.176C90.2939 445.176 89.3125 444.745 88.6094 443.884C87.9121 443.022 87.5635 441.798 87.5635 440.21C87.5635 438.622 87.915 437.389 88.6182 436.51C89.3213 435.631 90.2998 435.191 91.5537 435.191C92.8604 435.191 93.8623 435.666 94.5596 436.615H94.6738L94.6123 435.921L94.5771 435.244V431.324H96.0361V445H94.8496L94.6562 443.708ZM91.7383 443.954C92.7344 443.954 93.4551 443.685 93.9004 443.146C94.3516 442.601 94.5771 441.725 94.5771 440.518V440.21C94.5771 438.845 94.3486 437.872 93.8916 437.292C93.4404 436.706 92.7168 436.413 91.7207 436.413C90.8652 436.413 90.209 436.747 89.752 437.415C89.3008 438.077 89.0752 439.015 89.0752 440.228C89.0752 441.458 89.3008 442.387 89.752 443.014C90.2031 443.641 90.8652 443.954 91.7383 443.954ZM97.6094 435.367H99.1738L101.283 440.86C101.746 442.114 102.033 443.02 102.145 443.576H102.215C102.291 443.277 102.449 442.768 102.689 442.047C102.936 441.32 103.732 439.094 105.08 435.367H106.645L102.505 446.336C102.095 447.42 101.614 448.188 101.063 448.639C100.519 449.096 99.8477 449.324 99.0508 449.324C98.6055 449.324 98.166 449.274 97.7324 449.175V448.006C98.0547 448.076 98.415 448.111 98.8135 448.111C99.8154 448.111 100.53 447.549 100.958 446.424L101.494 445.053L97.6094 435.367Z" fill="black"/>
<path d="M66.9395 467.543C66.4837 467.543 66.069 467.434 65.6953 467.215C65.3307 466.996 65.0163 466.695 64.752 466.312C64.4967 465.93 64.3008 465.483 64.1641 464.973C64.0365 464.453 63.9818 463.902 64 463.318C64.0182 462.771 64.0866 462.179 64.2051 461.541C64.3327 460.903 64.5104 460.265 64.7383 459.627C64.9661 458.98 65.2396 458.36 65.5586 457.768C65.8867 457.166 66.2604 456.637 66.6797 456.182C67.099 455.726 67.5638 455.361 68.0742 455.088C68.5846 454.805 69.1452 454.664 69.7559 454.664C70.1296 454.664 70.444 454.742 70.6992 454.896C70.9635 455.042 71.1732 455.238 71.3281 455.484C71.4922 455.73 71.6061 456.008 71.6699 456.318C71.7337 456.628 71.7611 456.943 71.752 457.262C71.7337 457.562 71.6882 457.854 71.6152 458.137C71.5514 458.419 71.4557 458.674 71.3281 458.902C71.2096 459.121 71.0592 459.299 70.877 459.436C70.7038 459.563 70.5033 459.627 70.2754 459.627C70.166 459.618 70.0612 459.581 69.9609 459.518C69.8698 459.463 69.7741 459.381 69.6738 459.271C69.5827 459.162 69.4961 459.003 69.4141 458.793C69.6602 458.693 69.8516 458.52 69.9883 458.273C70.1341 458.018 70.2435 457.754 70.3164 457.48C70.3984 457.171 70.4531 456.824 70.4805 456.441C70.4987 456.068 70.4212 455.794 70.248 455.621C70.0749 455.448 69.8789 455.361 69.6602 455.361C69.2318 455.361 68.7806 455.585 68.3066 456.031C67.8327 456.478 67.3906 457.084 66.9805 457.85C66.5794 458.606 66.2376 459.49 65.9551 460.502C65.6816 461.514 65.5221 462.585 65.4766 463.715C65.4583 464.225 65.4902 464.658 65.5723 465.014C65.6634 465.369 65.7865 465.661 65.9414 465.889C66.1055 466.117 66.2878 466.281 66.4883 466.381C66.6888 466.481 66.8893 466.531 67.0898 466.531C67.4089 466.531 67.7096 466.463 67.9922 466.326C68.2747 466.189 68.5299 466.021 68.7578 465.82C68.9948 465.62 69.1953 465.41 69.3594 465.191C69.5326 464.982 69.6647 464.795 69.7559 464.631C69.8197 464.512 69.888 464.439 69.9609 464.412C70.0339 464.385 70.0977 464.394 70.1523 464.439C70.207 464.476 70.2435 464.54 70.2617 464.631C70.2799 464.713 70.2617 464.813 70.207 464.932C70.0521 465.242 69.8607 465.551 69.6328 465.861C69.4141 466.171 69.1634 466.449 68.8809 466.695C68.6074 466.951 68.3066 467.156 67.9785 467.311C67.6504 467.465 67.304 467.543 66.9395 467.543ZM78.6973 462.279C78.5697 462.462 78.4056 462.689 78.2051 462.963C78.0046 463.227 77.7949 463.496 77.5762 463.77C77.3665 464.034 77.1569 464.28 76.9473 464.508C76.7467 464.727 76.5781 464.882 76.4414 464.973C76.3503 465.027 76.2454 465.073 76.127 465.109C76.0085 465.146 75.8854 465.169 75.7578 465.178C75.6393 465.187 75.5254 465.178 75.416 465.15C75.3066 465.132 75.2109 465.096 75.1289 465.041C75.0469 464.977 74.9785 464.886 74.9238 464.768C74.8783 464.667 74.8327 464.535 74.7871 464.371C74.7507 464.207 74.737 464.002 74.7461 463.756C74.5273 464.12 74.2858 464.403 74.0215 464.604C73.7572 464.795 73.5065 464.936 73.2695 465.027C72.9961 465.128 72.7227 465.187 72.4492 465.205C72.3216 465.205 72.1849 465.16 72.0391 465.068C71.8932 464.986 71.7702 464.854 71.6699 464.672C71.5697 464.48 71.5059 464.239 71.4785 463.947C71.4512 463.646 71.4876 463.291 71.5879 462.881C71.7155 462.325 71.916 461.819 72.1895 461.363C72.472 460.908 72.7773 460.52 73.1055 460.201C73.4336 459.873 73.7572 459.627 74.0762 459.463C74.3952 459.299 74.6595 459.226 74.8691 459.244C75.1152 459.29 75.3158 459.363 75.4707 459.463C75.5983 459.554 75.6803 459.691 75.7168 459.873C75.7624 460.046 75.6895 460.279 75.498 460.57C75.6257 460.543 75.7305 460.525 75.8125 460.516C75.9036 460.507 75.972 460.502 76.0176 460.502C76.0723 460.502 76.1087 460.507 76.127 460.516C76.1361 460.534 76.1406 460.575 76.1406 460.639C76.1406 460.693 76.127 460.798 76.0996 460.953C76.0723 461.108 76.0312 461.318 75.9766 461.582C75.9219 461.846 75.849 462.188 75.7578 462.607C75.7396 462.689 75.7214 462.767 75.7031 462.84C75.694 462.904 75.6803 462.972 75.6621 463.045C75.653 463.109 75.6393 463.186 75.6211 463.277C75.6029 463.368 75.5801 463.482 75.5527 463.619C75.5436 463.701 75.5391 463.792 75.5391 463.893C75.5482 463.984 75.5664 464.07 75.5938 464.152C75.6211 464.234 75.6621 464.303 75.7168 464.357C75.7806 464.403 75.8672 464.426 75.9766 464.426C76.0677 464.426 76.1862 464.371 76.332 464.262C76.4779 464.143 76.6328 463.997 76.7969 463.824C76.9609 463.642 77.1296 463.446 77.3027 463.236C77.485 463.018 77.6536 462.808 77.8086 462.607C77.9635 462.407 78.1003 462.229 78.2188 462.074C78.3464 461.919 78.4375 461.805 78.4922 461.732C78.5651 461.65 78.638 461.605 78.7109 461.596C78.7839 461.577 78.8385 461.596 78.875 461.65C78.9115 461.705 78.916 461.787 78.8887 461.896C78.8704 462.006 78.8066 462.133 78.6973 462.279ZM74.6914 462.881C74.737 462.699 74.7917 462.484 74.8555 462.238C74.9193 461.992 74.974 461.755 75.0195 461.527C75.0651 461.299 75.097 461.113 75.1152 460.967C75.1426 460.812 75.138 460.739 75.1016 460.748C75.056 460.757 75.0059 460.771 74.9512 460.789C74.9056 460.807 74.8464 460.821 74.7734 460.83C74.7005 460.839 74.6276 460.853 74.5547 460.871C74.6276 460.725 74.6686 460.607 74.6777 460.516C74.696 460.415 74.7005 460.338 74.6914 460.283C74.6823 460.219 74.6641 460.169 74.6367 460.133C74.5365 460.051 74.3587 460.119 74.1035 460.338C73.8574 460.548 73.5703 460.939 73.2422 461.514C73.1055 461.751 72.9961 462.006 72.9141 462.279C72.832 462.544 72.7728 462.794 72.7363 463.031C72.709 463.268 72.7044 463.478 72.7227 463.66C72.7409 463.833 72.7773 463.947 72.832 464.002C72.9323 464.102 73.0462 464.152 73.1738 464.152C73.3014 464.143 73.429 464.107 73.5566 464.043C73.6934 463.97 73.8255 463.879 73.9531 463.77C74.0898 463.66 74.2083 463.546 74.3086 463.428C74.418 463.309 74.5046 463.2 74.5684 463.1C74.6413 462.999 74.6823 462.926 74.6914 462.881ZM76.7969 470.838C76.7331 470.811 76.6693 470.77 76.6055 470.715C76.5508 470.669 76.4961 470.61 76.4414 470.537C76.3867 470.473 76.3411 470.391 76.3047 470.291C76.5599 469.316 76.7786 468.468 76.9609 467.748C77.1341 467.028 77.2845 466.426 77.4121 465.943C77.5488 465.378 77.6673 464.904 77.7676 464.521C77.8587 464.157 77.9499 463.792 78.041 463.428C78.1139 463.109 78.1914 462.767 78.2734 462.402C78.3646 462.038 78.4466 461.696 78.5195 461.377C78.6107 461.021 78.6654 460.739 78.6836 460.529C78.7018 460.311 78.6335 460.124 78.4785 459.969C78.5879 459.878 78.6973 459.809 78.8066 459.764C78.9251 459.709 79.0299 459.673 79.1211 459.654C79.2214 459.627 79.3216 459.618 79.4219 459.627C79.668 459.645 79.8184 459.723 79.873 459.859C79.9368 459.996 79.946 460.215 79.9004 460.516C79.8913 460.561 79.8822 460.602 79.873 460.639C79.873 460.666 79.873 460.698 79.873 460.734C80.0007 460.589 80.1419 460.447 80.2969 460.311C80.4518 460.174 80.6068 460.051 80.7617 459.941C80.9258 459.832 81.0898 459.745 81.2539 459.682C81.4271 459.609 81.5911 459.572 81.7461 459.572C81.9557 459.572 82.1243 459.627 82.252 459.736C82.3887 459.837 82.4935 459.973 82.5664 460.146C82.6393 460.32 82.6849 460.516 82.7031 460.734C82.7214 460.944 82.7259 461.154 82.7168 461.363C82.7077 461.591 82.6667 461.833 82.5938 462.088C82.5299 462.343 82.4388 462.603 82.3203 462.867C82.2018 463.132 82.0651 463.391 81.9102 463.646C81.7552 463.902 81.5911 464.139 81.418 464.357C81.4544 464.367 81.4772 464.376 81.4863 464.385C81.4954 464.385 81.5 464.389 81.5 464.398C81.5 464.398 81.5046 464.403 81.5137 464.412C81.5319 464.412 81.5638 464.412 81.6094 464.412C81.819 464.412 82.0332 464.357 82.252 464.248C82.4707 464.139 82.6849 464.002 82.8945 463.838C83.1042 463.665 83.3047 463.478 83.4961 463.277C83.6966 463.077 83.8743 462.885 84.0293 462.703C84.1934 462.512 84.3301 462.343 84.4395 462.197C84.5488 462.042 84.6309 461.933 84.6855 461.869C84.7585 461.778 84.8268 461.719 84.8906 461.691C84.9544 461.655 85.0046 461.65 85.041 461.678C85.0775 461.705 85.0957 461.76 85.0957 461.842C85.0957 461.915 85.0684 462.01 85.0137 462.129C84.9772 462.211 84.8997 462.343 84.7812 462.525C84.6628 462.708 84.5169 462.913 84.3438 463.141C84.1706 463.368 83.9701 463.605 83.7422 463.852C83.5234 464.098 83.291 464.321 83.0449 464.521C82.7988 464.722 82.5436 464.886 82.2793 465.014C82.0241 465.15 81.7734 465.219 81.5273 465.219C81.4089 465.219 81.3132 465.214 81.2402 465.205C81.1673 465.196 81.1035 465.178 81.0488 465.15C81.0033 465.132 80.9577 465.109 80.9121 465.082C80.8665 465.064 80.8118 465.041 80.748 465.014C80.584 465.141 80.4154 465.237 80.2422 465.301C80.069 465.374 79.9004 465.41 79.7363 465.41C79.5814 465.41 79.4447 465.383 79.3262 465.328C79.2168 465.283 79.1257 465.214 79.0527 465.123C78.9798 465.041 78.9206 464.95 78.875 464.85C78.8294 464.74 78.793 464.635 78.7656 464.535C78.7565 464.572 78.7474 464.604 78.7383 464.631C78.7383 464.658 78.7337 464.695 78.7246 464.74C78.6152 465.178 78.5013 465.684 78.3828 466.258C78.2826 466.75 78.1595 467.347 78.0137 468.049C77.877 468.76 77.7311 469.566 77.5762 470.469C77.5215 470.715 77.4258 470.856 77.2891 470.893C77.1432 470.929 76.9792 470.911 76.7969 470.838ZM79.2988 462.361C79.2533 462.516 79.2031 462.699 79.1484 462.908C79.1029 463.109 79.0482 463.35 78.9844 463.633C79.0573 463.578 79.1393 463.537 79.2305 463.51C79.3216 463.482 79.4128 463.469 79.5039 463.469C79.6042 463.469 79.7318 463.523 79.8867 463.633C80.0417 463.733 80.2285 463.842 80.4473 463.961C80.584 463.797 80.7253 463.615 80.8711 463.414C81.026 463.204 81.1628 462.99 81.2812 462.771C81.4089 462.553 81.5137 462.329 81.5957 462.102C81.6868 461.874 81.737 461.655 81.7461 461.445C81.7643 461.172 81.7324 460.958 81.6504 460.803C81.5684 460.648 81.4316 460.57 81.2402 460.57C80.9577 460.57 80.6478 460.739 80.3105 461.076C79.9824 461.404 79.6452 461.833 79.2988 462.361ZM89.1426 461.541C89.179 461.486 89.2246 461.454 89.2793 461.445C89.3431 461.427 89.3932 461.432 89.4297 461.459C89.4661 461.486 89.4844 461.532 89.4844 461.596C89.4935 461.66 89.4707 461.746 89.416 461.855C89.2337 462.202 88.9922 462.576 88.6914 462.977C88.3997 463.378 88.0898 463.756 87.7617 464.111C87.4336 464.458 87.1146 464.745 86.8047 464.973C86.4948 465.201 86.235 465.314 86.0254 465.314C85.7246 465.314 85.474 465.255 85.2734 465.137C85.0729 465.018 84.9134 464.872 84.7949 464.699C84.6855 464.526 84.6081 464.339 84.5625 464.139C84.5169 463.929 84.5033 463.738 84.5215 463.564C84.5306 463.419 84.5625 463.159 84.6172 462.785C84.6719 462.402 84.7448 461.965 84.8359 461.473C84.9271 460.971 85.0273 460.438 85.1367 459.873C85.2552 459.299 85.3783 458.747 85.5059 458.219C85.3509 458.237 85.196 458.255 85.041 458.273C84.8861 458.292 84.7448 458.301 84.6172 458.301C84.3255 458.301 84.0521 458.269 83.7969 458.205C83.5326 458.132 83.3366 458.064 83.209 458C83.1361 457.964 83.1042 457.913 83.1133 457.85C83.1224 457.777 83.1497 457.708 83.1953 457.645C83.2409 457.572 83.3001 457.512 83.373 457.467C83.4368 457.412 83.4961 457.385 83.5508 457.385C83.724 457.403 83.9108 457.421 84.1113 457.439C84.3118 457.449 84.5306 457.449 84.7676 457.439C84.9408 457.43 85.1048 457.417 85.2598 457.398C85.4238 457.38 85.5833 457.357 85.7383 457.33C85.8568 456.893 85.9707 456.514 86.0801 456.195C86.1986 455.867 86.3034 455.639 86.3945 455.512C86.4219 455.466 86.4811 455.43 86.5723 455.402C86.6725 455.366 86.7773 455.343 86.8867 455.334C86.9961 455.316 87.1009 455.316 87.2012 455.334C87.3014 455.343 87.3743 455.375 87.4199 455.43C87.4655 455.503 87.4837 455.689 87.4746 455.99C87.4655 456.291 87.4154 456.674 87.3242 457.139C87.707 457.139 88.0443 457.161 88.3359 457.207C88.6367 457.243 88.8919 457.289 89.1016 457.344C89.3112 457.389 89.4798 457.439 89.6074 457.494C89.735 457.54 89.8307 457.572 89.8945 457.59C89.9583 457.608 89.9902 457.654 89.9902 457.727C89.9993 457.799 89.9857 457.877 89.9492 457.959C89.9219 458.032 89.8717 458.096 89.7988 458.15C89.7259 458.205 89.6439 458.223 89.5527 458.205C89.4616 458.196 89.3568 458.178 89.2383 458.15C89.1289 458.123 88.9922 458.1 88.8281 458.082C88.6732 458.064 88.4863 458.046 88.2676 458.027C88.0488 458.009 87.7936 458 87.502 458C87.4473 458 87.3835 458.005 87.3105 458.014C87.2467 458.014 87.1784 458.014 87.1055 458.014C87.069 458.16 87.0326 458.305 86.9961 458.451C86.9688 458.588 86.9277 458.734 86.873 458.889C86.7546 459.253 86.6178 459.65 86.4629 460.078C86.3262 460.452 86.1621 460.88 85.9707 461.363C85.7793 461.846 85.5651 462.361 85.3281 462.908C85.2734 463.3 85.278 463.601 85.3418 463.811C85.4147 464.011 85.5013 464.157 85.6016 464.248C85.7201 464.348 85.8659 464.403 86.0391 464.412C86.1758 464.43 86.3398 464.385 86.5312 464.275C86.7318 464.157 86.9368 464.002 87.1465 463.811C87.3561 463.619 87.5658 463.41 87.7754 463.182C87.9941 462.954 88.1947 462.73 88.377 462.512C88.5592 462.293 88.7188 462.097 88.8555 461.924C88.9922 461.742 89.0879 461.614 89.1426 461.541ZM91.3301 456.947C91.3027 457.048 91.248 457.148 91.166 457.248C91.0931 457.339 91.0065 457.417 90.9062 457.48C90.8151 457.535 90.7194 457.572 90.6191 457.59C90.5189 457.608 90.4368 457.59 90.373 457.535C90.1816 457.389 90.0814 457.234 90.0723 457.07C90.0632 456.897 90.1042 456.738 90.1953 456.592C90.2865 456.437 90.4004 456.309 90.5371 456.209C90.6738 456.1 90.7923 456.036 90.8926 456.018C90.9928 455.999 91.0749 456.022 91.1387 456.086C91.2116 456.141 91.2663 456.218 91.3027 456.318C91.3392 456.41 91.3574 456.514 91.3574 456.633C91.3665 456.751 91.3574 456.856 91.3301 456.947ZM89.4434 459.859C89.4889 459.805 89.5755 459.759 89.7031 459.723C89.8307 459.686 89.9629 459.659 90.0996 459.641C90.2363 459.613 90.3594 459.6 90.4688 459.6C90.5872 459.59 90.6556 459.59 90.6738 459.6C90.6829 459.609 90.6602 459.704 90.6055 459.887C90.5508 460.069 90.4824 460.283 90.4004 460.529C90.3184 460.775 90.2318 461.031 90.1406 461.295C90.0495 461.55 89.9811 461.76 89.9355 461.924C89.89 462.088 89.8353 462.275 89.7715 462.484C89.7077 462.685 89.6484 462.885 89.5938 463.086C89.5482 463.277 89.5163 463.46 89.498 463.633C89.4798 463.806 89.4935 463.938 89.5391 464.029C89.5846 464.139 89.6348 464.216 89.6895 464.262C89.7441 464.298 89.8034 464.316 89.8672 464.316C90.0495 464.316 90.2773 464.216 90.5508 464.016C90.8333 463.815 91.1159 463.578 91.3984 463.305C91.6901 463.022 91.959 462.74 92.2051 462.457C92.4512 462.165 92.6335 461.933 92.752 461.76C92.8249 461.669 92.8978 461.609 92.9707 461.582C93.0527 461.555 93.1165 461.559 93.1621 461.596C93.2168 461.632 93.2441 461.691 93.2441 461.773C93.2533 461.855 93.2259 461.951 93.1621 462.061C93.0163 462.316 92.8021 462.621 92.5195 462.977C92.237 463.323 91.9362 463.66 91.6172 463.988C91.2982 464.307 90.9837 464.581 90.6738 464.809C90.373 465.036 90.127 465.155 89.9355 465.164C89.7806 465.173 89.6257 465.146 89.4707 465.082C89.3249 465.027 89.1882 464.95 89.0605 464.85C88.9421 464.74 88.8418 464.617 88.7598 464.48C88.6777 464.335 88.6322 464.184 88.623 464.029C88.5957 463.801 88.5957 463.492 88.623 463.1C88.6504 462.699 88.7005 462.293 88.7734 461.883C88.8464 461.464 88.9375 461.067 89.0469 460.693C89.1654 460.32 89.2975 460.042 89.4434 459.859ZM96.2109 462.826C96.1198 463.173 95.9967 463.496 95.8418 463.797C95.6868 464.098 95.5 464.357 95.2812 464.576C95.0716 464.795 94.8301 464.964 94.5566 465.082C94.2923 465.21 94.0007 465.273 93.6816 465.273C93.3079 465.273 93.0117 465.191 92.793 465.027C92.5833 464.872 92.4238 464.676 92.3145 464.439C92.2142 464.202 92.1549 463.943 92.1367 463.66C92.1094 463.378 92.0957 463.113 92.0957 462.867C92.0957 462.694 92.1185 462.503 92.1641 462.293C92.2005 462.083 92.2552 461.869 92.3281 461.65C92.401 461.432 92.4922 461.213 92.6016 460.994C92.7201 460.775 92.8568 460.575 93.0117 460.393C93.0664 460.238 93.1484 460.101 93.2578 459.982C93.3763 459.864 93.5085 459.768 93.6543 459.695C93.8092 459.613 93.9733 459.554 94.1465 459.518C94.3197 459.472 94.4883 459.449 94.6523 459.449C94.6797 459.449 94.7025 459.454 94.7207 459.463C94.748 459.472 94.7754 459.481 94.8027 459.49C94.9212 459.499 95.0671 459.545 95.2402 459.627C95.4225 459.709 95.5957 459.832 95.7598 459.996C95.9329 460.16 96.0788 460.37 96.1973 460.625C96.3158 460.871 96.375 461.172 96.375 461.527C96.375 461.6 96.3704 461.691 96.3613 461.801C96.3522 461.901 96.3431 461.988 96.334 462.061C96.5436 461.979 96.7624 461.878 96.9902 461.76C97.2181 461.641 97.4368 461.518 97.6465 461.391C97.8652 461.254 98.0658 461.117 98.248 460.98C98.4303 460.844 98.5762 460.721 98.6855 460.611C98.7767 460.529 98.8542 460.484 98.918 460.475C98.9818 460.465 99.0273 460.484 99.0547 460.529C99.082 460.575 99.0866 460.639 99.0684 460.721C99.0501 460.803 99 460.894 98.918 460.994C98.8724 461.049 98.7539 461.158 98.5625 461.322C98.3802 461.486 98.1615 461.664 97.9062 461.855C97.651 462.047 97.373 462.234 97.0723 462.416C96.7715 462.598 96.4844 462.735 96.2109 462.826ZM93.9004 460.748C93.873 460.83 93.8594 460.917 93.8594 461.008C93.8594 461.154 93.8685 461.309 93.8867 461.473C93.9049 461.628 93.9505 461.769 94.0234 461.896C94.0964 462.024 94.2103 462.133 94.3652 462.225C94.5293 462.307 94.7526 462.348 95.0352 462.348C95.0807 462.348 95.1263 462.348 95.1719 462.348C95.2174 462.339 95.263 462.329 95.3086 462.32C95.3359 462.202 95.3587 462.097 95.377 462.006C95.4043 461.906 95.418 461.819 95.418 461.746C95.4362 461.573 95.4362 461.395 95.418 461.213C95.3997 461.031 95.3633 460.867 95.3086 460.721C95.263 460.566 95.1992 460.443 95.1172 460.352C95.0443 460.251 94.9531 460.201 94.8438 460.201C94.6706 460.201 94.502 460.251 94.3379 460.352C94.1829 460.443 94.0371 460.575 93.9004 460.748ZM93.0254 463.154C93.0254 463.318 93.0345 463.482 93.0527 463.646C93.071 463.801 93.1074 463.943 93.1621 464.07C93.2168 464.189 93.2897 464.289 93.3809 464.371C93.472 464.444 93.5905 464.48 93.7363 464.48C93.9004 464.48 94.0508 464.444 94.1875 464.371C94.3242 464.289 94.4473 464.189 94.5566 464.07C94.666 463.943 94.7617 463.801 94.8438 463.646C94.9349 463.482 95.0124 463.314 95.0762 463.141C95.0124 463.15 94.9486 463.159 94.8848 463.168C94.8301 463.168 94.7663 463.168 94.6934 463.168C94.347 463.168 94.0462 463.068 93.791 462.867C93.5449 462.658 93.3535 462.393 93.2168 462.074C93.1621 462.266 93.1165 462.452 93.0801 462.635C93.0436 462.817 93.0254 462.99 93.0254 463.154ZM101.734 465.342C101.525 465.342 101.342 465.301 101.188 465.219C101.042 465.146 100.923 465.046 100.832 464.918C100.741 464.79 100.682 464.645 100.654 464.48C100.627 464.307 100.636 464.125 100.682 463.934C100.709 463.806 100.755 463.637 100.818 463.428C100.882 463.209 100.946 462.977 101.01 462.73C101.083 462.475 101.146 462.225 101.201 461.979C101.265 461.723 101.306 461.495 101.324 461.295C101.342 461.085 101.333 460.917 101.297 460.789C101.26 460.652 101.183 460.584 101.064 460.584C100.919 460.584 100.768 460.634 100.613 460.734C100.458 460.826 100.299 460.953 100.135 461.117C99.9798 461.281 99.8203 461.473 99.6562 461.691C99.5013 461.901 99.3464 462.12 99.1914 462.348C99.1094 462.658 99.041 462.931 98.9863 463.168C98.9316 463.396 98.8815 463.605 98.8359 463.797C98.7995 463.979 98.763 464.143 98.7266 464.289C98.6901 464.426 98.6582 464.558 98.6309 464.686C98.6035 464.777 98.5215 464.868 98.3848 464.959C98.248 465.041 98.1022 465.109 97.9473 465.164C97.7923 465.219 97.6602 465.246 97.5508 465.246C97.4323 465.246 97.3822 465.205 97.4004 465.123C97.4095 465.068 97.4414 464.945 97.4961 464.754C97.5417 464.562 97.6009 464.339 97.6738 464.084C97.7376 463.82 97.806 463.542 97.8789 463.25C97.9518 462.958 98.0202 462.68 98.084 462.416C98.1296 462.206 98.1797 461.974 98.2344 461.719C98.2799 461.5 98.3346 461.245 98.3984 460.953C98.4714 460.661 98.5534 460.342 98.6445 459.996C98.7083 459.941 98.7721 459.9 98.8359 459.873C98.9089 459.837 98.9818 459.809 99.0547 459.791C99.1276 459.764 99.2051 459.745 99.2871 459.736C99.36 459.736 99.4329 459.741 99.5059 459.75C99.5697 459.759 99.6335 459.777 99.6973 459.805C99.7702 459.823 99.834 459.855 99.8887 459.9C99.8613 459.964 99.8294 460.055 99.793 460.174C99.7565 460.283 99.7201 460.402 99.6836 460.529C99.6471 460.675 99.6016 460.826 99.5469 460.98C99.6654 460.816 99.7975 460.652 99.9434 460.488C100.098 460.315 100.262 460.16 100.436 460.023C100.618 459.887 100.809 459.777 101.01 459.695C101.21 459.604 101.415 459.559 101.625 459.559C101.798 459.559 101.953 459.609 102.09 459.709C102.227 459.809 102.331 459.951 102.404 460.133C102.486 460.306 102.532 460.516 102.541 460.762C102.559 461.008 102.527 461.277 102.445 461.568L102.295 462.17C102.249 462.361 102.19 462.589 102.117 462.854C102.053 463.109 101.971 463.391 101.871 463.701C101.816 463.902 101.794 464.075 101.803 464.221C101.821 464.367 101.912 464.439 102.076 464.439C102.24 464.439 102.445 464.339 102.691 464.139C102.947 463.938 103.202 463.697 103.457 463.414C103.712 463.132 103.954 462.844 104.182 462.553C104.41 462.252 104.583 462.01 104.701 461.828C104.783 461.71 104.861 461.632 104.934 461.596C105.007 461.559 105.061 461.555 105.098 461.582C105.143 461.609 105.166 461.673 105.166 461.773C105.166 461.865 105.13 461.983 105.057 462.129C104.993 462.257 104.893 462.425 104.756 462.635C104.628 462.844 104.473 463.068 104.291 463.305C104.109 463.542 103.913 463.783 103.703 464.029C103.493 464.266 103.275 464.485 103.047 464.686C102.819 464.877 102.591 465.032 102.363 465.15C102.145 465.278 101.935 465.342 101.734 465.342Z" fill="black"/>
<defs>
<filter id="filter0_d" x="378" y="71" width="72" height="72" filterUnits="userSpaceOnUse" color-interpolation-filters="sRGB">
<feFlood flood-opacity="0" result="BackgroundImageFix"/>
<feColorMatrix in="SourceAlpha" type="matrix" values="0 0 0 0 0 0 0 0 0 0 0 0 0 0 0 0 0 0 127 0"/>
<feOffset/>
<feGaussianBlur stdDeviation="3"/>
<feColorMatrix type="matrix" values="0 0 0 0 0 0 0 0 0 0 0 0 0 0 0 0 0 0 0.1 0"/>
<feBlend mode="normal" in2="BackgroundImageFix" result="effect1_dropShadow"/>
<feBlend mode="normal" in="SourceGraphic" in2="effect1_dropShadow" result="shape"/>
</filter>
<filter id="filter1_d" x="378" y="190" width="72" height="72" filterUnits="userSpaceOnUse" color-interpolation-filters="sRGB">
<feFlood flood-opacity="0" result="BackgroundImageFix"/>
<feColorMatrix in="SourceAlpha" type="matrix" values="0 0 0 0 0 0 0 0 0 0 0 0 0 0 0 0 0 0 127 0"/>
<feOffset/>
<feGaussianBlur stdDeviation="3"/>
<feColorMatrix type="matrix" values="0 0 0 0 0 0 0 0 0 0 0 0 0 0 0 0 0 0 0.1 0"/>
<feBlend mode="normal" in2="BackgroundImageFix" result="effect1_dropShadow"/>
<feBlend mode="normal" in="SourceGraphic" in2="effect1_dropShadow" result="shape"/>
</filter>
</defs>
</svg>
